<svg xmlns="http://www.w3.org/2000/svg" width="89.873" height="129.198" viewBox="0 0 89.873 129.198"><defs><style>.a{fill:#1bcae6;}</style></defs><g transform="translate(-25.93 -6.267)"><path class="a" d="M61.692,128.514a1.337,1.337,0,0,1-1.322,1.375H59.026a.826.826,0,0,1-.812-.8l-.091-6.175H52.538l.1,6.275a6.388,6.388,0,0,0,6.388,6.275H60.37a6.9,6.9,0,0,0,6.9-6.774l.274-5.776h-5.59Zm21.827.588a.8.8,0,0,1-.805.781H81.373a1.319,1.319,0,0,1-1.325-1.292l-.266-5.676H74.191l.275,5.859a6.876,6.876,0,0,0,6.907,6.691h1.341a6.393,6.393,0,0,0,6.391-6.264l.095-6.286H83.615Zm30.139-60.079L92.465,50.178a2.794,2.794,0,0,0-1.558-.688c-.006,0-.538-.055-1.4-.15v-.31a2.8,2.8,0,0,0-2.794-2.788H83.424A2.764,2.764,0,0,0,80.7,48.437l-.823-.083c-.008-.205-.011-.416-.008-.638a24.566,24.566,0,0,1,.216-3.065,15.957,15.957,0,0,0,3.756-3.026c3.376-3.714,5.249-9.163,5.238-16.119,0-.46-.033-.925-.066-1.38H94a2.791,2.791,0,0,0,0-5.582H81.2a2.8,2.8,0,0,1,2.788-2.8H87.4a19.2,19.2,0,0,0-35.132,4.883,2.77,2.77,0,0,0,.5,2.412c.02.022.045.044.064.066a18.712,18.712,0,0,0-.172,2.4c-.008,6.956,1.868,12.4,5.244,16.119a15.6,15.6,0,0,0,3.758,3.026,25.471,25.471,0,0,1,.208,3.065c0,.222,0,.433-.009.638-.177.017-.357.039-.537.055a2.787,2.787,0,0,0-2.717-2.173H55.323a2.807,2.807,0,0,0-2.8,2.794v.283c-1.042.1-1.7.177-1.7.177a2.779,2.779,0,0,0-1.555.688L28.08,69.023a6.383,6.383,0,0,0-.6,8.946l.87,1.013a6.891,6.891,0,0,0,5.244,2.412,6.971,6.971,0,0,0,4.384-1.563l6.289-5.194-.984,44.348a2.8,2.8,0,0,0,2.793,2.855H95.96a2.793,2.793,0,0,0,2.785-2.855l-.971-44.1,5.982,4.938a6.905,6.905,0,0,0,9.628-.831l.884-1.031a6.394,6.394,0,0,0-.61-8.934ZM44.426,67.266l-10,8.247a1.34,1.34,0,0,1-.837.294,1.309,1.309,0,0,1-1-.454l-.881-1.032a.783.783,0,0,1-.2-.521.769.769,0,0,1,.272-.6L44.548,61.856ZM85.315,54.512c1.726.178,3.219.333,4.1.432l2.131,1.9H84.061A2.808,2.808,0,0,1,85.315,54.512ZM58.247,25.506a13.285,13.285,0,0,1,.108-1.38H83.416a11.758,11.758,0,0,1,.083,1.38c-.006,6-1.589,9.933-3.795,12.361a11.492,11.492,0,0,1-8.833,3.6,11.5,11.5,0,0,1-8.835-3.6C59.827,35.439,58.25,31.509,58.247,25.506ZM57.4,54.412c1.169-.116,2.414-.244,3.644-.366H61.4v-.038c1.073-.106,2.126-.2,3.09-.294a2.785,2.785,0,0,0,2.367-1.835c.03-.083.056-.171.08-.255a12.952,12.952,0,0,0,.518-3.908c0-.321-.016-.642-.027-.958a20.307,20.307,0,0,0,3.439.3h.072a19.439,19.439,0,0,0,3.362-.3c-.017.31-.025.637-.025.958A12.56,12.56,0,0,0,74.8,51.63a2.079,2.079,0,0,0,.078.249,2.785,2.785,0,0,0,2.37,1.835c1.053.1,2.206.2,3.381.321V56.84H55.969A2.782,2.782,0,0,1,57.4,54.412Zm-5.08.532c.058-.005.144-.011.205-.022V56.84H50.193ZM48.93,116.259l1.183-53.837h41.8L93.1,116.259Zm61.094-41.932-.876,1.026a1.336,1.336,0,0,1-1,.454,1.308,1.308,0,0,1-.836-.294l-9.706-8-.114-5.387L109.949,73.2a.776.776,0,0,1,.27.6A.8.8,0,0,1,110.024,74.327Z"/></g></svg>