<svg xmlns="http://www.w3.org/2000/svg" width="135.736" height="98.865" viewBox="0 0 135.736 98.865">
    <defs>
        <style>
            .a {
                fill: #db2689;
            }
        </style>
    </defs>
    <path class="a"
        d="M15.556,57.349a1.158,1.158,0,0,0-1.868,1.369l.255.354a1.155,1.155,0,0,0,.935.47,1.12,1.12,0,0,0,.684-.227,1.157,1.157,0,0,0,.249-1.618Zm122.582-4.166c-.118-.086-17.991-20.068-35.415-28.393-.024-.011-.049-.016-.075-.026a2.225,2.225,0,0,0-.253-.091c-.067-.02-.134-.04-.2-.055-.033,0-.06-.02-.091-.026L91.926,22.955,88.359,21.59a2.308,2.308,0,0,0-2.769.894,2.053,2.053,0,0,1-.145.2c-.918,1.177-5.388,6.485-14.578,6.49a19.124,19.124,0,0,1-11.344-3.437,16.6,16.6,0,0,1-2.63-2.325c-.281-.314-.482-.567-.6-.728a2.091,2.091,0,0,1-.144-.2,2.314,2.314,0,0,0-2.772-.894l-3.56,1.365L39.634,24.592c-.032.006-.06.021-.09.026-.071.015-.142.035-.213.055s-.164.056-.241.086c-.027.015-.054.015-.082.031C21.589,33.115,3.712,53.1,3.594,53.183a2.311,2.311,0,0,0-.14,2.927L19.577,77.893a2.314,2.314,0,0,0,1.868.935,2.29,2.29,0,0,0,1.246-.364l12.766-8.185v47.7a2.329,2.329,0,0,0,2.319,2.321h66.183a2.325,2.325,0,0,0,2.314-2.321v-47.7l12.77,8.185a2.286,2.286,0,0,0,1.248.364,2.31,2.31,0,0,0,1.864-.935L138.279,56.11A2.312,2.312,0,0,0,138.138,53.183ZM35.7,64.623,25.62,71.083l-8.1-11.06a1.158,1.158,0,1,0-1.868,1.37l8.019,10.939-1.652,1.062L8.322,54.9c.394-.42.892-.94,1.456-1.517l2.075,2.831a1.157,1.157,0,1,0,1.866-1.37l-2.3-3.134c5.722-5.737,16.31-15.508,26.587-21.19.149,2.062.293,4.979.293,8.533A124.657,124.657,0,0,1,35.7,64.623Zm17.756-38.1A23.052,23.052,0,0,0,70.867,33.8a23.045,23.045,0,0,0,17.408-7.284l.759.292C86.939,29.7,81.9,34.642,70.867,34.667c-7.887-.01-12.681-2.548-15.569-5.03a16.329,16.329,0,0,1-2.6-2.826Zm48.186,84.6H53.185a1.161,1.161,0,0,0,0,2.321h48.458v2.223H40.092V113.44h2.939a1.158,1.158,0,0,0,0-2.316H40.092V66.291a128.651,128.651,0,0,0,2.847-27.236c0-4.535-.228-8.1-.411-10.232l7.864-1.268C52.53,30.8,58.3,37,70.867,36.982h.061c12.525,0,18.278-6.187,20.414-9.427l7.865,1.268c-.185,2.138-.411,5.7-.411,10.232a128.227,128.227,0,0,0,2.847,27.236ZM119.72,73.394l-1.656-1.062,8.02-10.945a1.156,1.156,0,1,0-1.866-1.364l-8.106,11.06-10.081-6.465a124.5,124.5,0,0,1-2.6-25.563c0-3.574.145-6.491.3-8.543,7.1,3.932,14.394,9.832,20.076,14.993,2.535,2.3,4.744,4.443,6.508,6.212l-2.295,3.129a1.159,1.159,0,0,0,1.87,1.37l2.073-2.831c.561.582,1.059,1.1,1.455,1.517Zm6.458-16.04-.255.343a1.159,1.159,0,0,0,.249,1.623,1.129,1.129,0,0,0,.68.222,1.166,1.166,0,0,0,.938-.475l.256-.343a1.158,1.158,0,1,0-1.868-1.37Zm-78.45,53.77H46.64a1.158,1.158,0,1,0,0,2.316h1.088a1.158,1.158,0,1,0,0-2.316Z"
        transform="translate(-2.998 -21.434)" />
</svg>