<svg xmlns="http://www.w3.org/2000/svg" width="122.289" height="128.564" viewBox="0 0 122.289 128.564">
  <defs>
    <style>
      .cls-1 {
        fill: #9a57c1;
      }
    </style>
  </defs>
  <g id="televize" transform="translate(-9.722 -6.584)">
    <rect id="Rectangle_15" data-name="Rectangle 15" class="cls-1" width="15.096" height="5.977" transform="translate(28.907 129.172)"/>
    <path id="Path_134" data-name="Path 134" class="cls-1" d="M105.952,84.64H123V83.022H105.952Zm0,6.472H123v-1.62H105.952Zm0-3.24H123V86.254H105.952Zm12.478,16.142a5.594,5.594,0,1,0-7.912,0A5.592,5.592,0,0,0,118.43,104.014Zm-2.561-7.525a1.537,1.537,0,1,1,0,2.173A1.533,1.533,0,0,1,115.869,96.489Zm-1.394,12.651a5.6,5.6,0,1,0,5.594,5.6A5.6,5.6,0,0,0,114.475,109.14Zm-3.508,7.136a1.538,1.538,0,1,1,1.536-1.54A1.541,1.541,0,0,1,110.967,116.276Zm-5.015-54.282H123V60.373H105.952Zm0,3.237H123v-1.62H105.952ZM123.195,43.95H46.4a3.043,3.043,0,0,1,3.042-3.043h5.733l21.074-7.538A2.713,2.713,0,0,0,78,31.291l2.8-1L100.921,23.1l.111.254a1.373,1.373,0,0,0,1.261.833,1.335,1.335,0,0,0,.53-.112,1.371,1.371,0,0,0,.72-1.8l-1.289-3.006a1.366,1.366,0,1,0-2.51,1.077l.1.237L79.879,27.722l-2.794,1a2.725,2.725,0,0,0-2.676-.493l-26.557,9.5a13.386,13.386,0,0,0-4.794-.9,14.076,14.076,0,0,0-2.347.215L29.354,24.21a2.676,2.676,0,0,0-2.552-.828L14.168,9.111l.2-.2a1.365,1.365,0,1,0-1.931-1.93L10.122,9.3a1.367,1.367,0,0,0,.964,2.334,1.388,1.388,0,0,0,.97-.4l.179-.183L24.752,25.192a2.689,2.689,0,0,0,.512,2.635L35.391,39.273a9.092,9.092,0,0,0-3.345,4.677H20.529a8.818,8.818,0,0,0-8.815,8.82v70.32a8.819,8.819,0,0,0,8.815,8.812H99.722v3.246h15.1V131.9h8.375a8.816,8.816,0,0,0,8.816-8.812V52.77A8.817,8.817,0,0,0,123.195,43.95Zm3.356,79.14a3.362,3.362,0,0,1-3.356,3.349H20.529a3.361,3.361,0,0,1-3.352-3.349V52.77a3.361,3.361,0,0,1,3.352-3.354H123.195a3.362,3.362,0,0,1,3.356,3.354Zm-20.6-54.626H123V66.847H105.952Zm0,3.232H123V70.084H105.952Zm0,6.473H123v-1.62H105.952Zm0,3.232H123V79.787H105.952Zm0-6.467H123V73.316H105.952Z"/>
    <path id="Path_135" data-name="Path 135" class="cls-1" d="M50.745,81.4a.663.663,0,0,0-.758,0,1.055,1.055,0,0,0-.174.433L47.328,92.083H53.4L50.916,81.831A1.059,1.059,0,0,0,50.745,81.4Zm50.616-1.636c-.156-3.1-.389-6.318-.741-9.75-.207-2.023-.455-4.119-.756-6.315a6.087,6.087,0,0,0-5.48-5.231c-2.019-.185-3.969-.343-5.862-.483-3.347-.248-6.515-.44-9.569-.585s-5.989-.246-8.866-.313-5.694-.1-8.513-.1-5.634.031-8.513.1-5.81.176-8.863.318-6.223.337-9.571.585q-2.836.21-5.858.483A6.093,6.093,0,0,0,23.285,63.7c-.3,2.2-.545,4.295-.755,6.315-.351,3.432-.59,6.648-.743,9.75s-.226,6.1-.226,9.086.07,5.985.226,9.092.392,6.316.743,9.75c.21,2.021.456,4.116.755,6.313a6.09,6.09,0,0,0,5.483,5.232c2.016.184,3.968.34,5.859.48,3.348.251,6.519.44,9.571.589s5.985.248,8.863.314,5.695.1,8.513.1,5.638-.03,8.513-.1,5.812-.167,8.866-.314,6.222-.338,9.569-.589q2.836-.21,5.862-.48A6.089,6.089,0,0,0,99.864,114c.3-2.2.549-4.292.756-6.313.354-3.434.591-6.649.741-9.75s.227-6.1.227-9.092S101.518,82.866,101.361,79.762ZM38.86,64.654c1.944-.126,3.823-.228,5.662-.315,1.576-.075,3.115-.137,4.644-.193.161,0,.329-.01.5-.013,1.195-.048,2.382-.081,3.563-.107a.964.964,0,0,1,.042,1.928q-1.752.037-3.542.1c-.166,0-.333.013-.5.013-1.514.059-3.042.122-4.609.2-1.827.08-3.7.192-5.627.311a.472.472,0,0,1-.065,0,.965.965,0,0,1-.065-1.927Zm-5.245,2.3c-.189.014-.367.025-.532.045-.029,0-.057.005-.086.005a.964.964,0,0,1-.078-1.924c.186-.019.368-.031.539-.045.565-.042,1.13-.086,1.685-.125a.962.962,0,1,1,.142,1.918C34.733,66.877,34.171,66.922,33.615,66.958Zm6.162,14.583H35.186V74.352a2.294,2.294,0,0,1,2.295-2.3h7.19v4.588H39.777ZM60.684,103a.653.653,0,0,1-.45.153H56.577a.555.555,0,0,1-.413-.173.884.884,0,0,1-.241-.415l-1.59-6.553H46.4l-1.588,6.553a.977.977,0,0,1-.241.415.575.575,0,0,1-.417.173H40.5a.647.647,0,0,1-.449-.153.554.554,0,0,1-.173-.435.138.138,0,0,1,.016-.067.2.2,0,0,0,.019-.1l5.66-21.638a4.708,4.708,0,0,1,.9-1.9,4.508,4.508,0,0,1,1.258-1.051,4.274,4.274,0,0,1,1.381-.466,7.9,7.9,0,0,1,2.518,0A4.227,4.227,0,0,1,53,77.81a4.5,4.5,0,0,1,1.26,1.051,4.761,4.761,0,0,1,.9,1.9L60.821,102.4a.224.224,0,0,0,.017.1.164.164,0,0,1,.016.067A.556.556,0,0,1,60.684,103Zm14.113.189a26.833,26.833,0,0,1-3.487.241q-4.176,0-6.21-2.295a9.251,9.251,0,0,1-2.036-6.365V92.116A9.236,9.236,0,0,1,65.1,85.752q2.039-2.3,6.21-2.3c.416,0,.91.02,1.484.05s1.185.1,1.83.19V77.586a.677.677,0,0,1,.207-.483.653.653,0,0,1,.484-.208H78.49a.709.709,0,0,1,.69.691V101.6a.814.814,0,0,1-.173.569,1.675,1.675,0,0,1-.759.362A28.72,28.72,0,0,1,74.8,103.193Zm13.167,3.7a2.293,2.293,0,0,1-2.292,2.294H78.477V104.6h4.9V99.705h4.588ZM71.31,87.214a3.956,3.956,0,0,0-1.829.376,2.951,2.951,0,0,0-1.137,1.032,4.176,4.176,0,0,0-.571,1.542,11.663,11.663,0,0,0-.155,1.958v2.644a11.538,11.538,0,0,0,.155,1.952,4.207,4.207,0,0,0,.571,1.548,2.921,2.921,0,0,0,1.137,1.029,3.955,3.955,0,0,0,1.829.379q.936,0,1.881-.072a11.877,11.877,0,0,0,1.433-.167V87.456c-.481-.069-1.052-.125-1.71-.173S71.726,87.214,71.31,87.214Z"/>
    <rect id="Rectangle_16" data-name="Rectangle 16" class="cls-1" width="59" height="42" transform="translate(33 71)"/>
  </g>
</svg>
