<svg xmlns="http://www.w3.org/2000/svg" width="121.28" height="87.686" viewBox="0 0 121.28 87.686">
  <defs>
    <style>
      .cls-1 {
        fill: #1bcae6;
      }
    </style>
  </defs>
  <g id="digiMedia2" transform="translate(-10.226 -27.023)">
    <rect id="Rectangle_14" data-name="Rectangle 14" class="cls-1" width="111.116" height="6.093" transform="translate(15.303 34.016)"/>
    <g id="Group_215" data-name="Group 215">
      <path id="Path_132" data-name="Path 132" class="cls-1" d="M96.626,77.179c-.031-.043-.1-.059-.194-.059a.263.263,0,0,0-.2.059.5.5,0,0,0-.089.227L94.832,82.79h3.2l-1.306-5.384A.47.47,0,0,0,96.626,77.179Zm10.805,3.054a2.051,2.051,0,0,0-.959.2,1.494,1.494,0,0,0-.6.541,2.154,2.154,0,0,0-.291.809,5.732,5.732,0,0,0-.089,1.026V84.2a5.7,5.7,0,0,0,.089,1.028,2.172,2.172,0,0,0,.291.81,1.563,1.563,0,0,0,.6.545,2.118,2.118,0,0,0,.959.195c.328,0,.656-.009.984-.036a5.239,5.239,0,0,0,.757-.091V80.36c-.254-.038-.556-.064-.9-.09S107.647,80.233,107.431,80.233Zm11.333-18.247h-32.9a2.253,2.253,0,0,0-2.25,2.256V99.8a2.253,2.253,0,0,0,2.25,2.255h32.9a2.253,2.253,0,0,0,2.255-2.255V64.242A2.254,2.254,0,0,0,118.764,61.986Zm-27.9,15.267H88.459V73.478a1.187,1.187,0,0,1,.355-.852,1.216,1.216,0,0,1,.851-.354H93.44v2.413H90.867Zm10.979,11.269a.338.338,0,0,1-.233.08H99.691a.293.293,0,0,1-.216-.085.543.543,0,0,1-.127-.216l-.832-3.448h-4.17L93.514,88.3a.567.567,0,0,1-.127.216.3.3,0,0,1-.217.085H91.248a.35.35,0,0,1-.238-.08.28.28,0,0,1-.089-.221c0-.017,0-.027.01-.037a.186.186,0,0,0,.01-.059l2.97-11.36a2.511,2.511,0,0,1,.471-1,2.168,2.168,0,0,1,.662-.545,2.121,2.121,0,0,1,.726-.25A4.61,4.61,0,0,1,96.432,75a4.672,4.672,0,0,1,.66.053,2.116,2.116,0,0,1,.725.25,2.266,2.266,0,0,1,.662.545,2.511,2.511,0,0,1,.471,1l2.97,11.36a.09.09,0,0,0,.011.059.079.079,0,0,1,0,.037A.265.265,0,0,1,101.846,88.522Zm7.411.106a14.715,14.715,0,0,1-1.826.122,4.136,4.136,0,0,1-3.261-1.207,4.839,4.839,0,0,1-1.07-3.34v-1.4a4.874,4.874,0,0,1,1.07-3.346,4.15,4.15,0,0,1,3.261-1.2c.216,0,.476,0,.778.026s.619.053.963.1V75.178a.366.366,0,0,1,.106-.254.344.344,0,0,1,.253-.107H111.2a.373.373,0,0,1,.365.361V87.792a.444.444,0,0,1-.088.3.979.979,0,0,1-.4.189A14.461,14.461,0,0,1,109.257,88.628Zm6.918,1.942a1.187,1.187,0,0,1-.354.848,1.2,1.2,0,0,1-.847.355h-3.78V89.364h2.574V86.792h2.407Z"/>
    </g>
    <path id="Path_133" data-name="Path 133" class="cls-1" d="M124.513,27.023H17.214a6.993,6.993,0,0,0-6.988,6.993v69.25a11.443,11.443,0,0,0,11.44,11.443h98.4a11.45,11.45,0,0,0,11.44-11.443V34.016A7,7,0,0,0,124.513,27.023Zm-4.447,82.594h-98.4a6.28,6.28,0,0,1-4.066-1.509H124.127A6.273,6.273,0,0,1,120.066,109.617Zm6.353-6.351a6.4,6.4,0,0,1-.45,2.295H15.758a6.358,6.358,0,0,1-.455-2.295V45.2H126.419Zm0-63.158H15.3V34.016a1.916,1.916,0,0,1,1.911-1.906h107.3a1.917,1.917,0,0,1,1.906,1.906Zm-15.335-6.474a2.375,2.375,0,1,0,2.376,2.372A2.371,2.371,0,0,0,111.084,33.634Zm7.245,0a2.375,2.375,0,1,0,2.372,2.372A2.368,2.368,0,0,0,118.329,33.634Zm-14.5,0a2.375,2.375,0,1,0,2.382,2.372A2.371,2.371,0,0,0,103.831,33.634Zm16.3,20.158H22.882V56h97.253ZM76.967,63H22.882v2.207H76.967Zm0,9.2H22.882V74.41H76.967ZM50.859,81.408H22.882v2.213H50.859Zm2.165,9.205H22.882v2.213H53.024ZM72.875,83.69,56.814,78.422l5.272,16.05,4.2-3.583L74.209,99.8l3.99-3.992L69.28,87.882Z"/>
  </g>
</svg>
