<svg xmlns="http://www.w3.org/2000/svg" width="354.765" height="364.011" viewBox="0 0 354.765 364.011"><defs><style>.a{fill:#db2689;}</style></defs><g transform="translate(-193.95 -481.46)"><g transform="translate(193.95 481.46)"><g transform="translate(0)"><g transform="translate(90.155 136.799)"><path class="a" d="M69.124,119.186A21.573,21.573,0,1,1,90.694,97.615,21.6,21.6,0,0,1,69.124,119.186Zm0-30.554a8.986,8.986,0,1,0,8.987,8.984A8.994,8.994,0,0,0,69.124,88.632Z" transform="translate(-47.553 -76.041)"/></g><g transform="translate(208.534 136.799)"><path class="a" d="M100.765,119.186a21.573,21.573,0,1,1,21.567-21.571A21.6,21.6,0,0,1,100.765,119.186Zm0-30.554a8.986,8.986,0,1,0,8.984,8.984A9,9,0,0,0,100.765,88.632Z" transform="translate(-79.191 -76.041)"/></g><g transform="translate(140.742 153.109)"><path class="a" d="M91.351,104.234c-8.894,0-15.954-5.343-20.284-11.2l-3.79-.056A6.29,6.29,0,0,1,67.359,80.4h.086l7.143.1a6.287,6.287,0,0,1,5.384,3.192c2.245,3.962,6.626,7.959,11.378,7.959,4.625,0,8.812-3.94,10.985-7.307a6.264,6.264,0,0,1,5.283-2.885h8.785a6.292,6.292,0,1,1,0,12.583h-5.6C106.422,99.374,99.56,104.234,91.351,104.234Z" transform="translate(-61.073 -80.4)"/></g><g transform="translate(70.817 145.73)"><path class="a" d="M144.058,172.171A102.971,102.971,0,0,1,42.468,86.012a6.292,6.292,0,1,1,12.419-2.039,89.972,89.972,0,0,0,89.171,75.615c37,0,80.842-27.288,87.106-67.911.09-.7.221-1.373.363-2.077a23.383,23.383,0,0,0,.569-4.883,6.29,6.29,0,1,1,12.579,0,35.809,35.809,0,0,1-.793,7.259c-.108.539-.21,1.074-.288,1.605-3.33,21.642-16.164,41.776-36.118,56.7C188.876,164.2,165.767,172.171,144.058,172.171Z" transform="translate(-42.385 -78.428)"/></g><g transform="translate(109.75 246.182)"><path class="a" d="M170.869,117.854H59.08a6.29,6.29,0,1,1,0-12.579H170.869a6.29,6.29,0,0,1,0,12.579Z" transform="translate(-52.79 -105.275)"/></g><g transform="translate(58.834 37.634)"><path class="a" d="M45.472,166.154a6.288,6.288,0,0,1-6.29-6.286V77.788a28.283,28.283,0,0,1,28.253-28.25H269.227a28.3,28.3,0,0,1,27.718,22.749,6.291,6.291,0,1,1-12.344,2.44,15.7,15.7,0,0,0-15.374-12.609H67.435a15.692,15.692,0,0,0-15.67,15.67v82.081A6.289,6.289,0,0,1,45.472,166.154Z" transform="translate(-39.182 -49.538)"/></g><g transform="translate(305.098 58.658)"><g transform="translate(0)"><path class="a" d="M119.356,81.356a6.342,6.342,0,0,1-3.592-1.122,24.664,24.664,0,0,1-10.754-18.4,6.294,6.294,0,1,1,12.564-.756,12.167,12.167,0,0,0,5.369,8.823,6.286,6.286,0,0,1-3.588,11.457Z" transform="translate(-104.999 -55.157)"/></g></g><g transform="translate(314.913 53.128)"><path class="a" d="M121.96,88.394A23.31,23.31,0,0,1,111,85.756a6.294,6.294,0,1,1,5.841-11.15,10.878,10.878,0,0,0,5.122,1.2A13.017,13.017,0,0,0,134.9,62.734V59.972a6.29,6.29,0,1,1,12.579,0v2.761A25.615,25.615,0,0,1,121.96,88.394Z" transform="translate(-107.622 -53.679)"/></g><g transform="translate(342.186 30.637)"><g transform="translate(0)"><path class="a" d="M121.2,61.284a6.288,6.288,0,0,1-6.286-6.29V53.961a6.29,6.29,0,1,1,12.579,0v1.033A6.3,6.3,0,0,1,121.2,61.284Z" transform="translate(-114.911 -47.668)"/></g></g><g transform="translate(130.778)"><path class="a" d="M64.7,72.661a6.289,6.289,0,0,1-6.29-6.29V45.77a6.292,6.292,0,0,1,6.29-6.29H276.1a6.292,6.292,0,0,1,6.293,6.29V59.24a6.29,6.29,0,1,1-12.579,0V52.063H70.993V66.371A6.29,6.29,0,0,1,64.7,72.661Z" transform="translate(-58.41 -39.48)"/></g><g transform="translate(271.715 39.841)"><path class="a" d="M102.367,167.305a6.294,6.294,0,0,1-6.29-6.29V77.083c0-14.862,10.189-26.955,22.708-26.955,9.594,0,17.949,6.87,21.283,17.5a6.291,6.291,0,0,1-12.007,3.76c-1.624-5.19-5.354-8.673-9.276-8.673-5.485,0-10.121,6.578-10.121,14.368v83.933A6.3,6.3,0,0,1,102.367,167.305Z" transform="translate(-96.077 -50.128)"/></g><g transform="translate(74.35 123.531)"><path class="a" d="M230.951,85.078H49.619a6.292,6.292,0,0,1,0-12.583H230.951a6.292,6.292,0,0,1,0,12.583Z" transform="translate(-43.329 -72.495)"/></g><g transform="translate(94.559 156.646)"><path class="a" d="M55.027,131.3a6.295,6.295,0,0,1-4.082-11.087L94.913,82.837a6.292,6.292,0,0,1,8.149,9.59L59.1,129.806A6.285,6.285,0,0,1,55.027,131.3Z" transform="translate(-48.73 -81.345)"/></g><g transform="translate(193.866 156.644)"><path class="a" d="M124.175,131.3a6.276,6.276,0,0,1-4.15-1.564L77.412,92.368a6.289,6.289,0,0,1,8.3-9.455l42.617,37.372a6.292,6.292,0,0,1-4.149,11.019Z" transform="translate(-75.271 -81.345)"/></g><g transform="translate(110.855 170.45)"><path class="a" d="M59.374,132.45A6.289,6.289,0,0,1,54.6,122.06L84.484,87.221a6.293,6.293,0,0,1,9.549,8.2L64.152,130.258A6.284,6.284,0,0,1,59.374,132.45Z" transform="translate(-53.085 -85.035)"/></g><g transform="translate(190.547 170.45)"><path class="a" d="M110.562,131.339a6.269,6.269,0,0,1-4.715-2.11L75.971,95.494a6.287,6.287,0,1,1,9.414-8.336l29.881,33.716a6.289,6.289,0,0,1-4.7,10.465Z" transform="translate(-74.384 -85.035)"/></g><g transform="translate(133.36 175.981)"><path class="a" d="M65.39,139.316a6.3,6.3,0,0,1-5.8-8.711L76.342,90.382a6.3,6.3,0,0,1,11.622,4.845L71.2,135.443A6.3,6.3,0,0,1,65.39,139.316Z" transform="translate(-59.1 -86.513)"/></g><g transform="translate(180.77 174.871)"><path class="a" d="M99.463,140.129a6.307,6.307,0,0,1-5.594-3.4L72.479,95.413a6.292,6.292,0,1,1,11.169-5.8l21.4,41.319a6.294,6.294,0,0,1-2.687,8.482A6.213,6.213,0,0,1,99.463,140.129Z" transform="translate(-71.771 -86.216)"/></g><g transform="translate(154.759 178.2)"><path class="a" d="M71.119,142.482a7.046,7.046,0,0,1-.834-.056,6.284,6.284,0,0,1-5.41-7.061l5.691-42.8A6.292,6.292,0,0,1,83.04,94.223l-5.691,42.8A6.3,6.3,0,0,1,71.119,142.482Z" transform="translate(-64.819 -87.106)"/></g><g transform="translate(170.991 178.198)"><path class="a" d="M84.111,142.484a6.277,6.277,0,0,1-6.151-5.036l-8.677-42.8a6.29,6.29,0,1,1,12.329-2.5l8.673,42.8a6.3,6.3,0,0,1-4.913,7.416A5.956,5.956,0,0,1,84.111,142.484Z" transform="translate(-69.157 -87.105)"/></g><g transform="translate(274.66 116.77)"><g transform="translate(0 7.188)"><path class="a" d="M119.763,85.2h-16.6a6.293,6.293,0,1,1,0-12.587h16.6a6.293,6.293,0,1,1,0,12.587Z" transform="translate(-96.864 -72.609)"/></g><g transform="translate(19.921)"><path class="a" d="M108.489,116.6a6.3,6.3,0,0,1-6.3-6.293V76.97a6.3,6.3,0,0,1,12.591,0v33.338A6.3,6.3,0,0,1,108.489,116.6Z" transform="translate(-102.188 -70.688)"/></g></g><g transform="translate(36.148 116.77)"><g transform="translate(3.315 7.188)"><path class="a" d="M56.9,85.2H40.295a6.293,6.293,0,0,1,0-12.587H56.9a6.293,6.293,0,1,1,0,12.587Z" transform="translate(-34.005 -72.609)"/></g><path class="a" d="M39.409,112.048a6.29,6.29,0,0,1-6.29-6.293V76.97a6.29,6.29,0,0,1,12.579,0v28.785A6.288,6.288,0,0,1,39.409,112.048Z" transform="translate(-33.119 -70.688)"/></g><g transform="translate(127.115 150.156)"><path class="a" d="M137.458,92.2H63.724a6.293,6.293,0,0,1,0-12.587h73.733a6.293,6.293,0,0,1,0,12.587Z" transform="translate(-57.431 -79.611)"/></g><g transform="translate(32.683 145.547)"><path class="a" d="M65.209,211.5H54.31c-12.194,0-22.117-9.414-22.117-21.009V99.4c0-11.592,9.923-21.017,22.117-21.017H74.459a6.292,6.292,0,0,1,0,12.583H54.31c-5.257,0-9.53,3.779-9.53,8.434V190.49c0,4.647,4.273,8.426,9.53,8.426h10.9a6.292,6.292,0,0,1,0,12.583Z" transform="translate(-32.193 -78.379)"/></g><g transform="translate(75.256 266.084)"><path class="a" d="M51.182,123.177H49.861a6.292,6.292,0,0,1,0-12.583h1.321a6.292,6.292,0,1,1,0,12.583Z" transform="translate(-43.571 -110.594)"/></g><g transform="translate(91.102 266.084)"><path class="a" d="M55.413,123.177H54.1a6.292,6.292,0,0,1,0-12.583h1.317a6.292,6.292,0,1,1,0,12.583Z" transform="translate(-47.806 -110.594)"/></g><g transform="translate(110.91 266.084)"><path class="a" d="M175.583,123.177H59.386a6.292,6.292,0,0,1,0-12.583h116.2a6.292,6.292,0,0,1,0,12.583Z" transform="translate(-53.1 -110.594)"/></g><g transform="translate(242.691 266.084)"><path class="a" d="M95.122,123.177h-.5a6.292,6.292,0,1,1,0-12.583h.5a6.292,6.292,0,0,1,0,12.583Z" transform="translate(-88.32 -110.594)"/></g><g transform="translate(256.139 235.724)"><g transform="translate(0)"><path class="a" d="M121.795,145.423H98.211a6.292,6.292,0,1,1,0-12.583h23.584c5.264,0,9.53-3.779,9.53-8.426V108.766a6.292,6.292,0,0,1,12.583,0v15.648C143.908,136.009,133.993,145.423,121.795,145.423Z" transform="translate(-91.914 -102.48)"/></g></g><g transform="translate(295.55 193.215)"><g transform="translate(0)"><path class="a" d="M108.744,104.207a6.3,6.3,0,0,1-6.3-6.282v-.513a6.292,6.292,0,1,1,12.583,0v.513A6.282,6.282,0,0,1,108.744,104.207Z" transform="translate(-102.447 -91.119)"/></g></g><g transform="translate(295.636 212.874)"><g transform="translate(0)"><path class="a" d="M108.748,109.469a6.283,6.283,0,0,1-6.278-6.293v-.5a6.29,6.29,0,1,1,12.579,0v.5A6.292,6.292,0,0,1,108.748,109.469Z" transform="translate(-102.47 -96.373)"/></g></g><g transform="translate(261.037 145.547)"><g transform="translate(0)"><path class="a" d="M134.033,121.722a6.3,6.3,0,0,1-6.3-6.293V99.4c0-4.655-4.266-8.434-9.53-8.434h-18.7a6.292,6.292,0,0,1,0-12.583h18.7c12.2,0,22.113,9.425,22.113,21.017v16.033A6.284,6.284,0,0,1,134.033,121.722Z" transform="translate(-93.223 -78.379)"/></g></g><g transform="translate(313.364 138.902)"><g transform="translate(0)"><path class="a" d="M113.5,109.679a6.292,6.292,0,0,1-6.29-6.29V82.9a6.292,6.292,0,1,1,12.583,0V103.39A6.29,6.29,0,0,1,113.5,109.679Z" transform="translate(-107.208 -76.603)"/></g></g><g transform="translate(317.794 105.698)"><path class="a" d="M123.961,123.764h-9.283a6.292,6.292,0,0,1,0-12.583h2.993V74.026a6.293,6.293,0,1,1,12.587,0v43.444A6.3,6.3,0,0,1,123.961,123.764Z" transform="translate(-108.392 -67.729)"/></g><g transform="translate(16.351 126.172)"><path class="a" d="M34.118,128.435a6.3,6.3,0,0,1-6.29-6.293V79.491a6.292,6.292,0,0,1,12.583,0v42.651A6.3,6.3,0,0,1,34.118,128.435Z" transform="translate(-27.828 -73.201)"/></g><g transform="translate(0 140.903)"><path class="a" d="M29.751,103.55a6.281,6.281,0,0,1-6.293-6.282V83.431a6.292,6.292,0,1,1,12.583,0V97.268A6.283,6.283,0,0,1,29.751,103.55Z" transform="translate(-23.458 -77.138)"/></g><g transform="translate(125.798 333.565)"><path class="a" d="M139.743,141.22H63.369a6.3,6.3,0,0,1,0-12.591h76.375a6.3,6.3,0,0,1,0,12.591Z" transform="translate(-57.079 -128.629)"/></g><g transform="translate(32.902 256.799)"><path class="a" d="M261.311,215.325h-.21L75.257,213.906c-11.27-.082-22.083-8.217-25.159-18.929L33.324,136.615c-1.227-4.28-1.3-19.831-.73-23.243a6.292,6.292,0,1,1,12.411,2.073c-.329,2.267-.187,15.21.43,17.747l16.755,58.314c1.519,5.287,7.547,9.781,13.159,9.814L261.2,202.738h.112c6.963,0,14.143-4.924,15.719-10.791l17.286-64.589c.12-1.317.2-5.71.254-8.127.06-3.345.09-4.269.146-4.9a6.3,6.3,0,0,1,12.531,1.257c-.034.475-.071,2.361-.1,3.9-.153,7.813-.251,9.523-.591,10.8L289.182,195.2C286.144,206.509,273.935,215.325,261.311,215.325Z" transform="translate(-32.251 -108.112)"/></g><g transform="translate(273.725 75.26)"><path class="a" d="M151.991,72.177H102.9a6.292,6.292,0,0,1,0-12.583h49.091a6.292,6.292,0,1,1,0,12.583Z" transform="translate(-96.614 -59.594)"/></g><g transform="translate(19.67 134.752)"><path class="a" d="M51.483,88.077H35a6.292,6.292,0,0,1,0-12.583H51.483a6.292,6.292,0,0,1,0,12.583Z" transform="translate(-28.715 -75.494)"/></g><g transform="translate(20.777 160.483)"><path class="a" d="M44.861,94.954H35.3a6.292,6.292,0,1,1,0-12.583h9.556a6.292,6.292,0,0,1,0,12.583Z" transform="translate(-29.011 -82.371)"/></g><g transform="translate(91.918 68.106)"><path class="a" d="M201.312,70.265H54.317a6.292,6.292,0,1,1,0-12.583H201.312a6.292,6.292,0,0,1,0,12.583Z" transform="translate(-48.024 -57.682)"/></g><g transform="translate(91.918 92.288)"><path class="a" d="M201.312,76.728H54.317a6.292,6.292,0,1,1,0-12.583H201.312a6.292,6.292,0,0,1,0,12.583Z" transform="translate(-48.024 -64.145)"/></g></g></g><g transform="translate(258.385 765.894)"><circle class="a" cx="6.5" cy="6.5" r="6.5" transform="translate(10.615 31.106)"/><circle class="a" cx="6.5" cy="6.5" r="6.5" transform="translate(26.615 31.106)"/><circle class="a" cx="6.5" cy="6.5" r="6.5" transform="translate(42.615 31.106)"/><circle class="a" cx="6.5" cy="6.5" r="6.5" transform="translate(58.615 31.106)"/><circle class="a" cx="6.5" cy="6.5" r="6.5" transform="translate(74.615 31.106)"/><circle class="a" cx="6.5" cy="6.5" r="6.5" transform="translate(90.615 31.106)"/><ellipse class="a" cx="7" cy="6.5" rx="7" ry="6.5" transform="translate(106.615 31.106)"/><circle class="a" cx="6.5" cy="6.5" r="6.5" transform="translate(123.615 31.106)"/><circle class="a" cx="6.5" cy="6.5" r="6.5" transform="translate(139.615 31.106)"/><circle class="a" cx="6.5" cy="6.5" r="6.5" transform="translate(155.615 31.106)"/><circle class="a" cx="6.5" cy="6.5" r="6.5" transform="translate(171.615 31.106)"/><circle class="a" cx="6.5" cy="6.5" r="6.5" transform="translate(187.615 31.106)"/><circle class="a" cx="6.5" cy="6.5" r="6.5" transform="translate(-0.385 16.106)"/><ellipse class="a" cx="7" cy="6.5" rx="7" ry="6.5" transform="translate(15.615 16.106)"/><circle class="a" cx="6.5" cy="6.5" r="6.5" transform="translate(32.615 16.106)"/><circle class="a" cx="6.5" cy="6.5" r="6.5" transform="translate(48.615 16.106)"/><circle class="a" cx="6.5" cy="6.5" r="6.5" transform="translate(64.615 16.106)"/><circle class="a" cx="6.5" cy="6.5" r="6.5" transform="translate(80.615 16.106)"/><circle class="a" cx="6.5" cy="6.5" r="6.5" transform="translate(96.615 16.106)"/><circle class="a" cx="6.5" cy="6.5" r="6.5" transform="translate(112.615 16.106)"/><circle class="a" cx="6.5" cy="6.5" r="6.5" transform="translate(128.615 16.106)"/><circle class="a" cx="6.5" cy="6.5" r="6.5" transform="translate(144.615 16.106)"/><circle class="a" cx="6.5" cy="6.5" r="6.5" transform="translate(160.615 16.106)"/><circle class="a" cx="6.5" cy="6.5" r="6.5" transform="translate(177.615 16.106)"/><circle class="a" cx="6.5" cy="6.5" r="6.5" transform="translate(193.615 15.106)"/><circle class="a" cx="6.5" cy="6.5" r="6.5" transform="translate(10.615 0.106)"/><circle class="a" cx="6.5" cy="6.5" r="6.5" transform="translate(26.615 0.106)"/><circle class="a" cx="6.5" cy="6.5" r="6.5" transform="translate(42.615 0.106)"/><circle class="a" cx="6.5" cy="6.5" r="6.5" transform="translate(58.615 0.106)"/><circle class="a" cx="6.5" cy="6.5" r="6.5" transform="translate(74.615 0.106)"/><circle class="a" cx="6.5" cy="6.5" r="6.5" transform="translate(90.615 0.106)"/><ellipse class="a" cx="7" cy="6.5" rx="7" ry="6.5" transform="translate(106.615 0.106)"/><circle class="a" cx="6.5" cy="6.5" r="6.5" transform="translate(123.615 0.106)"/><circle class="a" cx="6.5" cy="6.5" r="6.5" transform="translate(139.615 0.106)"/><circle class="a" cx="6.5" cy="6.5" r="6.5" transform="translate(155.615 0.106)"/><circle class="a" cx="6.5" cy="6.5" r="6.5" transform="translate(171.615 0.106)"/><circle class="a" cx="6.5" cy="6.5" r="6.5" transform="translate(187.615 0.106)"/><circle class="a" cx="6.5" cy="6.5" r="6.5" transform="translate(27.615 49.106)"/><circle class="a" cx="6.5" cy="6.5" r="6.5" transform="translate(43.615 49.106)"/><circle class="a" cx="6.5" cy="6.5" r="6.5" transform="translate(153.615 49.106)"/><circle class="a" cx="6.5" cy="6.5" r="6.5" transform="translate(169.615 49.106)"/></g></g></svg>