<svg xmlns="http://www.w3.org/2000/svg" width="115.256" height="124.252" viewBox="0 0 115.256 124.252"><defs><style>.a{fill:#1bcae6;}</style></defs><g transform="translate(-13.238 -8.74)"><path class="a" d="M77.748,87.655V113.9H19.582V23.739H77.748v3.918h6.345v-9.4A9.522,9.522,0,0,0,74.574,8.74H22.756a9.518,9.518,0,0,0-9.518,9.519V123.474a9.518,9.518,0,0,0,9.518,9.518H74.574a9.522,9.522,0,0,0,9.519-9.518V87.655Zm-58.166-69.4a3.182,3.182,0,0,1,3.174-3.171H74.574a3.182,3.182,0,0,1,3.174,3.171v2.308H19.582ZM77.748,123.474a3.181,3.181,0,0,1-3.174,3.17H22.756a3.181,3.181,0,0,1-3.174-3.17v-6.4H77.748Z"/><path class="a" d="M54.951,16.532H42.38a1.588,1.588,0,1,0,0,3.176H54.951a1.588,1.588,0,0,0,0-3.176Z"/><path class="a" d="M48.667,125.822a3.947,3.947,0,1,0-3.948-3.949A3.947,3.947,0,0,0,48.667,125.822Z"/><path class="a" d="M98.739,54.709a4.072,4.072,0,0,0-1.9.4,3.041,3.041,0,0,0-1.189,1.075,4.333,4.333,0,0,0-.595,1.612,12.24,12.24,0,0,0-.162,2.041V62.59a12.219,12.219,0,0,0,.162,2.04,4.35,4.35,0,0,0,.595,1.614,3.028,3.028,0,0,0,1.189,1.073,4.073,4.073,0,0,0,1.9.395c.653,0,1.305-.023,1.965-.069a11.557,11.557,0,0,0,1.495-.18V54.96c-.5-.072-1.1-.128-1.78-.179S99.178,54.709,98.739,54.709ZM77.276,48.64a.687.687,0,0,0-.8,0,1.126,1.126,0,0,0-.178.451l-2.59,10.7h6.337l-2.594-10.7A1.139,1.139,0,0,0,77.276,48.64Zm44.188-21.753H55.7a7.033,7.033,0,0,0-7.035,7.033v71.058l10.5-15.334h62.3a7.03,7.03,0,0,0,7.03-7.031V33.92A7.031,7.031,0,0,0,121.464,26.887Zm-55.64,21.9H61.032V41.283a2.4,2.4,0,0,1,2.4-2.4h7.508v4.789H65.824Zm21.823,22.4a.675.675,0,0,1-.467.159H83.362a.589.589,0,0,1-.432-.177.992.992,0,0,1-.254-.433L81.02,63.894H72.737l-1.656,6.844a.963.963,0,0,1-.253.433.587.587,0,0,1-.434.177H66.578a.678.678,0,0,1-.469-.159.583.583,0,0,1-.179-.451.158.158,0,0,1,.017-.072.231.231,0,0,0,.017-.107l5.908-22.585a4.956,4.956,0,0,1,.936-1.984,4.658,4.658,0,0,1,1.315-1.1,4.385,4.385,0,0,1,1.443-.487,8.047,8.047,0,0,1,2.628,0,4.349,4.349,0,0,1,1.439.487,4.607,4.607,0,0,1,1.316,1.1,4.969,4.969,0,0,1,.935,1.984L87.8,70.559a.229.229,0,0,0,.018.107.227.227,0,0,1,.012.072A.566.566,0,0,1,87.647,71.189Zm14.731.2a27.808,27.808,0,0,1-3.639.251c-2.9,0-5.067-.8-6.478-2.4A9.662,9.662,0,0,1,90.135,62.6V59.827a9.659,9.659,0,0,1,2.126-6.646c1.411-1.6,3.576-2.4,6.478-2.4.439,0,.95.019,1.553.056s1.237.1,1.907.2V44.659a.687.687,0,0,1,.219-.5.676.676,0,0,1,.5-.216h3.313a.7.7,0,0,1,.508.216.706.706,0,0,1,.214.5v25.07a.852.852,0,0,1-.184.6,1.787,1.787,0,0,1-.792.378A30.152,30.152,0,0,1,102.378,71.388Zm13.747,3.862a2.4,2.4,0,0,1-2.4,2.394h-7.5V72.853h5.107V67.745h4.792Z"/></g></svg>