<svg xmlns="http://www.w3.org/2000/svg" width="31.668" height="45.525" viewBox="0 0 31.668 45.525"><g transform="translate(-433.672 -1474.056)"><path d="M449.34,1506.21a.13.13,0,0,1-.038.1.157.157,0,0,1-.1.035h-.837a.126.126,0,0,1-.1-.039.229.229,0,0,1-.055-.094l-.362-1.5h-1.818l-.364,1.5a.229.229,0,0,1-.055.094.129.129,0,0,1-.1.039h-.837a.146.146,0,0,1-.1-.035.125.125,0,0,1-.041-.1.031.031,0,0,1,.005-.018.043.043,0,0,0,0-.023l1.3-4.953a1.083,1.083,0,0,1,.2-.434,1.042,1.042,0,0,1,.289-.24.873.873,0,0,1,.314-.107,1.783,1.783,0,0,1,.29-.024,1.718,1.718,0,0,1,.288.024.856.856,0,0,1,.317.107.977.977,0,0,1,.286.24,1.071,1.071,0,0,1,.207.434l1.3,4.953c0,.012,0,.018.005.023A.055.055,0,0,1,449.34,1506.21Zm-2.275-4.75a.231.231,0,0,0-.039-.1.118.118,0,0,0-.087-.025.115.115,0,0,0-.087.025.312.312,0,0,0-.041.1l-.566,2.35h1.391Z" fill="#59595c"/><path d="M453.536,1505.989a.19.19,0,0,1-.04.129.4.4,0,0,1-.173.084,6.623,6.623,0,0,1-.791.149,6.07,6.07,0,0,1-.8.054,1.806,1.806,0,0,1-1.421-.523,2.123,2.123,0,0,1-.466-1.459v-.608a2.118,2.118,0,0,1,.466-1.457,1.8,1.8,0,0,1,1.421-.525c.1,0,.209,0,.34.012a4.066,4.066,0,0,1,.418.043v-1.4a.165.165,0,0,1,.049-.111.149.149,0,0,1,.109-.047h.73a.161.161,0,0,1,.156.158Zm-1.044-3.242c-.109-.014-.24-.027-.388-.037s-.274-.018-.37-.018a.886.886,0,0,0-.417.088.635.635,0,0,0-.262.237.979.979,0,0,0-.13.351,2.615,2.615,0,0,0-.035.449v.606a2.592,2.592,0,0,0,.035.447.987.987,0,0,0,.13.354.663.663,0,0,0,.262.234.874.874,0,0,0,.417.088c.142,0,.287-.006.432-.016a2.638,2.638,0,0,0,.326-.039Z" fill="#59595c"/><path d="M443.464,1501.394v-1.645a.53.53,0,0,1,.154-.371h0a.523.523,0,0,1,.371-.154h1.646v1.05h-1.119v1.12Z" fill="#59595c"/><path d="M455.548,1505.554v1.644a.529.529,0,0,1-.155.371h0a.531.531,0,0,1-.371.157h-1.646v-1.053H454.5v-1.119Z" fill="#59595c"/><path d="M446.273,1517.132a.47.47,0,0,1-.465.484h-.474a.291.291,0,0,1-.286-.281l-.032-2.176h-1.968l.035,2.211a2.25,2.25,0,0,0,2.251,2.211h.474a2.431,2.431,0,0,0,2.432-2.387l.1-2.035h-1.97Zm7.691.207a.28.28,0,0,1-.283.275h-.473a.464.464,0,0,1-.467-.455l-.094-2h-1.969l.1,2.065a2.424,2.424,0,0,0,2.434,2.357h.473a2.254,2.254,0,0,0,2.252-2.207l.033-2.215H454Zm10.62-21.17-7.468-6.641a.987.987,0,0,0-.549-.242s-.189-.019-.495-.053v-.109a.985.985,0,0,0-.984-.982h-1.157a.972.972,0,0,0-.96.773l-.29-.029q0-.108,0-.225a8.672,8.672,0,0,1,.076-1.08,5.628,5.628,0,0,0,1.323-1.066,8.207,8.207,0,0,0,1.846-5.68c0-.162-.012-.326-.024-.486h1.758a.984.984,0,0,0,0-1.967h-4.51a.986.986,0,0,1,.983-.987h1.2a6.764,6.764,0,0,0-12.379,1.721.975.975,0,0,0,.175.85l.022.023a6.591,6.591,0,0,0-.06.846,8.212,8.212,0,0,0,1.848,5.68,5.494,5.494,0,0,0,1.324,1.066,8.913,8.913,0,0,1,.073,1.08q0,.117,0,.225l-.189.019a.982.982,0,0,0-.958-.765h-1.157a.988.988,0,0,0-.985.984v.1c-.367.037-.6.062-.6.062a.99.99,0,0,0-.548.242l-7.468,6.641a2.248,2.248,0,0,0-.212,3.152l.306.358a2.438,2.438,0,0,0,3.393.3l2.216-1.83-.347,15.627a.987.987,0,0,0,.985,1.006h17.577a.984.984,0,0,0,.981-1.006l-.342-15.541,2.108,1.741a2.435,2.435,0,0,0,3.392-.293l.312-.364a2.253,2.253,0,0,0-.215-3.148Zm-24.4-.619-3.522,2.906a.475.475,0,0,1-.295.1.457.457,0,0,1-.351-.161l-.311-.363a.276.276,0,0,1-.07-.184.269.269,0,0,1,.095-.21l4.5-4Zm14.408-4.494c.608.062,1.134.117,1.446.152l.751.668h-2.639A.987.987,0,0,1,454.6,1491.056Zm-9.538-10.221a4.55,4.55,0,0,1,.039-.486h8.83a4.284,4.284,0,0,1,.029.486,6.286,6.286,0,0,1-1.337,4.355,4.449,4.449,0,0,1-6.225,0A6.272,6.272,0,0,1,445.059,1480.835Zm-.3,10.185c.412-.04.85-.085,1.284-.128h.126v-.014c.378-.037.749-.072,1.089-.1a.981.981,0,0,0,.834-.646c.01-.029.019-.061.028-.09a4.607,4.607,0,0,0,.183-1.377c0-.113-.006-.226-.01-.338a7.1,7.1,0,0,0,1.212.106h.025a6.793,6.793,0,0,0,1.185-.106c-.006.11-.009.225-.009.338a4.414,4.414,0,0,0,.184,1.379.566.566,0,0,0,.027.088.981.981,0,0,0,.835.646c.371.036.777.073,1.191.114v.988h-8.689A.981.981,0,0,1,444.762,1491.02Zm-1.79.188c.02,0,.05,0,.072-.008v.676h-.822Zm-1.2,21.606.417-18.971h14.728l.421,18.971Zm21.528-14.776-.309.361a.47.47,0,0,1-.353.161.463.463,0,0,1-.3-.1l-3.42-2.82-.04-1.9,4.39,3.9a.27.27,0,0,1,.1.21A.28.28,0,0,1,463.3,1498.038Z" fill="#59595c"/></g></svg>