<svg xmlns="http://www.w3.org/2000/svg" width="104.726" height="101.199" viewBox="0 0 104.726 101.199"><g transform="translate(-21.008 -32.519)"><path d="M94.306,78.791h0a23.5,23.5,0,0,1-3.164-.216,23.115,23.115,0,1,1,3.165.216Zm-.054-41.974a18.837,18.837,0,0,0-2.527,37.5,19.086,19.086,0,0,0,2.58.176,18.836,18.836,0,0,0,2.529-37.5A19.138,19.138,0,0,0,94.252,36.817Z" fill="#1bcae6"/><path d="M34.35,133.718a2.153,2.153,0,0,1-1.431-.545l-11.192-9.98a2.15,2.15,0,0,1-.222-2.979L70.892,60.823a2.149,2.149,0,1,1,3.3,2.748l-48.06,57.795,8.13,7.248c7.878-7.875,45.686-45.673,52.606-52.606a2.149,2.149,0,0,1,3.043,3.035c-7.695,7.712-53.583,53.582-54.046,54.046A2.145,2.145,0,0,1,34.35,133.718Z" fill="#1bcae6"/><path d="M75.6,91.594a2.147,2.147,0,0,1-1.467-.58L59.946,77.729a2.149,2.149,0,1,1,2.937-3.137L77.072,87.876A2.149,2.149,0,0,1,75.6,91.594Z" fill="#1bcae6"/><path d="M68.96,98.813a2.143,2.143,0,0,1-1.469-.581L53.3,84.948A2.149,2.149,0,0,1,56.24,81.81L70.43,95.1a2.15,2.15,0,0,1-1.47,3.718Z" fill="#1bcae6"/><path d="M107.63,73.991a2.141,2.141,0,0,1-1.473-.584L76.48,45.467a2.149,2.149,0,0,1,2.946-3.13L109.1,70.277a2.149,2.149,0,0,1-1.472,3.714Z" fill="#1bcae6"/><path d="M104.975,82.321a2.147,2.147,0,0,1,1.547-2.616h0a2.149,2.149,0,0,1,2.616,1.548h0a2.148,2.148,0,0,1-1.546,2.615h0a2.117,2.117,0,0,1-.534.067h0A2.148,2.148,0,0,1,104.975,82.321Zm5.716-1.7a2.15,2.15,0,0,1,.75-2.946h0a2.151,2.151,0,0,1,2.947.755h0a2.152,2.152,0,0,1-.755,2.946h0a2.166,2.166,0,0,1-1.091.3h0A2.145,2.145,0,0,1,110.691,80.618Zm5-3.249a2.146,2.146,0,0,1-.1-3.035h0a2.144,2.144,0,0,1,3.036-.106h0a2.15,2.15,0,0,1,.106,3.039h0a2.145,2.145,0,0,1-1.572.68h0A2.148,2.148,0,0,1,115.687,77.369Z" fill="#1bcae6"/><path d="M121.071,72.147a2.15,2.15,0,0,1-1.94-3.072,25.969,25.969,0,0,0-.823-23.035,2.149,2.149,0,1,1,3.807-1.993,30.285,30.285,0,0,1,.9,26.872A2.15,2.15,0,0,1,121.071,72.147Z" fill="#1bcae6"/><path d="M116.249,40.6a2.158,2.158,0,1,1,1.517-.632A2.171,2.171,0,0,1,116.249,40.6Z" fill="#1bcae6"/><path d="M23.339,112.02a2.151,2.151,0,0,1-1.709-3.452L39.485,85.1a2.149,2.149,0,1,1,3.421,2.6L25.052,111.171A2.144,2.144,0,0,1,23.339,112.02Z" fill="#1bcae6"/><path d="M45.341,82.673a2.116,2.116,0,0,1-.764-.142,2.146,2.146,0,0,1-1.244-2.771,3.531,3.531,0,0,1,2.283-2.18,2.149,2.149,0,0,1,1.621,3.957A2.149,2.149,0,0,1,45.341,82.673Z" fill="#1bcae6"/></g></svg>