<svg xmlns="http://www.w3.org/2000/svg" width="102.827" height="102.827" viewBox="0 0 102.827 102.827"><defs><style>.a{fill:#59595c;}</style></defs><path class="a" d="M211.547,128a19.314,19.314,0,0,1,19.28,19.28v64.267a19.314,19.314,0,0,1-19.28,19.28H198.962V191h13.322l2.008-15.531h-15.33v-9.908q0-3.749,1.573-5.623t6.125-1.874l8.167-.067V144.134a89.74,89.74,0,0,0-11.916-.6q-9.1,0-14.561,5.356t-5.456,15.13v11.448H169.506V191h13.389v39.832H147.28A19.314,19.314,0,0,1,128,211.547V147.28A19.314,19.314,0,0,1,147.28,128Z" transform="translate(-128 -128)"/></svg>