<svg xmlns="http://www.w3.org/2000/svg" width="52.446" height="38.199" viewBox="0 0 52.446 38.199"><path d="M124.992,1490.546a.447.447,0,1,0-.721.529l.1.137a.447.447,0,0,0,.361.182.44.44,0,0,0,.265-.088.448.448,0,0,0,.1-.625Zm47.363-1.609c-.045-.034-6.951-7.754-13.683-10.971l-.029-.01a.753.753,0,0,0-.1-.035c-.025-.008-.052-.016-.078-.022s-.024-.007-.035-.009l-3.932-.633-1.378-.527a.892.892,0,0,0-1.07.345.673.673,0,0,1-.056.076,6.972,6.972,0,0,1-5.633,2.508,7.4,7.4,0,0,1-4.383-1.328,6.421,6.421,0,0,1-1.016-.9c-.109-.121-.186-.219-.234-.282s-.054-.076-.055-.076a.9.9,0,0,0-1.071-.345l-1.376.527-3.933.633c-.012,0-.023.007-.034.009-.028.006-.055.014-.083.022s-.063.021-.093.033c-.01.006-.021.006-.031.012-6.731,3.217-13.638,10.937-13.683,10.971a.891.891,0,0,0-.055,1.13l6.23,8.416a.892.892,0,0,0,.722.362.882.882,0,0,0,.481-.141l4.933-3.162v18.43a.9.9,0,0,0,.9.9h25.571a.9.9,0,0,0,.9-.9v-18.43l4.933,3.162a.9.9,0,0,0,1.2-.221l6.23-8.416A.891.891,0,0,0,172.355,1488.937Zm-39.579,4.419-3.9,2.5-3.132-4.273a.447.447,0,1,0-.721.529l3.1,4.227-.638.41L122.2,1489.6c.153-.162.345-.364.563-.586l.8,1.093a.447.447,0,0,0,.361.182.441.441,0,0,0,.264-.086.448.448,0,0,0,.1-.625l-.887-1.211a51.487,51.487,0,0,1,10.272-8.187c.058.8.113,1.924.113,3.3A48.168,48.168,0,0,1,132.776,1493.356Zm6.86-14.722a9.448,9.448,0,0,0,13.454,0l.293.113c-.81,1.117-2.757,3.025-7.02,3.035a8.869,8.869,0,0,1-6.015-1.943,6.321,6.321,0,0,1-1-1.092Zm18.618,32.687H139.531a.448.448,0,0,0,0,.9h18.723v.859H134.473v-.859h1.135a.448.448,0,0,0,0-.9h-1.135V1494a49.67,49.67,0,0,0,1.1-10.524c0-1.751-.088-3.128-.158-3.953l3.038-.49c.826,1.254,3.056,3.649,7.911,3.643h.024c4.839,0,7.062-2.391,7.887-3.643l3.04.49c-.072.827-.159,2.2-.159,3.953a49.592,49.592,0,0,0,1.1,10.524Zm6.985-14.576-.639-.41,3.1-4.229a.444.444,0,0,0-.1-.623.448.448,0,0,0-.626.1l-3.132,4.273-3.9-2.5a48.15,48.15,0,0,1-1.006-9.878c0-1.38.057-2.507.115-3.3a44.182,44.182,0,0,1,7.756,5.793c.98.888,1.833,1.717,2.515,2.4l-.887,1.209a.448.448,0,0,0,.723.529l.8-1.093c.217.224.409.424.562.586Zm2.495-6.2-.1.133a.448.448,0,0,0,.1.627.44.44,0,0,0,.263.086.45.45,0,0,0,.362-.184l.1-.133a.448.448,0,1,0-.722-.529Zm-30.311,20.775H137a.448.448,0,1,0,0,.9h.421a.448.448,0,1,0,0-.9Z" transform="translate(-120.14 -1476.669)" fill="#59595c"/></svg>