<svg xmlns="http://www.w3.org/2000/svg" width="460.8" height="136.8" viewBox="0 0 460.8 136.8"><g transform="translate(-191.045 -202.799)"><rect width="460.8" height="136.8" transform="translate(191.045 202.799)" fill="#d21113"/><path d="M598.5,298.617H592.01l-1.963,3.771h-3.461l9.255-17.066h3.743l2.657,17.066h-3.194l-.546-3.771ZM375.88,289.261h0a5.387,5.387,0,1,1-5.163,5.382,5.276,5.276,0,0,1,5.163-5.382Zm126.093,0h0a5.387,5.387,0,1,1-5.163,5.382,5.276,5.276,0,0,1,5.163-5.382ZM353.422,302.388H350.06l1.33-6.647-4.513-10.419h3.587l2.031,4.82q.728,1.734.973,2.5.411-.757.96-1.606l1.552-2.26,2.314-3.457H362.2L354.7,296.066l-1.273,6.322Zm-25.452,0h0l3.427-17.066h4.41q1.846,0,2.36.059a6.514,6.514,0,0,1,1.814.429,4.982,4.982,0,0,1,1.449.914,5.664,5.664,0,0,1,1.128,1.415,7.123,7.123,0,0,1,.732,1.9,10.161,10.161,0,0,1,.259,2.357,11.352,11.352,0,0,1-1.01,4.9A9.606,9.606,0,0,1,340,300.687a7.557,7.557,0,0,1-3.026,1.447,14.857,14.857,0,0,1-3.229.254Zm3.919-2.746H333.6a10.772,10.772,0,0,0,2.688-.238,3.746,3.746,0,0,0,1.525-.894A7.542,7.542,0,0,0,339.482,296a9.3,9.3,0,0,0,.682-3.7,5.259,5.259,0,0,0-.564-2.729,2.777,2.777,0,0,0-1.391-1.217,6.921,6.921,0,0,0-2.067-.21h-1.951l-2.3,11.5Zm-35.9,2.746h0l3.426-17.066h3.363l-2.848,14.213h8.329l-.568,2.853Zm-17.4,0h3.385l1.048-5.225,3.183-2.9,4.044,8.126h3.808l-5.393-10.371,7.349-6.7H291.5l-7.571,7.251,1.453-7.251h-3.374l-3.419,17.066Zm-17.268,0h0l3.431-17.066h5.591a19.006,19.006,0,0,1,2.547.115,5.29,5.29,0,0,1,2.047.7,3.461,3.461,0,0,1,1.273,1.4,4.258,4.258,0,0,1,.434,1.931,4.1,4.1,0,0,1-.758,2.464,4.645,4.645,0,0,1-2.348,1.577,3.658,3.658,0,0,1,1.971,1.283,3.363,3.363,0,0,1,.708,2.091,5.542,5.542,0,0,1-.834,2.916,4.769,4.769,0,0,1-2.314,1.987,10.913,10.913,0,0,1-4.029.6Zm3.922-2.746h3.248a8.839,8.839,0,0,0,2.741-.274,2.453,2.453,0,0,0,1.536-2.229,1.818,1.818,0,0,0-.6-1.4,2.933,2.933,0,0,0-2.008-.552h-4.022l-.892,4.458Zm1.483-7.43h2.569a8.553,8.553,0,0,0,2.489-.255,2.092,2.092,0,0,0,1.14-.838,2.218,2.218,0,0,0,.381-1.244,1.585,1.585,0,0,0-.358-1.073,1.782,1.782,0,0,0-1.018-.56,13.678,13.678,0,0,0-1.772-.067H267.54l-.816,4.037Zm-22.875,3.48h0a12.707,12.707,0,0,1,.438-3.186,11.65,11.65,0,0,1,1.735-3.9,8.523,8.523,0,0,1,2.943-2.611,8.32,8.32,0,0,1,4.043-.961A6.457,6.457,0,0,1,257.915,287a7.242,7.242,0,0,1,1.871,5.213,11.9,11.9,0,0,1-1.216,5.229,9.333,9.333,0,0,1-3.305,3.886,8.455,8.455,0,0,1-4.726,1.363,6.583,6.583,0,0,1-3.843-1.081,6.009,6.009,0,0,1-2.2-2.686,8.55,8.55,0,0,1-.648-3.231Zm3.327-.067h0a4.336,4.336,0,0,0,1.029,2.945,3.408,3.408,0,0,0,2.7,1.187,4.34,4.34,0,0,0,2.619-.937,6.782,6.782,0,0,0,2.077-2.841,9.343,9.343,0,0,0,.82-3.708,4.539,4.539,0,0,0-1.037-3.159,3.412,3.412,0,0,0-2.649-1.148,4.629,4.629,0,0,0-4.014,2.4,9.52,9.52,0,0,0-1.548,5.261Zm74.18,2.992h-6.492l-1.963,3.771H309.44l9.256-17.066h3.743l2.657,17.066h-3.2l-.545-3.771Zm-.416-2.841h0l-.949-6.87-3.952,6.87Zm260.926,6.612h0l2.848-14.213h4.738l.568-2.853h-12.9l-.568,2.853h4.8l-2.859,14.213Zm-14.386,0h0l3.427-17.066h3.362l-3.415,17.066Zm-4.044,0h-3.141l-4.422-11.467-2.3,11.467h-3.137l3.416-17.066H557l4.433,11.419,2.292-11.419h3.125l-3.415,17.066Zm-19.647-3.771H537.3l-1.964,3.771h-3.46l9.255-17.066h3.743l2.657,17.066h-3.2l-.545-3.771Zm-26.225-1.76h0l3.2-.175a3.821,3.821,0,0,0,.523,2.154,3.363,3.363,0,0,0,2.725.91,3.722,3.722,0,0,0,2.39-.617,1.885,1.885,0,0,0,.74-1.49,1.635,1.635,0,0,0-.607-1.283,11.6,11.6,0,0,0-2.329-1.244,21.752,21.752,0,0,1-2.779-1.438,4.162,4.162,0,0,1-1.379-1.494,4.42,4.42,0,0,1-.5-2.154,4.723,4.723,0,0,1,1.5-3.576,6.07,6.07,0,0,1,4.334-1.418,6.48,6.48,0,0,1,4.459,1.406,5.3,5.3,0,0,1,1.739,3.751l-3.229.152a2.8,2.8,0,0,0-.85-1.876,3.118,3.118,0,0,0-2.142-.652,3.062,3.062,0,0,0-1.994.513,1.621,1.621,0,0,0-.6,1.291,1.537,1.537,0,0,0,.549,1.212,11.047,11.047,0,0,0,2.42,1.339,13.39,13.39,0,0,1,3.6,2.058,4.09,4.09,0,0,1,1.151,2.993,5.084,5.084,0,0,1-1.716,3.858,6.716,6.716,0,0,1-4.776,1.6,8.4,8.4,0,0,1-3.655-.739,4.416,4.416,0,0,1-2.185-2.054,6.472,6.472,0,0,1-.59-3.028Zm-37.812,5.324H476.39l1.33-6.647-4.513-10.419h3.587l2.032,4.82q.726,1.734.972,2.5.411-.757.96-1.606l1.552-2.26,2.314-3.457h3.907l-7.506,10.744-1.273,6.322Zm-31.186-19.406h0l1.967-2.074h2.634l-3.317,3.5h-2.992l-1.365-3.5H447.7l.862,2.074Zm-58.291,19.406h0l3.427-17.066h4.41c1.232,0,2.017.019,2.36.059a6.506,6.506,0,0,1,1.814.429,4.981,4.981,0,0,1,1.449.914,5.664,5.664,0,0,1,1.128,1.415,7.089,7.089,0,0,1,.732,1.9,10.113,10.113,0,0,1,.259,2.357,11.352,11.352,0,0,1-1.01,4.9,9.592,9.592,0,0,1-2.542,3.393,7.568,7.568,0,0,1-3.027,1.447,14.844,14.844,0,0,1-3.229.254Zm3.919-2.746H395.9a10.768,10.768,0,0,0,2.687-.238,3.733,3.733,0,0,0,1.525-.894,7.537,7.537,0,0,0,1.673-2.511,9.279,9.279,0,0,0,.682-3.7,5.256,5.256,0,0,0-.564-2.73,2.769,2.769,0,0,0-1.391-1.215,6.875,6.875,0,0,0-2.066-.211H396.5l-2.3,11.5Zm13.395,2.746h0l3.427-17.066h3.362l-2.848,14.213h8.329l-.567,2.853Zm25.364-3.771h-6.491l-1.963,3.771h-3.462l9.256-17.066h3.743l2.657,17.066h-3.2l-.545-3.771Zm-.415-2.841h0l-.949-6.87-3.954,6.87Zm6.6,6.612h0l.538-2.69,9.426-11.523h-7.627l.568-2.853h11.8l-.492,2.678-9.526,11.6c1.015-.024,1.6-.036,1.754-.036q1.07,0,2.958-.024h3.865l-.571,2.853Zm15.08,0h0l3.431-17.066h5.592a18.978,18.978,0,0,1,2.546.115,5.284,5.284,0,0,1,2.047.7,3.447,3.447,0,0,1,1.273,1.4,4.258,4.258,0,0,1,.434,1.931,4.1,4.1,0,0,1-.758,2.464,4.641,4.641,0,0,1-2.348,1.577,3.663,3.663,0,0,1,1.971,1.283,3.36,3.36,0,0,1,.709,2.091,5.543,5.543,0,0,1-.835,2.916,4.769,4.769,0,0,1-2.314,1.987,10.927,10.927,0,0,1-4.029.6Zm3.922-2.746h3.248a8.839,8.839,0,0,0,2.741-.274,2.449,2.449,0,0,0,1.536-2.229,1.821,1.821,0,0,0-.6-1.4,2.936,2.936,0,0,0-2.009-.552h-4.021l-.893,4.458Zm1.483-7.43h2.569a8.605,8.605,0,0,0,2.49-.254,2.1,2.1,0,0,0,1.139-.839,2.218,2.218,0,0,0,.381-1.244,1.575,1.575,0,0,0-.358-1.072,1.768,1.768,0,0,0-1.018-.561,13.668,13.668,0,0,0-1.772-.067h-2.615l-.816,4.037Zm83.749,3.771h0l-.949-6.87-3.954,6.87Zm54.712,0h0l-.949-6.87-3.953,6.87Z" transform="translate(0 -0.5)" fill="#fff"/><path d="M481.856,235.631h11.322l.931,2.22h2.215l4.3,10.269,2.734-4.006,5.646-8.483h12.433l-1.542,2.22h4.688l-18.335,26.4-3.043,15.2h-10.6l.442-2.22h-3.588l3.257-16.367-8.236-19.121-7.5,37.708h-9.311l-.852-2.22h-2.294l-6.111-15.94-3.62,18.16H444.7l.442-2.22h-2.07l-.439,2.22H413.266l.443-2.22h-2.717l-.448,2.22H378.737l.442-2.22h-3.588l3.932-19.734a13.026,13.026,0,0,1-1.922,2.679,12.867,12.867,0,0,1-3.828,2.842,19.159,19.159,0,0,1-5.292,1.428,49.012,49.012,0,0,1-6.9.277h-3.625l-2.942,14.728H344.386l.444-2.22h-3.589l8.314-41.594h16.2a18.128,18.128,0,0,1,6.892,1.107,9.02,9.02,0,0,1,3.168,2.23,9.23,9.23,0,0,1,4.365,3.864,11.185,11.185,0,0,1,1.43,4.206l2.273-11.407h30.341l-.439,2.22h3.584l-1.867,9.432h-19.73l-.716,3.57h15.471l-.439,2.22h3.585l-1.868,9.433H392.7l-1.164,5.287H409.3l-.448,2.22h2.706l6.865-34.382h10.6l-.442,2.22h3.588L426.2,267.793h15.151l-.44,2.22h2.075l6.842-34.382h9.326l.857,2.22H462.3l6.131,15.884,3.611-18.1Zm.956,2.22-.779-1.81-.361,1.81Zm112.362,25.792,3.033-.166.059,1.511a14.081,14.081,0,0,0,.424,3.1,13.1,13.1,0,0,0,2.251.177c1.33,0,3.347-.147,4.418-1.043a2.814,2.814,0,0,0,1.135-2.234,2.176,2.176,0,0,0-.258-1.066c-.9-.441-1.806-.841-2.329-1.079a47.831,47.831,0,0,1-6.46-3.37,11.2,11.2,0,0,1-1.575-1.262c-.544-.307-1.071-.626-1.57-.958a10.916,10.916,0,0,1-3.589-3.91,11.578,11.578,0,0,1-1.312-5.583,12.2,12.2,0,0,1,3.832-9.169c2.906-2.768,6.879-3.621,10.778-3.621,3.965,0,8,.847,11.03,3.564q.191.171.372.348a12.385,12.385,0,0,1,2.773,1.872,13.52,13.52,0,0,1,4.4,9.494l.1,1.516-10.189.479-.144-1.4a7.711,7.711,0,0,0-.154-.953l-2.848.134-.143-1.4a6.387,6.387,0,0,0-.52-2.039,9.485,9.485,0,0,0-1.587-.123c-1,0-2.713.1-3.514.8a2.2,2.2,0,0,0-.83,1.794,2.082,2.082,0,0,0,.259,1.06c.891.45,1.784.854,2.4,1.136,2.386,1.076,6.436,2.927,8.386,4.812a15.474,15.474,0,0,1,3.308,2.383,10.773,10.773,0,0,1,3.013,7.809,13.021,13.021,0,0,1-4.329,9.816c-3.214,3.021-7.457,4.027-11.765,4.027a20.365,20.365,0,0,1-8.87-1.819,12.954,12.954,0,0,1-3.485-2.388,11.319,11.319,0,0,1-5.272-5.18,15.023,15.023,0,0,1-1.318-4.486q-.116.528-.226,1.049a36.9,36.9,0,0,0-1.023,6.7,13.6,13.6,0,0,0,.546,3.578l.522,1.884H574.816l-.3-1.088q-.078-.279-.145-.56a11.978,11.978,0,0,1-1.944,1.169,10.972,10.972,0,0,1-4.8,1.136,8.713,8.713,0,0,1-6.563-2.742l-.127-.137a8.58,8.58,0,0,1-3.019-2.083,9.613,9.613,0,0,1-2.554-6.563,20.629,20.629,0,0,1-3.879,7.751c-2.665,2.913-6.563,3.774-10.369,3.774-3.22,0-6.584-.658-8.977-2.972-.127-.123-.25-.249-.368-.376a9.417,9.417,0,0,1-2.777-1.844,10.724,10.724,0,0,1-3.087-8.021,19.723,19.723,0,0,1,.138-2.226l.134-1.178,10.079-1.139-.252,1.89c-.031.238-.061.48-.085.724l3.483-.393-.252,1.889a13.325,13.325,0,0,0-.141,1.728v.068a2.853,2.853,0,0,0,2.307-1.092c.772-1.2,1.642-5.763,1.925-7.205l4.863-24.324h10.478l-.441,2.22h3.586L558.52,254a12.47,12.47,0,0,1,4.568-6.009,15.191,15.191,0,0,1,8.8-2.381c2.974,0,6.294.508,8.6,2.546a10,10,0,0,1,.757.739,8.722,8.722,0,0,1,2.388,1.482A8.281,8.281,0,0,1,586.6,256.8a19.017,19.017,0,0,1-.231,2.9c-.1.673-.213,1.358-.343,2.047l9.033-.5.058,1.511c.01.23.026.535.054.875ZM269.259,237.851h5.569L256.31,254.818l12.736,24.627H257.109l-1.1-2.22h-2.047L247.07,263.3l-3.935,3.606-2.5,12.543H229.982l.443-2.22h-3.588l8.286-41.594h10.626l-.443,2.22h3.588l-1.4,7.034,9.607-9.254h14.582l-2.423,2.22Zm6.073,38.256a17.393,17.393,0,0,0,1.64,1.306,16.292,16.292,0,0,0,9.5,2.716,20.452,20.452,0,0,0,11.451-3.328,22.644,22.644,0,0,0,7.962-9.394q.636-1.328,1.135-2.688a12.8,12.8,0,0,0,3.864,9.442,11.928,11.928,0,0,0,3.056,2.131l.09.089c2.933,2.833,6.93,3.721,10.891,3.721a18.03,18.03,0,0,0,9.686-2.44,15.535,15.535,0,0,0,5.793-6.349,44.512,44.512,0,0,0,3.194-10.552l4.547-22.91h-3.586l.441-2.22H334.4l-4.459,22.3a33.3,33.3,0,0,1-1.88,6.9,5.6,5.6,0,0,1-2.18,2.57,7.286,7.286,0,0,1-3.751.865,8.751,8.751,0,0,1-1.338-.1,3.847,3.847,0,0,1-.264-1.466,6.6,6.6,0,0,1,.08-.982h0l1.023-5.129,4.523-22.747h-3.587l.441-2.22H312.418l-3.668,18.314a17.607,17.607,0,0,0-4.6-11.835,15.255,15.255,0,0,0-3.98-3.042,16.143,16.143,0,0,0-11.284-4.093,20.193,20.193,0,0,0-9.813,2.357,20.73,20.73,0,0,0-7.126,6.359,27.978,27.978,0,0,0-4.127,9.321,30.4,30.4,0,0,0-1.032,7.575h0a20.983,20.983,0,0,0,1.566,7.866,15.12,15.12,0,0,0,5.473,6.74,14.119,14.119,0,0,0,1.506.914ZM558.044,256.4l-1.213,6.106a9.246,9.246,0,0,1,1.327-1.7,9.605,9.605,0,0,1,3.5-2.145l-.772-.069.574-1.774.036-.11-3.451-.309Zm14.014.575c.46-.079.9-.169,1.3-.273h0c.031-.133.061-.267.087-.4a2.719,2.719,0,0,0-1.12.445,2.362,2.362,0,0,0-.265.23ZM280.4,262.654h0a20.154,20.154,0,0,1,3.246-11.1c1.841-2.87,4.286-4.745,7.779-4.745a7.06,7.06,0,0,1,2.035.279,9.357,9.357,0,0,1,1.625,5.759,19.871,19.871,0,0,1-1.724,7.8,14.08,14.08,0,0,1-4.2,5.823,8.283,8.283,0,0,1-5,1.826,7.284,7.284,0,0,1-2.078-.281,8.484,8.484,0,0,1-1.685-5.362Zm79.863-9.588a15.769,15.769,0,0,0,4.389-.636,5.07,5.07,0,0,0,2.468-1.964,5.262,5.262,0,0,0,.91-3c0-.079,0-.161-.007-.244-.913-.05-1.883-.048-2.367-.048h-4.21l-1.183,5.89Zm208.165,15.926a4.7,4.7,0,0,0,.834-.384,4.333,4.333,0,0,0,1.136-.9,5.12,5.12,0,0,0-1.515.725A1.561,1.561,0,0,0,568.425,268.992Z" transform="translate(0 -0.5)" fill="#111" fill-rule="evenodd"/><path d="M586.42,263.221l7.213-.4c.1,2.41.489,4.038,1.175,4.874,1.107,1.375,3.157,2.059,6.133,2.059q3.717,0,5.377-1.394a4.277,4.277,0,0,0,1.664-3.371,3.714,3.714,0,0,0-1.364-2.9,25.943,25.943,0,0,0-5.24-2.814,48.877,48.877,0,0,1-6.252-3.255,9.418,9.418,0,0,1-3.1-3.381,10.056,10.056,0,0,1-1.132-4.873,10.714,10.714,0,0,1,3.37-8.092q3.372-3.21,9.752-3.21,6.484,0,10.035,3.183a12.02,12.02,0,0,1,3.911,8.487l-7.265.342a6.339,6.339,0,0,0-1.912-4.244,6.991,6.991,0,0,0-4.821-1.474c-2.092,0-3.593.386-4.485,1.159a3.684,3.684,0,0,0-1.346,2.922,3.485,3.485,0,0,0,1.235,2.743,24.822,24.822,0,0,0,5.446,3.03q6.367,2.873,8.1,4.658a9.28,9.28,0,0,1,2.591,6.77,11.535,11.535,0,0,1-3.86,8.731q-3.859,3.629-10.746,3.624a18.8,18.8,0,0,1-8.226-1.673,9.957,9.957,0,0,1-4.914-4.648,14.737,14.737,0,0,1-1.33-6.852ZM228.651,275.737h0l7.693-38.618h7.591l-3.268,16.409L257.7,237.119h10.155L251.319,252.27l12.136,23.467h-8.568l-9.1-18.387-7.162,6.563-2.358,11.824Zm39.624-15.15h0a28.949,28.949,0,0,1,.987-7.212,26.446,26.446,0,0,1,3.9-8.829,19.228,19.228,0,0,1,6.621-5.907,18.653,18.653,0,0,1,9.1-2.176,14.485,14.485,0,0,1,11.038,4.45q4.221,4.451,4.212,11.8a27.043,27.043,0,0,1-2.737,11.833,21.1,21.1,0,0,1-7.435,8.793,18.953,18.953,0,0,1-10.636,3.084,14.746,14.746,0,0,1-8.645-2.445,13.6,13.6,0,0,1-4.949-6.079,19.447,19.447,0,0,1-1.458-7.309Zm7.488-.153h0a9.842,9.842,0,0,0,2.315,6.662,7.641,7.641,0,0,0,6.081,2.689,9.72,9.72,0,0,0,5.893-2.122,15.34,15.34,0,0,0,4.674-6.429,21.261,21.261,0,0,0,1.844-8.389,10.3,10.3,0,0,0-2.333-7.148,7.653,7.653,0,0,0-5.961-2.6q-5.544,0-9.031,5.431a21.627,21.627,0,0,0-3.482,11.9Zm37.875-23.315h7.556l-4.169,20.968L316,263.248a8.041,8.041,0,0,0-.1,1.241,4.931,4.931,0,0,0,1.6,3.776,6.53,6.53,0,0,0,4.641,1.493,8.618,8.618,0,0,0,4.52-1.079,7.025,7.025,0,0,0,2.761-3.219,34.963,34.963,0,0,0,1.99-7.238l4.22-21.1h7.565l-4.2,21.13a43.273,43.273,0,0,1-3.07,10.187,14.021,14.021,0,0,1-5.249,5.745,16.439,16.439,0,0,1-8.894,2.213q-6.434,0-9.855-3.3a11.335,11.335,0,0,1-3.413-8.5,18.152,18.152,0,0,1,.171-2.347c.069-.567.36-2.158.884-4.792l4.074-20.339Zm37.008,38.618h0l2.942-14.728h4.846a54.264,54.264,0,0,0,6.681-.26,17.7,17.7,0,0,0,4.88-1.3,11.38,11.38,0,0,0,3.38-2.518,13.534,13.534,0,0,0,2.65-4.424,15.51,15.51,0,0,0,1.08-5.691,10.483,10.483,0,0,0-1.355-5.44,7.729,7.729,0,0,0-3.688-3.264,16.49,16.49,0,0,0-6.312-.989H350.775l-7.719,38.618Zm4.194-21.13h0l2.239-11.14h5.429a16.573,16.573,0,0,1,4.76.413,3.315,3.315,0,0,1,1.655,1.3,4.049,4.049,0,0,1,.592,2.284,6.737,6.737,0,0,1-1.158,3.82,6.526,6.526,0,0,1-3.165,2.527c-1.338.531-4.013.791-8.01.791Zm22.565,21.13h0l7.694-38.618h27.308l-1.278,6.456H391.4l-1.758,8.766h19.066l-1.278,6.456H388.358l-2.307,10.484h21.433l-1.3,6.456Zm34.531,0h26.33l1.278-6.456H420.8l6.407-32.162h-7.565l-7.71,38.618Zm60.68,0h-7.067l-9.95-25.949-5.171,25.949h-7.059l7.685-38.618h7.084l9.975,25.841,5.155-25.841H480.3l-7.685,38.618Zm26.227,0h-7.564l2.993-15.042-10.155-23.576h8.071l4.571,10.907q1.633,3.924,2.188,5.664.926-1.713,2.16-3.633l3.491-5.115,5.207-7.823H518.6l-16.888,24.313-2.865,14.3Zm50.483-38.618h7.445l-4.649,23.4q-1.866,9.292-4.88,12.588t-9.271,3.291c-3.534,0-6.175-.845-7.943-2.554a9.217,9.217,0,0,1-2.633-6.95,18.285,18.285,0,0,1,.129-2.059l7.007-.792a15.031,15.031,0,0,0-.154,1.924,3.742,3.742,0,0,0,1.012,2.824,4.3,4.3,0,0,0,3.088.971c1.938,0,3.31-.594,4.091-1.789q.888-1.377,2.135-7.724l4.623-23.126Zm17.445,18.567h0l-7.041-.629a11.076,11.076,0,0,1,4.211-5.844,13.61,13.61,0,0,1,7.95-2.114q5.16,0,7.616,2.176a6.8,6.8,0,0,1,2.462,5.305,17.616,17.616,0,0,1-.214,2.689q-.207,1.429-1.493,7.48a40.154,40.154,0,0,0-1.055,7.014,15.05,15.05,0,0,0,.6,3.974H572.8a15.336,15.336,0,0,1-.531-3.165,11.034,11.034,0,0,1-3.637,2.833,9.469,9.469,0,0,1-4.151.989,7.22,7.22,0,0,1-5.48-2.276,8.2,8.2,0,0,1-2.153-5.862,8.718,8.718,0,0,1,2.367-6.4q2.38-2.4,8.483-2.895a32.037,32.037,0,0,0,6.886-1.079,9.882,9.882,0,0,0,.455-2.535,2.6,2.6,0,0,0-.935-2.023,4.039,4.039,0,0,0-2.761-.819,5.059,5.059,0,0,0-3.054.828,4.131,4.131,0,0,0-1.518,2.355Zm6.861,7.014h0a16.579,16.579,0,0,1-1.741.341c-3.61.459-5.978,1.124-7.084,2.005a3.093,3.093,0,0,0-1.175,2.554,3.033,3.033,0,0,0,.9,2.221,3.19,3.19,0,0,0,2.384.908A6.03,6.03,0,0,0,570,269.9a5.449,5.449,0,0,0,2.161-2.13,15.058,15.058,0,0,0,1.27-4.073Z" transform="translate(0 -0.5)" fill="#fff"/></g></svg>