<svg xmlns="http://www.w3.org/2000/svg" xmlns:xlink="http://www.w3.org/1999/xlink" width="942.756" height="2.242" viewBox="0 0 942.756 2.242"><defs><style>.a{fill:none;}.b{clip-path:url(#a);}.c{fill:#ff64aa;}</style><clipPath id="a"><rect class="a" width="942.756" height="2.242"/></clipPath></defs><g class="b"><g transform="translate(-169.164 -82.834)"><path class="c" d="M169.811,82.834l-.646,1.121.646,1.12h1.295l.647-1.121-.647-1.119Z"/><path class="c" d="M169.811,82.834l-.646,1.121.646,1.12h1.295l.647-1.121-.647-1.119Z"/><path class="c" d="M195.669,82.834l-.646,1.121.646,1.12h1.295l.646-1.121-.646-1.119Z"/><path class="c" d="M174.988,82.834l-.646,1.121.646,1.12h1.295l.646-1.121-.646-1.119Z"/><path class="c" d="M180.164,82.834l-.646,1.121.646,1.12h1.295l.646-1.121-.646-1.119Z"/><path class="c" d="M185.342,82.834l-.646,1.121.646,1.12h1.295l.646-1.121-.646-1.119Z"/><path class="c" d="M190.52,82.834l-.646,1.121.646,1.12h1.295l.646-1.121-.646-1.119Z"/><path class="c" d="M200.868,82.834l-.646,1.121.646,1.12h1.295l.646-1.121-.646-1.119Z"/><path class="c" d="M226.727,82.834l-.646,1.121.646,1.12h1.295l.646-1.121-.646-1.119Z"/><path class="c" d="M206.045,82.834l-.646,1.121.646,1.12h1.295l.646-1.121-.646-1.119Z"/><path class="c" d="M211.221,82.834l-.646,1.121.646,1.12h1.295l.646-1.121-.646-1.119Z"/><path class="c" d="M216.4,82.834l-.646,1.121.646,1.12h1.295l.646-1.121-.646-1.119Z"/><path class="c" d="M221.576,82.834l-.646,1.121.646,1.12h1.295l.646-1.121-.646-1.119Z"/><path class="c" d="M231.881,82.834l-.646,1.121.646,1.12h1.295l.646-1.121-.646-1.119Z"/><path class="c" d="M257.74,82.834l-.647,1.121.647,1.12h1.295l.647-1.121-.647-1.119Z"/><path class="c" d="M237.059,82.834l-.646,1.121.646,1.12h1.295L239,83.955l-.646-1.119Z"/><path class="c" d="M242.234,82.834l-.646,1.121.646,1.12h1.295l.646-1.121-.646-1.119Z"/><path class="c" d="M247.412,82.834l-.646,1.121.646,1.12h1.295l.646-1.121-.646-1.119Z"/><path class="c" d="M252.59,82.834l-.646,1.121.646,1.12h1.295l.646-1.121-.646-1.119Z"/><path class="c" d="M262.963,82.834l-.646,1.121.646,1.12h1.295l.646-1.121-.646-1.119Z"/><path class="c" d="M288.822,82.834l-.646,1.121.646,1.12h1.295l.646-1.121-.646-1.119Z"/><path class="c" d="M268.141,82.834l-.646,1.121.646,1.12h1.295l.647-1.121-.647-1.119Z"/><path class="c" d="M273.316,82.834l-.647,1.121.647,1.12h1.295l.647-1.121-.647-1.119Z"/><path class="c" d="M278.494,82.834l-.647,1.121.647,1.12h1.295l.646-1.121-.646-1.119Z"/><path class="c" d="M283.672,82.834l-.647,1.121.647,1.12h1.295l.647-1.121-.647-1.119Z"/><path class="c" d="M294.259,82.834l-.646,1.121.646,1.12h1.295l.646-1.121-.646-1.119Z"/><path class="c" d="M294.259,82.834l-.646,1.121.646,1.12h1.295l.646-1.121-.646-1.119Z"/><path class="c" d="M320.118,82.834l-.646,1.121.646,1.12h1.295l.646-1.121-.646-1.119Z"/><path class="c" d="M299.436,82.834l-.646,1.121.646,1.12h1.295l.646-1.121-.646-1.119Z"/><path class="c" d="M304.612,82.834l-.647,1.121.647,1.12h1.295l.647-1.121-.647-1.119Z"/><path class="c" d="M309.79,82.834l-.647,1.121.647,1.12h1.295l.647-1.121-.647-1.119Z"/><path class="c" d="M314.968,82.834l-.647,1.121.647,1.12h1.295l.647-1.121-.647-1.119Z"/><path class="c" d="M325.315,82.834l-.646,1.121.646,1.12h1.295l.647-1.121-.647-1.119Z"/><path class="c" d="M351.175,82.834l-.647,1.121.647,1.12h1.295l.647-1.121-.647-1.119Z"/><path class="c" d="M330.493,82.834l-.646,1.121.646,1.12h1.295l.646-1.121-.646-1.119Z"/><path class="c" d="M335.669,82.834l-.647,1.121.647,1.12h1.295l.646-1.121-.646-1.119Z"/><path class="c" d="M340.847,82.834l-.647,1.121.647,1.12h1.295l.646-1.121-.646-1.119Z"/><path class="c" d="M346.024,82.834l-.647,1.121.647,1.12h1.295l.646-1.121-.646-1.119Z"/><path class="c" d="M356.329,82.834l-.647,1.121.647,1.12h1.295l.647-1.121-.647-1.119Z"/><path class="c" d="M382.189,82.834l-.647,1.121.647,1.12h1.295l.647-1.121-.647-1.119Z"/><path class="c" d="M361.507,82.834l-.647,1.121.647,1.12H362.8l.647-1.121-.647-1.119Z"/><path class="c" d="M366.683,82.834l-.646,1.121.646,1.12h1.295l.646-1.121-.646-1.119Z"/><path class="c" d="M371.86,82.834l-.646,1.121.646,1.12h1.3l.646-1.121-.646-1.119Z"/><path class="c" d="M377.038,82.834l-.646,1.121.646,1.12h1.295l.646-1.121-.646-1.119Z"/><path class="c" d="M387.411,82.834l-.647,1.121.647,1.12h1.295l.647-1.121-.647-1.119Z"/><path class="c" d="M413.271,82.834l-.647,1.121.647,1.12h1.295l.647-1.121-.647-1.119Z"/><path class="c" d="M392.589,82.834l-.646,1.121.646,1.12h1.295l.647-1.121-.647-1.119Z"/><path class="c" d="M397.765,82.834l-.646,1.121.646,1.12h1.295l.646-1.121-.646-1.119Z"/><path class="c" d="M402.942,82.834l-.647,1.121.647,1.12h1.295l.646-1.121-.646-1.119Z"/><path class="c" d="M408.12,82.834l-.646,1.121.646,1.12h1.295l.646-1.121-.646-1.119Z"/><path class="c" d="M418.744,82.834l-.647,1.121.647,1.12h1.295l.646-1.121-.646-1.119Z"/><path class="c" d="M418.744,82.834l-.647,1.121.647,1.12h1.295l.646-1.121-.646-1.119Z"/><path class="c" d="M444.6,82.834l-.647,1.121.647,1.12H445.9l.647-1.121-.647-1.119Z"/><path class="c" d="M423.922,82.834l-.647,1.121.647,1.12h1.295l.647-1.121-.647-1.119Z"/><path class="c" d="M429.1,82.834l-.647,1.121.647,1.12h1.295l.646-1.121-.646-1.119Z"/><path class="c" d="M434.275,82.834l-.646,1.121.646,1.12h1.295l.646-1.121-.646-1.119Z"/><path class="c" d="M439.453,82.834l-.646,1.121.646,1.12h1.295l.647-1.121-.647-1.119Z"/><path class="c" d="M449.8,82.834l-.647,1.121.647,1.12H451.1l.646-1.121-.646-1.119Z"/><path class="c" d="M454.978,82.834l-.646,1.121.646,1.12h1.295l.646-1.121-.646-1.119Z"/></g><g transform="translate(120.836 -82.834)"><path class="c" d="M169.811,82.834l-.646,1.121.646,1.12h1.295l.647-1.121-.647-1.119Z"/><path class="c" d="M169.811,82.834l-.646,1.121.646,1.12h1.295l.647-1.121-.647-1.119Z"/><path class="c" d="M195.669,82.834l-.646,1.121.646,1.12h1.295l.646-1.121-.646-1.119Z"/><path class="c" d="M174.988,82.834l-.646,1.121.646,1.12h1.295l.646-1.121-.646-1.119Z"/><path class="c" d="M180.164,82.834l-.646,1.121.646,1.12h1.295l.646-1.121-.646-1.119Z"/><path class="c" d="M185.342,82.834l-.646,1.121.646,1.12h1.295l.646-1.121-.646-1.119Z"/><path class="c" d="M190.52,82.834l-.646,1.121.646,1.12h1.295l.646-1.121-.646-1.119Z"/><path class="c" d="M200.868,82.834l-.646,1.121.646,1.12h1.295l.646-1.121-.646-1.119Z"/><path class="c" d="M226.727,82.834l-.646,1.121.646,1.12h1.295l.646-1.121-.646-1.119Z"/><path class="c" d="M206.045,82.834l-.646,1.121.646,1.12h1.295l.646-1.121-.646-1.119Z"/><path class="c" d="M211.221,82.834l-.646,1.121.646,1.12h1.295l.646-1.121-.646-1.119Z"/><path class="c" d="M216.4,82.834l-.646,1.121.646,1.12h1.295l.646-1.121-.646-1.119Z"/><path class="c" d="M221.576,82.834l-.646,1.121.646,1.12h1.295l.646-1.121-.646-1.119Z"/><path class="c" d="M231.881,82.834l-.646,1.121.646,1.12h1.295l.646-1.121-.646-1.119Z"/><path class="c" d="M257.74,82.834l-.647,1.121.647,1.12h1.295l.647-1.121-.647-1.119Z"/><path class="c" d="M237.059,82.834l-.646,1.121.646,1.12h1.295L239,83.955l-.646-1.119Z"/><path class="c" d="M242.234,82.834l-.646,1.121.646,1.12h1.295l.646-1.121-.646-1.119Z"/><path class="c" d="M247.412,82.834l-.646,1.121.646,1.12h1.295l.646-1.121-.646-1.119Z"/><path class="c" d="M252.59,82.834l-.646,1.121.646,1.12h1.295l.646-1.121-.646-1.119Z"/><path class="c" d="M262.963,82.834l-.646,1.121.646,1.12h1.295l.646-1.121-.646-1.119Z"/><path class="c" d="M288.822,82.834l-.646,1.121.646,1.12h1.295l.646-1.121-.646-1.119Z"/><path class="c" d="M268.141,82.834l-.646,1.121.646,1.12h1.295l.647-1.121-.647-1.119Z"/><path class="c" d="M273.316,82.834l-.647,1.121.647,1.12h1.295l.647-1.121-.647-1.119Z"/><path class="c" d="M278.494,82.834l-.647,1.121.647,1.12h1.295l.646-1.121-.646-1.119Z"/><path class="c" d="M283.672,82.834l-.647,1.121.647,1.12h1.295l.647-1.121-.647-1.119Z"/><path class="c" d="M294.259,82.834l-.646,1.121.646,1.12h1.295l.646-1.121-.646-1.119Z"/><path class="c" d="M294.259,82.834l-.646,1.121.646,1.12h1.295l.646-1.121-.646-1.119Z"/><path class="c" d="M320.118,82.834l-.646,1.121.646,1.12h1.295l.646-1.121-.646-1.119Z"/><path class="c" d="M299.436,82.834l-.646,1.121.646,1.12h1.295l.646-1.121-.646-1.119Z"/><path class="c" d="M304.612,82.834l-.647,1.121.647,1.12h1.295l.647-1.121-.647-1.119Z"/><path class="c" d="M309.79,82.834l-.647,1.121.647,1.12h1.295l.647-1.121-.647-1.119Z"/><path class="c" d="M314.968,82.834l-.647,1.121.647,1.12h1.295l.647-1.121-.647-1.119Z"/><path class="c" d="M325.315,82.834l-.646,1.121.646,1.12h1.295l.647-1.121-.647-1.119Z"/><path class="c" d="M351.175,82.834l-.647,1.121.647,1.12h1.295l.647-1.121-.647-1.119Z"/><path class="c" d="M330.493,82.834l-.646,1.121.646,1.12h1.295l.646-1.121-.646-1.119Z"/><path class="c" d="M335.669,82.834l-.647,1.121.647,1.12h1.295l.646-1.121-.646-1.119Z"/><path class="c" d="M340.847,82.834l-.647,1.121.647,1.12h1.295l.646-1.121-.646-1.119Z"/><path class="c" d="M346.024,82.834l-.647,1.121.647,1.12h1.295l.646-1.121-.646-1.119Z"/><path class="c" d="M356.329,82.834l-.647,1.121.647,1.12h1.295l.647-1.121-.647-1.119Z"/><path class="c" d="M382.189,82.834l-.647,1.121.647,1.12h1.295l.647-1.121-.647-1.119Z"/><path class="c" d="M361.507,82.834l-.647,1.121.647,1.12H362.8l.647-1.121-.647-1.119Z"/><path class="c" d="M366.683,82.834l-.646,1.121.646,1.12h1.295l.646-1.121-.646-1.119Z"/><path class="c" d="M371.86,82.834l-.646,1.121.646,1.12h1.3l.646-1.121-.646-1.119Z"/><path class="c" d="M377.038,82.834l-.646,1.121.646,1.12h1.295l.646-1.121-.646-1.119Z"/><path class="c" d="M387.411,82.834l-.647,1.121.647,1.12h1.295l.647-1.121-.647-1.119Z"/><path class="c" d="M413.271,82.834l-.647,1.121.647,1.12h1.295l.647-1.121-.647-1.119Z"/><path class="c" d="M392.589,82.834l-.646,1.121.646,1.12h1.295l.647-1.121-.647-1.119Z"/><path class="c" d="M397.765,82.834l-.646,1.121.646,1.12h1.295l.646-1.121-.646-1.119Z"/><path class="c" d="M402.942,82.834l-.647,1.121.647,1.12h1.295l.646-1.121-.646-1.119Z"/><path class="c" d="M408.12,82.834l-.646,1.121.646,1.12h1.295l.646-1.121-.646-1.119Z"/><path class="c" d="M418.744,82.834l-.647,1.121.647,1.12h1.295l.646-1.121-.646-1.119Z"/><path class="c" d="M418.744,82.834l-.647,1.121.647,1.12h1.295l.646-1.121-.646-1.119Z"/><path class="c" d="M444.6,82.834l-.647,1.121.647,1.12H445.9l.647-1.121-.647-1.119Z"/><path class="c" d="M423.922,82.834l-.647,1.121.647,1.12h1.295l.647-1.121-.647-1.119Z"/><path class="c" d="M429.1,82.834l-.647,1.121.647,1.12h1.295l.646-1.121-.646-1.119Z"/><path class="c" d="M434.275,82.834l-.646,1.121.646,1.12h1.295l.646-1.121-.646-1.119Z"/><path class="c" d="M439.453,82.834l-.646,1.121.646,1.12h1.295l.647-1.121-.647-1.119Z"/><path class="c" d="M449.8,82.834l-.647,1.121.647,1.12H451.1l.646-1.121-.646-1.119Z"/><path class="c" d="M454.978,82.834l-.646,1.121.646,1.12h1.295l.646-1.121-.646-1.119Z"/></g><g transform="translate(410.836 -82.834)"><path class="c" d="M169.811,82.834l-.646,1.121.646,1.12h1.295l.647-1.121-.647-1.119Z"/><path class="c" d="M169.811,82.834l-.646,1.121.646,1.12h1.295l.647-1.121-.647-1.119Z"/><path class="c" d="M195.669,82.834l-.646,1.121.646,1.12h1.295l.646-1.121-.646-1.119Z"/><path class="c" d="M174.988,82.834l-.646,1.121.646,1.12h1.295l.646-1.121-.646-1.119Z"/><path class="c" d="M180.164,82.834l-.646,1.121.646,1.12h1.295l.646-1.121-.646-1.119Z"/><path class="c" d="M185.342,82.834l-.646,1.121.646,1.12h1.295l.646-1.121-.646-1.119Z"/><path class="c" d="M190.52,82.834l-.646,1.121.646,1.12h1.295l.646-1.121-.646-1.119Z"/><path class="c" d="M200.868,82.834l-.646,1.121.646,1.12h1.295l.646-1.121-.646-1.119Z"/><path class="c" d="M226.727,82.834l-.646,1.121.646,1.12h1.295l.646-1.121-.646-1.119Z"/><path class="c" d="M206.045,82.834l-.646,1.121.646,1.12h1.295l.646-1.121-.646-1.119Z"/><path class="c" d="M211.221,82.834l-.646,1.121.646,1.12h1.295l.646-1.121-.646-1.119Z"/><path class="c" d="M216.4,82.834l-.646,1.121.646,1.12h1.295l.646-1.121-.646-1.119Z"/><path class="c" d="M221.576,82.834l-.646,1.121.646,1.12h1.295l.646-1.121-.646-1.119Z"/><path class="c" d="M231.881,82.834l-.646,1.121.646,1.12h1.295l.646-1.121-.646-1.119Z"/><path class="c" d="M257.74,82.834l-.647,1.121.647,1.12h1.295l.647-1.121-.647-1.119Z"/><path class="c" d="M237.059,82.834l-.646,1.121.646,1.12h1.295L239,83.955l-.646-1.119Z"/><path class="c" d="M242.234,82.834l-.646,1.121.646,1.12h1.295l.646-1.121-.646-1.119Z"/><path class="c" d="M247.412,82.834l-.646,1.121.646,1.12h1.295l.646-1.121-.646-1.119Z"/><path class="c" d="M252.59,82.834l-.646,1.121.646,1.12h1.295l.646-1.121-.646-1.119Z"/><path class="c" d="M262.963,82.834l-.646,1.121.646,1.12h1.295l.646-1.121-.646-1.119Z"/><path class="c" d="M288.822,82.834l-.646,1.121.646,1.12h1.295l.646-1.121-.646-1.119Z"/><path class="c" d="M268.141,82.834l-.646,1.121.646,1.12h1.295l.647-1.121-.647-1.119Z"/><path class="c" d="M273.316,82.834l-.647,1.121.647,1.12h1.295l.647-1.121-.647-1.119Z"/><path class="c" d="M278.494,82.834l-.647,1.121.647,1.12h1.295l.646-1.121-.646-1.119Z"/><path class="c" d="M283.672,82.834l-.647,1.121.647,1.12h1.295l.647-1.121-.647-1.119Z"/><path class="c" d="M294.259,82.834l-.646,1.121.646,1.12h1.295l.646-1.121-.646-1.119Z"/><path class="c" d="M294.259,82.834l-.646,1.121.646,1.12h1.295l.646-1.121-.646-1.119Z"/><path class="c" d="M320.118,82.834l-.646,1.121.646,1.12h1.295l.646-1.121-.646-1.119Z"/><path class="c" d="M299.436,82.834l-.646,1.121.646,1.12h1.295l.646-1.121-.646-1.119Z"/><path class="c" d="M304.612,82.834l-.647,1.121.647,1.12h1.295l.647-1.121-.647-1.119Z"/><path class="c" d="M309.79,82.834l-.647,1.121.647,1.12h1.295l.647-1.121-.647-1.119Z"/><path class="c" d="M314.968,82.834l-.647,1.121.647,1.12h1.295l.647-1.121-.647-1.119Z"/><path class="c" d="M325.315,82.834l-.646,1.121.646,1.12h1.295l.647-1.121-.647-1.119Z"/><path class="c" d="M351.175,82.834l-.647,1.121.647,1.12h1.295l.647-1.121-.647-1.119Z"/><path class="c" d="M330.493,82.834l-.646,1.121.646,1.12h1.295l.646-1.121-.646-1.119Z"/><path class="c" d="M335.669,82.834l-.647,1.121.647,1.12h1.295l.646-1.121-.646-1.119Z"/><path class="c" d="M340.847,82.834l-.647,1.121.647,1.12h1.295l.646-1.121-.646-1.119Z"/><path class="c" d="M346.024,82.834l-.647,1.121.647,1.12h1.295l.646-1.121-.646-1.119Z"/><path class="c" d="M356.329,82.834l-.647,1.121.647,1.12h1.295l.647-1.121-.647-1.119Z"/><path class="c" d="M382.189,82.834l-.647,1.121.647,1.12h1.295l.647-1.121-.647-1.119Z"/><path class="c" d="M361.507,82.834l-.647,1.121.647,1.12H362.8l.647-1.121-.647-1.119Z"/><path class="c" d="M366.683,82.834l-.646,1.121.646,1.12h1.295l.646-1.121-.646-1.119Z"/><path class="c" d="M371.86,82.834l-.646,1.121.646,1.12h1.3l.646-1.121-.646-1.119Z"/><path class="c" d="M377.038,82.834l-.646,1.121.646,1.12h1.295l.646-1.121-.646-1.119Z"/><path class="c" d="M387.411,82.834l-.647,1.121.647,1.12h1.295l.647-1.121-.647-1.119Z"/><path class="c" d="M413.271,82.834l-.647,1.121.647,1.12h1.295l.647-1.121-.647-1.119Z"/><path class="c" d="M392.589,82.834l-.646,1.121.646,1.12h1.295l.647-1.121-.647-1.119Z"/><path class="c" d="M397.765,82.834l-.646,1.121.646,1.12h1.295l.646-1.121-.646-1.119Z"/><path class="c" d="M402.942,82.834l-.647,1.121.647,1.12h1.295l.646-1.121-.646-1.119Z"/><path class="c" d="M408.12,82.834l-.646,1.121.646,1.12h1.295l.646-1.121-.646-1.119Z"/><path class="c" d="M418.744,82.834l-.647,1.121.647,1.12h1.295l.646-1.121-.646-1.119Z"/><path class="c" d="M418.744,82.834l-.647,1.121.647,1.12h1.295l.646-1.121-.646-1.119Z"/><path class="c" d="M444.6,82.834l-.647,1.121.647,1.12H445.9l.647-1.121-.647-1.119Z"/><path class="c" d="M423.922,82.834l-.647,1.121.647,1.12h1.295l.647-1.121-.647-1.119Z"/><path class="c" d="M429.1,82.834l-.647,1.121.647,1.12h1.295l.646-1.121-.646-1.119Z"/><path class="c" d="M434.275,82.834l-.646,1.121.646,1.12h1.295l.646-1.121-.646-1.119Z"/><path class="c" d="M439.453,82.834l-.646,1.121.646,1.12h1.295l.647-1.121-.647-1.119Z"/><path class="c" d="M449.8,82.834l-.647,1.121.647,1.12H451.1l.646-1.121-.646-1.119Z"/><path class="c" d="M454.978,82.834l-.646,1.121.646,1.12h1.295l.646-1.121-.646-1.119Z"/></g><g transform="translate(700.836 -82.834)"><path class="c" d="M169.811,82.834l-.646,1.121.646,1.12h1.295l.647-1.121-.647-1.119Z"/><path class="c" d="M169.811,82.834l-.646,1.121.646,1.12h1.295l.647-1.121-.647-1.119Z"/><path class="c" d="M195.669,82.834l-.646,1.121.646,1.12h1.295l.646-1.121-.646-1.119Z"/><path class="c" d="M174.988,82.834l-.646,1.121.646,1.12h1.295l.646-1.121-.646-1.119Z"/><path class="c" d="M180.164,82.834l-.646,1.121.646,1.12h1.295l.646-1.121-.646-1.119Z"/><path class="c" d="M185.342,82.834l-.646,1.121.646,1.12h1.295l.646-1.121-.646-1.119Z"/><path class="c" d="M190.52,82.834l-.646,1.121.646,1.12h1.295l.646-1.121-.646-1.119Z"/><path class="c" d="M200.868,82.834l-.646,1.121.646,1.12h1.295l.646-1.121-.646-1.119Z"/><path class="c" d="M226.727,82.834l-.646,1.121.646,1.12h1.295l.646-1.121-.646-1.119Z"/><path class="c" d="M206.045,82.834l-.646,1.121.646,1.12h1.295l.646-1.121-.646-1.119Z"/><path class="c" d="M211.221,82.834l-.646,1.121.646,1.12h1.295l.646-1.121-.646-1.119Z"/><path class="c" d="M216.4,82.834l-.646,1.121.646,1.12h1.295l.646-1.121-.646-1.119Z"/><path class="c" d="M221.576,82.834l-.646,1.121.646,1.12h1.295l.646-1.121-.646-1.119Z"/><path class="c" d="M231.881,82.834l-.646,1.121.646,1.12h1.295l.646-1.121-.646-1.119Z"/><path class="c" d="M257.74,82.834l-.647,1.121.647,1.12h1.295l.647-1.121-.647-1.119Z"/><path class="c" d="M237.059,82.834l-.646,1.121.646,1.12h1.295L239,83.955l-.646-1.119Z"/><path class="c" d="M242.234,82.834l-.646,1.121.646,1.12h1.295l.646-1.121-.646-1.119Z"/><path class="c" d="M247.412,82.834l-.646,1.121.646,1.12h1.295l.646-1.121-.646-1.119Z"/><path class="c" d="M252.59,82.834l-.646,1.121.646,1.12h1.295l.646-1.121-.646-1.119Z"/><path class="c" d="M262.963,82.834l-.646,1.121.646,1.12h1.295l.646-1.121-.646-1.119Z"/><path class="c" d="M288.822,82.834l-.646,1.121.646,1.12h1.295l.646-1.121-.646-1.119Z"/><path class="c" d="M268.141,82.834l-.646,1.121.646,1.12h1.295l.647-1.121-.647-1.119Z"/><path class="c" d="M273.316,82.834l-.647,1.121.647,1.12h1.295l.647-1.121-.647-1.119Z"/><path class="c" d="M278.494,82.834l-.647,1.121.647,1.12h1.295l.646-1.121-.646-1.119Z"/><path class="c" d="M283.672,82.834l-.647,1.121.647,1.12h1.295l.647-1.121-.647-1.119Z"/><path class="c" d="M294.259,82.834l-.646,1.121.646,1.12h1.295l.646-1.121-.646-1.119Z"/><path class="c" d="M294.259,82.834l-.646,1.121.646,1.12h1.295l.646-1.121-.646-1.119Z"/><path class="c" d="M320.118,82.834l-.646,1.121.646,1.12h1.295l.646-1.121-.646-1.119Z"/><path class="c" d="M299.436,82.834l-.646,1.121.646,1.12h1.295l.646-1.121-.646-1.119Z"/><path class="c" d="M304.612,82.834l-.647,1.121.647,1.12h1.295l.647-1.121-.647-1.119Z"/><path class="c" d="M309.79,82.834l-.647,1.121.647,1.12h1.295l.647-1.121-.647-1.119Z"/><path class="c" d="M314.968,82.834l-.647,1.121.647,1.12h1.295l.647-1.121-.647-1.119Z"/><path class="c" d="M325.315,82.834l-.646,1.121.646,1.12h1.295l.647-1.121-.647-1.119Z"/><path class="c" d="M351.175,82.834l-.647,1.121.647,1.12h1.295l.647-1.121-.647-1.119Z"/><path class="c" d="M330.493,82.834l-.646,1.121.646,1.12h1.295l.646-1.121-.646-1.119Z"/><path class="c" d="M335.669,82.834l-.647,1.121.647,1.12h1.295l.646-1.121-.646-1.119Z"/><path class="c" d="M340.847,82.834l-.647,1.121.647,1.12h1.295l.646-1.121-.646-1.119Z"/><path class="c" d="M346.024,82.834l-.647,1.121.647,1.12h1.295l.646-1.121-.646-1.119Z"/><path class="c" d="M356.329,82.834l-.647,1.121.647,1.12h1.295l.647-1.121-.647-1.119Z"/><path class="c" d="M382.189,82.834l-.647,1.121.647,1.12h1.295l.647-1.121-.647-1.119Z"/><path class="c" d="M361.507,82.834l-.647,1.121.647,1.12H362.8l.647-1.121-.647-1.119Z"/><path class="c" d="M366.683,82.834l-.646,1.121.646,1.12h1.295l.646-1.121-.646-1.119Z"/><path class="c" d="M371.86,82.834l-.646,1.121.646,1.12h1.3l.646-1.121-.646-1.119Z"/><path class="c" d="M377.038,82.834l-.646,1.121.646,1.12h1.295l.646-1.121-.646-1.119Z"/><path class="c" d="M387.411,82.834l-.647,1.121.647,1.12h1.295l.647-1.121-.647-1.119Z"/><path class="c" d="M413.271,82.834l-.647,1.121.647,1.12h1.295l.647-1.121-.647-1.119Z"/><path class="c" d="M392.589,82.834l-.646,1.121.646,1.12h1.295l.647-1.121-.647-1.119Z"/><path class="c" d="M397.765,82.834l-.646,1.121.646,1.12h1.295l.646-1.121-.646-1.119Z"/><path class="c" d="M402.942,82.834l-.647,1.121.647,1.12h1.295l.646-1.121-.646-1.119Z"/><path class="c" d="M408.12,82.834l-.646,1.121.646,1.12h1.295l.646-1.121-.646-1.119Z"/><path class="c" d="M418.744,82.834l-.647,1.121.647,1.12h1.295l.646-1.121-.646-1.119Z"/><path class="c" d="M418.744,82.834l-.647,1.121.647,1.12h1.295l.646-1.121-.646-1.119Z"/><path class="c" d="M444.6,82.834l-.647,1.121.647,1.12H445.9l.647-1.121-.647-1.119Z"/><path class="c" d="M423.922,82.834l-.647,1.121.647,1.12h1.295l.647-1.121-.647-1.119Z"/><path class="c" d="M429.1,82.834l-.647,1.121.647,1.12h1.295l.646-1.121-.646-1.119Z"/><path class="c" d="M434.275,82.834l-.646,1.121.646,1.12h1.295l.646-1.121-.646-1.119Z"/><path class="c" d="M439.453,82.834l-.646,1.121.646,1.12h1.295l.647-1.121-.647-1.119Z"/><path class="c" d="M449.8,82.834l-.647,1.121.647,1.12H451.1l.646-1.121-.646-1.119Z"/><path class="c" d="M454.978,82.834l-.646,1.121.646,1.12h1.295l.646-1.121-.646-1.119Z"/></g></g></svg>