<svg xmlns="http://www.w3.org/2000/svg" xmlns:xlink="http://www.w3.org/1999/xlink" width="1088.92" height="88.221" viewBox="0 0 1088.92 88.221"><defs><style>.a{fill:none;}.b{fill:#8acedf;}.c{fill:url(#a);}.d{fill:#ff64aa;}.e{clip-path:url(#h);}</style><linearGradient id="a" x1="0.5" y1="1" x2="0.5" gradientUnits="objectBoundingBox"><stop offset="0" stop-color="#8ad3e5"/><stop offset="1" stop-color="#f24ea0"/></linearGradient><clipPath id="h"><rect class="a" width="942.756" height="2.242"/></clipPath></defs><g transform="translate(-23 -7)"><path class="b" d="M37.293,83.7c0-2.287.484-3.738,2.875-3.738a3.871,3.871,0,0,1,1.778.366l-.524,1.058a2.594,2.594,0,0,0-1.2-.274c-1.359,0-1.686.9-1.686,2.613s.3,2.652,1.7,2.652a3.075,3.075,0,0,0,1.346-.338l.469.94a3.942,3.942,0,0,1-1.946.47C37.789,87.449,37.293,86,37.293,83.7Z"/><path class="b" d="M42.547,83.7c0-2.144.444-3.738,2.9-3.738s2.9,1.62,2.9,3.738c0,2.18-.431,3.749-2.9,3.749C43.018,87.449,42.547,85.869,42.547,83.7Zm4.573.038c0-1.5-.157-2.626-1.672-2.626s-1.673,1.124-1.673,2.626.17,2.639,1.673,2.639S47.12,85.242,47.12,83.738Z"/><path class="b" d="M49.538,80.158l.98-.078.1.718c.275-.5.8-.836,2.13-.836,1.254,0,1.569.366,1.75.863.3-.524.9-.863,2.249-.863,1.881,0,2.025,1.084,2.025,2.665v4.718H57.561V82.9c0-1.163-.053-1.778-1.242-1.778-1.332,0-1.555.72-1.555,2.4v3.816H53.549V82.9c0-1.163-.052-1.778-1.228-1.778-1.346,0-1.581.733-1.581,2.4v3.816h-1.2Z"/><path class="b" d="M60.071,80.158l.979-.078.1.718c.275-.5.8-.836,2.13-.836,1.254,0,1.567.366,1.751.863.3-.524.9-.863,2.247-.863,1.881,0,2.025,1.084,2.025,2.665v4.718H68.092V82.9c0-1.163-.051-1.778-1.24-1.778-1.333,0-1.556.72-1.556,2.4v3.816H64.082V82.9c0-1.163-.052-1.778-1.228-1.778-1.346,0-1.582.733-1.582,2.4v3.816h-1.2Z"/><path class="b" d="M70.563,84.653v-4.56h1.228v4.494c0,1.176.119,1.765,1.425,1.765,1.267,0,1.4-.589,1.4-1.765V80.093h1.2v4.56c0,1.895-.419,2.8-2.627,2.8C71.034,87.449,70.563,86.548,70.563,84.653Z"/><path class="b" d="M77.241,80.158l.98-.078.106.718c.3-.5.861-.836,2.181-.836,1.856,0,2.1,1.084,2.1,2.665v4.718H81.383V82.9c0-1.163-.117-1.778-1.294-1.778-1.411,0-1.62.8-1.62,2.4v3.816H77.241Z"/><path class="b" d="M84.062,77.728H85.3v1.477H84.062Zm0,2.365h1.229v7.252H84.062Z"/><path class="b" d="M86.532,83.7c0-2.287.484-3.738,2.875-3.738a3.869,3.869,0,0,1,1.777.366l-.523,1.058a2.6,2.6,0,0,0-1.2-.274c-1.358,0-1.684.9-1.684,2.613s.3,2.652,1.7,2.652a3.067,3.067,0,0,0,1.346-.338l.47.94a3.943,3.943,0,0,1-1.947.47C87.029,87.449,86.532,86,86.532,83.7Z"/><path class="b" d="M91.928,85.163c0-2.1,1.242-2.653,3.725-2.653h.3c-.027-.954-.236-1.437-1.282-1.437a4.028,4.028,0,0,0-1.789.392l-.51-1.007a5.379,5.379,0,0,1,2.418-.509c1.934,0,2.365.8,2.365,2.561v3.057c0,.561.039.706.561.706v1.072a2.845,2.845,0,0,1-.34.013c-.783,0-1.11-.157-1.241-.693a2.327,2.327,0,0,1-2.052.757C92.465,87.422,91.928,86.574,91.928,85.163Zm4.026-.628V83.517h-.288c-1.8,0-2.574.208-2.574,1.527,0,1.046.444,1.36,1.241,1.36C95.208,86.4,95.954,86.025,95.954,84.535Z"/><path class="b" d="M98.4,80.093h1.15l.2-1.921.993-.222v2.143h1.7v1.072h-1.7v4.128c0,.641.092.98.888.98h.81v1.072c-.183.013-.783.038-.94.038-1.621,0-1.986-.614-1.986-1.972V81.165H98.4Z"/><path class="b" d="M103.7,77.728h1.241v1.477H103.7Zm0,2.365h1.227v7.252H103.7Z"/><path class="b" d="M106.172,83.7c0-2.144.445-3.738,2.9-3.738s2.9,1.62,2.9,3.738c0,2.18-.431,3.749-2.9,3.749C106.643,87.449,106.172,85.869,106.172,83.7Zm4.575.038c0-1.5-.158-2.626-1.673-2.626s-1.673,1.124-1.673,2.626.17,2.639,1.673,2.639S110.747,85.242,110.747,83.738Z"/><path class="b" d="M113.163,80.158l.98-.078.1.718c.3-.5.864-.836,2.183-.836,1.856,0,2.1,1.084,2.1,2.665v4.718h-1.229V82.9c0-1.163-.117-1.778-1.293-1.778-1.412,0-1.62.8-1.62,2.4v3.816h-1.229Z"/><path class="b" d="M119.422,86.953l.485-.967a4.2,4.2,0,0,0,1.92.444c.771,0,1.214-.3,1.214-.968s-.43-.914-1.5-1.384c-1.2-.523-1.894-.981-1.894-2.143,0-1.359.862-1.973,2.313-1.973a4.457,4.457,0,0,1,1.972.366l-.483,1.019a3.706,3.706,0,0,0-1.529-.313c-.81,0-1.1.326-1.1.875,0,.575.391.809,1.411,1.255,1.267.536,1.96.966,1.96,2.286,0,1.358-.889,1.986-2.365,1.986A5.436,5.436,0,0,1,119.422,86.953Z"/><path class="c" d="M38.034,75h9.285V71.908H42.161V47.143h4.127v-3.1H42.161V22.378h5.158v-3.1H38.034Z"/><path class="c" d="M53.882,71.908V19.283H49.754V75H58.01V71.908Z"/><path class="c" d="M61.477,75h8.255V71.908H65.6V50.239h4.128v-3.1H65.6V28.569h4.128V25.474H61.477Z"/><path class="c" d="M79.389,55.4l-3.58-29.924H72.166V75h3.611V45.079l2.806,27.86h1.611L83,45.079V75h3.611V25.474H82.969Z"/><path class="c" d="M90.079,75h8.255V71.908H94.206V50.239h4.127v-3.1H94.206V28.569h4.127V25.474H90.079Z"/><path class="c" d="M109.573,54.4l-5.708-28.924h-3.1V75h3.612V46.249L110.055,75h3.1V25.474h-3.578Z"/><path class="c" d="M115.071,25.474v3.095H119.2V75h4.128V28.569h4.128V25.474Z"/><path class="d" d="M146.136,83.953l.648-1.119h1.294l.645,1.12-.645,1.121h-1.295Z"/><path class="d" d="M144.2,81.14l-.648,1.121.648,1.119h1.293l.646-1.12-.646-1.12Z"/><path class="d" d="M144.2,84.524l-.648,1.121.648,1.119h1.294l.645-1.12-.644-1.12Z"/><path class="d" d="M142.9,79.449l-1.3,0-.646,1.121.645,1.121H142.9l.647-1.121Z"/><path class="d" d="M142.9,82.831h-1.295l-.646,1.12.646,1.12H142.9l.645-1.12Z"/><path class="d" d="M141.607,86.214l-.646,1.121.645,1.12H142.9l.646-1.121-.646-1.119Z"/><path class="d" d="M140.317,77.755h-1.293l-.648,1.12L139.023,80h1.294l.646-1.119Z"/><path class="d" d="M140.317,81.139h-1.294l-.648,1.12.647,1.12h1.294l.645-1.119Z"/><path class="d" d="M140.315,84.524h-1.293l-.648,1.121.647,1.119h1.294l.646-1.12Z"/><path class="d" d="M139.02,87.907l-.648,1.121.648,1.119h1.293l.646-1.12-.645-1.12Z"/><path class="d" d="M137.729,76.062h-1.293l-.647,1.12.645,1.121h1.295l.646-1.119Z"/><path class="d" d="M137.728,79.447h-1.294l-.646,1.118.646,1.123h1.294l.648-1.121Z"/><path class="d" d="M137.727,82.829h-1.294l-.648,1.121.646,1.121h1.295l.646-1.12Z"/><path class="d" d="M136.431,86.214l-.646,1.118.646,1.122h1.293l.649-1.12-.648-1.12Z"/><path class="d" d="M136.431,89.6l-.647,1.12.646,1.121h1.294l.647-1.12-.647-1.121Z"/><path class="d" d="M135.141,76.611l.648-1.121-.646-1.12H133.85l-.648,1.12.648,1.121Z"/><path class="d" d="M135.14,79.994l.648-1.121-.648-1.119h-1.293l-.647,1.119.647,1.121Z"/><path class="d" d="M135.139,83.377l.648-1.12-.647-1.12h-1.292l-.648,1.12.647,1.12Z"/><path class="d" d="M135.138,86.762l.647-1.12-.646-1.121h-1.293L133.2,85.64l.649,1.122Z"/><path class="d" d="M135.136,90.146l.648-1.121-.647-1.12h-1.292l-.648,1.12.646,1.121Z"/><path class="d" d="M133.844,91.289l-.648,1.119.647,1.121h1.293l.648-1.119-.648-1.121Z"/><path class="d" d="M132.556,72.677h-1.294l-.648,1.121.648,1.12h1.293L133.2,73.8Z"/><path class="d" d="M132.555,76.061h-1.293l-.649,1.121.648,1.119,1.294,0,.645-1.121Z"/><path class="d" d="M132.554,79.445H131.26l-.648,1.12.647,1.122h1.294l.647-1.121Z"/><path class="d" d="M132.553,82.828h-1.294l-.647,1.121.647,1.12,1.294,0,.645-1.121Z"/><path class="d" d="M132.552,86.211h-1.294l-.648,1.12.648,1.121h1.293l.646-1.121Z"/><path class="d" d="M132.551,89.6h-1.293l-.649,1.12.647,1.121h1.295l.646-1.121Z"/><path class="d" d="M131.256,92.979l-.648,1.12.647,1.121h1.294L133.2,94.1l-.646-1.12Z"/><g class="e" transform="translate(169.164 82.834)"><g transform="translate(-169.164 -82.834)"><path class="d" d="M169.811,82.834l-.646,1.121.646,1.12h1.295l.647-1.121-.647-1.119Z"/><path class="d" d="M169.811,82.834l-.646,1.121.646,1.12h1.295l.647-1.121-.647-1.119Z"/><path class="d" d="M195.669,82.834l-.646,1.121.646,1.12h1.295l.646-1.121-.646-1.119Z"/><path class="d" d="M174.988,82.834l-.646,1.121.646,1.12h1.295l.646-1.121-.646-1.119Z"/><path class="d" d="M180.164,82.834l-.646,1.121.646,1.12h1.295l.646-1.121-.646-1.119Z"/><path class="d" d="M185.342,82.834l-.646,1.121.646,1.12h1.295l.646-1.121-.646-1.119Z"/><path class="d" d="M190.52,82.834l-.646,1.121.646,1.12h1.295l.646-1.121-.646-1.119Z"/><path class="d" d="M200.868,82.834l-.646,1.121.646,1.12h1.295l.646-1.121-.646-1.119Z"/><path class="d" d="M226.727,82.834l-.646,1.121.646,1.12h1.295l.646-1.121-.646-1.119Z"/><path class="d" d="M206.045,82.834l-.646,1.121.646,1.12h1.295l.646-1.121-.646-1.119Z"/><path class="d" d="M211.221,82.834l-.646,1.121.646,1.12h1.295l.646-1.121-.646-1.119Z"/><path class="d" d="M216.4,82.834l-.646,1.121.646,1.12h1.295l.646-1.121-.646-1.119Z"/><path class="d" d="M221.576,82.834l-.646,1.121.646,1.12h1.295l.646-1.121-.646-1.119Z"/><path class="d" d="M231.881,82.834l-.646,1.121.646,1.12h1.295l.646-1.121-.646-1.119Z"/><path class="d" d="M257.74,82.834l-.647,1.121.647,1.12h1.295l.647-1.121-.647-1.119Z"/><path class="d" d="M237.059,82.834l-.646,1.121.646,1.12h1.295L239,83.955l-.646-1.119Z"/><path class="d" d="M242.234,82.834l-.646,1.121.646,1.12h1.295l.646-1.121-.646-1.119Z"/><path class="d" d="M247.412,82.834l-.646,1.121.646,1.12h1.295l.646-1.121-.646-1.119Z"/><path class="d" d="M252.59,82.834l-.646,1.121.646,1.12h1.295l.646-1.121-.646-1.119Z"/><path class="d" d="M262.963,82.834l-.646,1.121.646,1.12h1.295l.646-1.121-.646-1.119Z"/><path class="d" d="M288.822,82.834l-.646,1.121.646,1.12h1.295l.646-1.121-.646-1.119Z"/><path class="d" d="M268.141,82.834l-.646,1.121.646,1.12h1.295l.647-1.121-.647-1.119Z"/><path class="d" d="M273.316,82.834l-.647,1.121.647,1.12h1.295l.647-1.121-.647-1.119Z"/><path class="d" d="M278.494,82.834l-.647,1.121.647,1.12h1.295l.646-1.121-.646-1.119Z"/><path class="d" d="M283.672,82.834l-.647,1.121.647,1.12h1.295l.647-1.121-.647-1.119Z"/><path class="d" d="M294.259,82.834l-.646,1.121.646,1.12h1.295l.646-1.121-.646-1.119Z"/><path class="d" d="M294.259,82.834l-.646,1.121.646,1.12h1.295l.646-1.121-.646-1.119Z"/><path class="d" d="M320.118,82.834l-.646,1.121.646,1.12h1.295l.646-1.121-.646-1.119Z"/><path class="d" d="M299.436,82.834l-.646,1.121.646,1.12h1.295l.646-1.121-.646-1.119Z"/><path class="d" d="M304.612,82.834l-.647,1.121.647,1.12h1.295l.647-1.121-.647-1.119Z"/><path class="d" d="M309.79,82.834l-.647,1.121.647,1.12h1.295l.647-1.121-.647-1.119Z"/><path class="d" d="M314.968,82.834l-.647,1.121.647,1.12h1.295l.647-1.121-.647-1.119Z"/><path class="d" d="M325.315,82.834l-.646,1.121.646,1.12h1.295l.647-1.121-.647-1.119Z"/><path class="d" d="M351.175,82.834l-.647,1.121.647,1.12h1.295l.647-1.121-.647-1.119Z"/><path class="d" d="M330.493,82.834l-.646,1.121.646,1.12h1.295l.646-1.121-.646-1.119Z"/><path class="d" d="M335.669,82.834l-.647,1.121.647,1.12h1.295l.646-1.121-.646-1.119Z"/><path class="d" d="M340.847,82.834l-.647,1.121.647,1.12h1.295l.646-1.121-.646-1.119Z"/><path class="d" d="M346.024,82.834l-.647,1.121.647,1.12h1.295l.646-1.121-.646-1.119Z"/><path class="d" d="M356.329,82.834l-.647,1.121.647,1.12h1.295l.647-1.121-.647-1.119Z"/><path class="d" d="M382.189,82.834l-.647,1.121.647,1.12h1.295l.647-1.121-.647-1.119Z"/><path class="d" d="M361.507,82.834l-.647,1.121.647,1.12H362.8l.647-1.121-.647-1.119Z"/><path class="d" d="M366.683,82.834l-.646,1.121.646,1.12h1.295l.646-1.121-.646-1.119Z"/><path class="d" d="M371.86,82.834l-.646,1.121.646,1.12h1.3l.646-1.121-.646-1.119Z"/><path class="d" d="M377.038,82.834l-.646,1.121.646,1.12h1.295l.646-1.121-.646-1.119Z"/><path class="d" d="M387.411,82.834l-.647,1.121.647,1.12h1.295l.647-1.121-.647-1.119Z"/><path class="d" d="M413.271,82.834l-.647,1.121.647,1.12h1.295l.647-1.121-.647-1.119Z"/><path class="d" d="M392.589,82.834l-.646,1.121.646,1.12h1.295l.647-1.121-.647-1.119Z"/><path class="d" d="M397.765,82.834l-.646,1.121.646,1.12h1.295l.646-1.121-.646-1.119Z"/><path class="d" d="M402.942,82.834l-.647,1.121.647,1.12h1.295l.646-1.121-.646-1.119Z"/><path class="d" d="M408.12,82.834l-.646,1.121.646,1.12h1.295l.646-1.121-.646-1.119Z"/><path class="d" d="M418.744,82.834l-.647,1.121.647,1.12h1.295l.646-1.121-.646-1.119Z"/><path class="d" d="M418.744,82.834l-.647,1.121.647,1.12h1.295l.646-1.121-.646-1.119Z"/><path class="d" d="M444.6,82.834l-.647,1.121.647,1.12H445.9l.647-1.121-.647-1.119Z"/><path class="d" d="M423.922,82.834l-.647,1.121.647,1.12h1.295l.647-1.121-.647-1.119Z"/><path class="d" d="M429.1,82.834l-.647,1.121.647,1.12h1.295l.646-1.121-.646-1.119Z"/><path class="d" d="M434.275,82.834l-.646,1.121.646,1.12h1.295l.646-1.121-.646-1.119Z"/><path class="d" d="M439.453,82.834l-.646,1.121.646,1.12h1.295l.647-1.121-.647-1.119Z"/><path class="d" d="M449.8,82.834l-.647,1.121.647,1.12H451.1l.646-1.121-.646-1.119Z"/><path class="d" d="M454.978,82.834l-.646,1.121.646,1.12h1.295l.646-1.121-.646-1.119Z"/></g><g transform="translate(120.836 -82.834)"><path class="d" d="M169.811,82.834l-.646,1.121.646,1.12h1.295l.647-1.121-.647-1.119Z"/><path class="d" d="M169.811,82.834l-.646,1.121.646,1.12h1.295l.647-1.121-.647-1.119Z"/><path class="d" d="M195.669,82.834l-.646,1.121.646,1.12h1.295l.646-1.121-.646-1.119Z"/><path class="d" d="M174.988,82.834l-.646,1.121.646,1.12h1.295l.646-1.121-.646-1.119Z"/><path class="d" d="M180.164,82.834l-.646,1.121.646,1.12h1.295l.646-1.121-.646-1.119Z"/><path class="d" d="M185.342,82.834l-.646,1.121.646,1.12h1.295l.646-1.121-.646-1.119Z"/><path class="d" d="M190.52,82.834l-.646,1.121.646,1.12h1.295l.646-1.121-.646-1.119Z"/><path class="d" d="M200.868,82.834l-.646,1.121.646,1.12h1.295l.646-1.121-.646-1.119Z"/><path class="d" d="M226.727,82.834l-.646,1.121.646,1.12h1.295l.646-1.121-.646-1.119Z"/><path class="d" d="M206.045,82.834l-.646,1.121.646,1.12h1.295l.646-1.121-.646-1.119Z"/><path class="d" d="M211.221,82.834l-.646,1.121.646,1.12h1.295l.646-1.121-.646-1.119Z"/><path class="d" d="M216.4,82.834l-.646,1.121.646,1.12h1.295l.646-1.121-.646-1.119Z"/><path class="d" d="M221.576,82.834l-.646,1.121.646,1.12h1.295l.646-1.121-.646-1.119Z"/><path class="d" d="M231.881,82.834l-.646,1.121.646,1.12h1.295l.646-1.121-.646-1.119Z"/><path class="d" d="M257.74,82.834l-.647,1.121.647,1.12h1.295l.647-1.121-.647-1.119Z"/><path class="d" d="M237.059,82.834l-.646,1.121.646,1.12h1.295L239,83.955l-.646-1.119Z"/><path class="d" d="M242.234,82.834l-.646,1.121.646,1.12h1.295l.646-1.121-.646-1.119Z"/><path class="d" d="M247.412,82.834l-.646,1.121.646,1.12h1.295l.646-1.121-.646-1.119Z"/><path class="d" d="M252.59,82.834l-.646,1.121.646,1.12h1.295l.646-1.121-.646-1.119Z"/><path class="d" d="M262.963,82.834l-.646,1.121.646,1.12h1.295l.646-1.121-.646-1.119Z"/><path class="d" d="M288.822,82.834l-.646,1.121.646,1.12h1.295l.646-1.121-.646-1.119Z"/><path class="d" d="M268.141,82.834l-.646,1.121.646,1.12h1.295l.647-1.121-.647-1.119Z"/><path class="d" d="M273.316,82.834l-.647,1.121.647,1.12h1.295l.647-1.121-.647-1.119Z"/><path class="d" d="M278.494,82.834l-.647,1.121.647,1.12h1.295l.646-1.121-.646-1.119Z"/><path class="d" d="M283.672,82.834l-.647,1.121.647,1.12h1.295l.647-1.121-.647-1.119Z"/><path class="d" d="M294.259,82.834l-.646,1.121.646,1.12h1.295l.646-1.121-.646-1.119Z"/><path class="d" d="M294.259,82.834l-.646,1.121.646,1.12h1.295l.646-1.121-.646-1.119Z"/><path class="d" d="M320.118,82.834l-.646,1.121.646,1.12h1.295l.646-1.121-.646-1.119Z"/><path class="d" d="M299.436,82.834l-.646,1.121.646,1.12h1.295l.646-1.121-.646-1.119Z"/><path class="d" d="M304.612,82.834l-.647,1.121.647,1.12h1.295l.647-1.121-.647-1.119Z"/><path class="d" d="M309.79,82.834l-.647,1.121.647,1.12h1.295l.647-1.121-.647-1.119Z"/><path class="d" d="M314.968,82.834l-.647,1.121.647,1.12h1.295l.647-1.121-.647-1.119Z"/><path class="d" d="M325.315,82.834l-.646,1.121.646,1.12h1.295l.647-1.121-.647-1.119Z"/><path class="d" d="M351.175,82.834l-.647,1.121.647,1.12h1.295l.647-1.121-.647-1.119Z"/><path class="d" d="M330.493,82.834l-.646,1.121.646,1.12h1.295l.646-1.121-.646-1.119Z"/><path class="d" d="M335.669,82.834l-.647,1.121.647,1.12h1.295l.646-1.121-.646-1.119Z"/><path class="d" d="M340.847,82.834l-.647,1.121.647,1.12h1.295l.646-1.121-.646-1.119Z"/><path class="d" d="M346.024,82.834l-.647,1.121.647,1.12h1.295l.646-1.121-.646-1.119Z"/><path class="d" d="M356.329,82.834l-.647,1.121.647,1.12h1.295l.647-1.121-.647-1.119Z"/><path class="d" d="M382.189,82.834l-.647,1.121.647,1.12h1.295l.647-1.121-.647-1.119Z"/><path class="d" d="M361.507,82.834l-.647,1.121.647,1.12H362.8l.647-1.121-.647-1.119Z"/><path class="d" d="M366.683,82.834l-.646,1.121.646,1.12h1.295l.646-1.121-.646-1.119Z"/><path class="d" d="M371.86,82.834l-.646,1.121.646,1.12h1.3l.646-1.121-.646-1.119Z"/><path class="d" d="M377.038,82.834l-.646,1.121.646,1.12h1.295l.646-1.121-.646-1.119Z"/><path class="d" d="M387.411,82.834l-.647,1.121.647,1.12h1.295l.647-1.121-.647-1.119Z"/><path class="d" d="M413.271,82.834l-.647,1.121.647,1.12h1.295l.647-1.121-.647-1.119Z"/><path class="d" d="M392.589,82.834l-.646,1.121.646,1.12h1.295l.647-1.121-.647-1.119Z"/><path class="d" d="M397.765,82.834l-.646,1.121.646,1.12h1.295l.646-1.121-.646-1.119Z"/><path class="d" d="M402.942,82.834l-.647,1.121.647,1.12h1.295l.646-1.121-.646-1.119Z"/><path class="d" d="M408.12,82.834l-.646,1.121.646,1.12h1.295l.646-1.121-.646-1.119Z"/><path class="d" d="M418.744,82.834l-.647,1.121.647,1.12h1.295l.646-1.121-.646-1.119Z"/><path class="d" d="M418.744,82.834l-.647,1.121.647,1.12h1.295l.646-1.121-.646-1.119Z"/><path class="d" d="M444.6,82.834l-.647,1.121.647,1.12H445.9l.647-1.121-.647-1.119Z"/><path class="d" d="M423.922,82.834l-.647,1.121.647,1.12h1.295l.647-1.121-.647-1.119Z"/><path class="d" d="M429.1,82.834l-.647,1.121.647,1.12h1.295l.646-1.121-.646-1.119Z"/><path class="d" d="M434.275,82.834l-.646,1.121.646,1.12h1.295l.646-1.121-.646-1.119Z"/><path class="d" d="M439.453,82.834l-.646,1.121.646,1.12h1.295l.647-1.121-.647-1.119Z"/><path class="d" d="M449.8,82.834l-.647,1.121.647,1.12H451.1l.646-1.121-.646-1.119Z"/><path class="d" d="M454.978,82.834l-.646,1.121.646,1.12h1.295l.646-1.121-.646-1.119Z"/></g><g transform="translate(410.836 -82.834)"><path class="d" d="M169.811,82.834l-.646,1.121.646,1.12h1.295l.647-1.121-.647-1.119Z"/><path class="d" d="M169.811,82.834l-.646,1.121.646,1.12h1.295l.647-1.121-.647-1.119Z"/><path class="d" d="M195.669,82.834l-.646,1.121.646,1.12h1.295l.646-1.121-.646-1.119Z"/><path class="d" d="M174.988,82.834l-.646,1.121.646,1.12h1.295l.646-1.121-.646-1.119Z"/><path class="d" d="M180.164,82.834l-.646,1.121.646,1.12h1.295l.646-1.121-.646-1.119Z"/><path class="d" d="M185.342,82.834l-.646,1.121.646,1.12h1.295l.646-1.121-.646-1.119Z"/><path class="d" d="M190.52,82.834l-.646,1.121.646,1.12h1.295l.646-1.121-.646-1.119Z"/><path class="d" d="M200.868,82.834l-.646,1.121.646,1.12h1.295l.646-1.121-.646-1.119Z"/><path class="d" d="M226.727,82.834l-.646,1.121.646,1.12h1.295l.646-1.121-.646-1.119Z"/><path class="d" d="M206.045,82.834l-.646,1.121.646,1.12h1.295l.646-1.121-.646-1.119Z"/><path class="d" d="M211.221,82.834l-.646,1.121.646,1.12h1.295l.646-1.121-.646-1.119Z"/><path class="d" d="M216.4,82.834l-.646,1.121.646,1.12h1.295l.646-1.121-.646-1.119Z"/><path class="d" d="M221.576,82.834l-.646,1.121.646,1.12h1.295l.646-1.121-.646-1.119Z"/><path class="d" d="M231.881,82.834l-.646,1.121.646,1.12h1.295l.646-1.121-.646-1.119Z"/><path class="d" d="M257.74,82.834l-.647,1.121.647,1.12h1.295l.647-1.121-.647-1.119Z"/><path class="d" d="M237.059,82.834l-.646,1.121.646,1.12h1.295L239,83.955l-.646-1.119Z"/><path class="d" d="M242.234,82.834l-.646,1.121.646,1.12h1.295l.646-1.121-.646-1.119Z"/><path class="d" d="M247.412,82.834l-.646,1.121.646,1.12h1.295l.646-1.121-.646-1.119Z"/><path class="d" d="M252.59,82.834l-.646,1.121.646,1.12h1.295l.646-1.121-.646-1.119Z"/><path class="d" d="M262.963,82.834l-.646,1.121.646,1.12h1.295l.646-1.121-.646-1.119Z"/><path class="d" d="M288.822,82.834l-.646,1.121.646,1.12h1.295l.646-1.121-.646-1.119Z"/><path class="d" d="M268.141,82.834l-.646,1.121.646,1.12h1.295l.647-1.121-.647-1.119Z"/><path class="d" d="M273.316,82.834l-.647,1.121.647,1.12h1.295l.647-1.121-.647-1.119Z"/><path class="d" d="M278.494,82.834l-.647,1.121.647,1.12h1.295l.646-1.121-.646-1.119Z"/><path class="d" d="M283.672,82.834l-.647,1.121.647,1.12h1.295l.647-1.121-.647-1.119Z"/><path class="d" d="M294.259,82.834l-.646,1.121.646,1.12h1.295l.646-1.121-.646-1.119Z"/><path class="d" d="M294.259,82.834l-.646,1.121.646,1.12h1.295l.646-1.121-.646-1.119Z"/><path class="d" d="M320.118,82.834l-.646,1.121.646,1.12h1.295l.646-1.121-.646-1.119Z"/><path class="d" d="M299.436,82.834l-.646,1.121.646,1.12h1.295l.646-1.121-.646-1.119Z"/><path class="d" d="M304.612,82.834l-.647,1.121.647,1.12h1.295l.647-1.121-.647-1.119Z"/><path class="d" d="M309.79,82.834l-.647,1.121.647,1.12h1.295l.647-1.121-.647-1.119Z"/><path class="d" d="M314.968,82.834l-.647,1.121.647,1.12h1.295l.647-1.121-.647-1.119Z"/><path class="d" d="M325.315,82.834l-.646,1.121.646,1.12h1.295l.647-1.121-.647-1.119Z"/><path class="d" d="M351.175,82.834l-.647,1.121.647,1.12h1.295l.647-1.121-.647-1.119Z"/><path class="d" d="M330.493,82.834l-.646,1.121.646,1.12h1.295l.646-1.121-.646-1.119Z"/><path class="d" d="M335.669,82.834l-.647,1.121.647,1.12h1.295l.646-1.121-.646-1.119Z"/><path class="d" d="M340.847,82.834l-.647,1.121.647,1.12h1.295l.646-1.121-.646-1.119Z"/><path class="d" d="M346.024,82.834l-.647,1.121.647,1.12h1.295l.646-1.121-.646-1.119Z"/><path class="d" d="M356.329,82.834l-.647,1.121.647,1.12h1.295l.647-1.121-.647-1.119Z"/><path class="d" d="M382.189,82.834l-.647,1.121.647,1.12h1.295l.647-1.121-.647-1.119Z"/><path class="d" d="M361.507,82.834l-.647,1.121.647,1.12H362.8l.647-1.121-.647-1.119Z"/><path class="d" d="M366.683,82.834l-.646,1.121.646,1.12h1.295l.646-1.121-.646-1.119Z"/><path class="d" d="M371.86,82.834l-.646,1.121.646,1.12h1.3l.646-1.121-.646-1.119Z"/><path class="d" d="M377.038,82.834l-.646,1.121.646,1.12h1.295l.646-1.121-.646-1.119Z"/><path class="d" d="M387.411,82.834l-.647,1.121.647,1.12h1.295l.647-1.121-.647-1.119Z"/><path class="d" d="M413.271,82.834l-.647,1.121.647,1.12h1.295l.647-1.121-.647-1.119Z"/><path class="d" d="M392.589,82.834l-.646,1.121.646,1.12h1.295l.647-1.121-.647-1.119Z"/><path class="d" d="M397.765,82.834l-.646,1.121.646,1.12h1.295l.646-1.121-.646-1.119Z"/><path class="d" d="M402.942,82.834l-.647,1.121.647,1.12h1.295l.646-1.121-.646-1.119Z"/><path class="d" d="M408.12,82.834l-.646,1.121.646,1.12h1.295l.646-1.121-.646-1.119Z"/><path class="d" d="M418.744,82.834l-.647,1.121.647,1.12h1.295l.646-1.121-.646-1.119Z"/><path class="d" d="M418.744,82.834l-.647,1.121.647,1.12h1.295l.646-1.121-.646-1.119Z"/><path class="d" d="M444.6,82.834l-.647,1.121.647,1.12H445.9l.647-1.121-.647-1.119Z"/><path class="d" d="M423.922,82.834l-.647,1.121.647,1.12h1.295l.647-1.121-.647-1.119Z"/><path class="d" d="M429.1,82.834l-.647,1.121.647,1.12h1.295l.646-1.121-.646-1.119Z"/><path class="d" d="M434.275,82.834l-.646,1.121.646,1.12h1.295l.646-1.121-.646-1.119Z"/><path class="d" d="M439.453,82.834l-.646,1.121.646,1.12h1.295l.647-1.121-.647-1.119Z"/><path class="d" d="M449.8,82.834l-.647,1.121.647,1.12H451.1l.646-1.121-.646-1.119Z"/><path class="d" d="M454.978,82.834l-.646,1.121.646,1.12h1.295l.646-1.121-.646-1.119Z"/></g><g transform="translate(700.836 -82.834)"><path class="d" d="M169.811,82.834l-.646,1.121.646,1.12h1.295l.647-1.121-.647-1.119Z"/><path class="d" d="M169.811,82.834l-.646,1.121.646,1.12h1.295l.647-1.121-.647-1.119Z"/><path class="d" d="M195.669,82.834l-.646,1.121.646,1.12h1.295l.646-1.121-.646-1.119Z"/><path class="d" d="M174.988,82.834l-.646,1.121.646,1.12h1.295l.646-1.121-.646-1.119Z"/><path class="d" d="M180.164,82.834l-.646,1.121.646,1.12h1.295l.646-1.121-.646-1.119Z"/><path class="d" d="M185.342,82.834l-.646,1.121.646,1.12h1.295l.646-1.121-.646-1.119Z"/><path class="d" d="M190.52,82.834l-.646,1.121.646,1.12h1.295l.646-1.121-.646-1.119Z"/><path class="d" d="M200.868,82.834l-.646,1.121.646,1.12h1.295l.646-1.121-.646-1.119Z"/><path class="d" d="M226.727,82.834l-.646,1.121.646,1.12h1.295l.646-1.121-.646-1.119Z"/><path class="d" d="M206.045,82.834l-.646,1.121.646,1.12h1.295l.646-1.121-.646-1.119Z"/><path class="d" d="M211.221,82.834l-.646,1.121.646,1.12h1.295l.646-1.121-.646-1.119Z"/><path class="d" d="M216.4,82.834l-.646,1.121.646,1.12h1.295l.646-1.121-.646-1.119Z"/><path class="d" d="M221.576,82.834l-.646,1.121.646,1.12h1.295l.646-1.121-.646-1.119Z"/><path class="d" d="M231.881,82.834l-.646,1.121.646,1.12h1.295l.646-1.121-.646-1.119Z"/><path class="d" d="M257.74,82.834l-.647,1.121.647,1.12h1.295l.647-1.121-.647-1.119Z"/><path class="d" d="M237.059,82.834l-.646,1.121.646,1.12h1.295L239,83.955l-.646-1.119Z"/><path class="d" d="M242.234,82.834l-.646,1.121.646,1.12h1.295l.646-1.121-.646-1.119Z"/><path class="d" d="M247.412,82.834l-.646,1.121.646,1.12h1.295l.646-1.121-.646-1.119Z"/><path class="d" d="M252.59,82.834l-.646,1.121.646,1.12h1.295l.646-1.121-.646-1.119Z"/><path class="d" d="M262.963,82.834l-.646,1.121.646,1.12h1.295l.646-1.121-.646-1.119Z"/><path class="d" d="M288.822,82.834l-.646,1.121.646,1.12h1.295l.646-1.121-.646-1.119Z"/><path class="d" d="M268.141,82.834l-.646,1.121.646,1.12h1.295l.647-1.121-.647-1.119Z"/><path class="d" d="M273.316,82.834l-.647,1.121.647,1.12h1.295l.647-1.121-.647-1.119Z"/><path class="d" d="M278.494,82.834l-.647,1.121.647,1.12h1.295l.646-1.121-.646-1.119Z"/><path class="d" d="M283.672,82.834l-.647,1.121.647,1.12h1.295l.647-1.121-.647-1.119Z"/><path class="d" d="M294.259,82.834l-.646,1.121.646,1.12h1.295l.646-1.121-.646-1.119Z"/><path class="d" d="M294.259,82.834l-.646,1.121.646,1.12h1.295l.646-1.121-.646-1.119Z"/><path class="d" d="M320.118,82.834l-.646,1.121.646,1.12h1.295l.646-1.121-.646-1.119Z"/><path class="d" d="M299.436,82.834l-.646,1.121.646,1.12h1.295l.646-1.121-.646-1.119Z"/><path class="d" d="M304.612,82.834l-.647,1.121.647,1.12h1.295l.647-1.121-.647-1.119Z"/><path class="d" d="M309.79,82.834l-.647,1.121.647,1.12h1.295l.647-1.121-.647-1.119Z"/><path class="d" d="M314.968,82.834l-.647,1.121.647,1.12h1.295l.647-1.121-.647-1.119Z"/><path class="d" d="M325.315,82.834l-.646,1.121.646,1.12h1.295l.647-1.121-.647-1.119Z"/><path class="d" d="M351.175,82.834l-.647,1.121.647,1.12h1.295l.647-1.121-.647-1.119Z"/><path class="d" d="M330.493,82.834l-.646,1.121.646,1.12h1.295l.646-1.121-.646-1.119Z"/><path class="d" d="M335.669,82.834l-.647,1.121.647,1.12h1.295l.646-1.121-.646-1.119Z"/><path class="d" d="M340.847,82.834l-.647,1.121.647,1.12h1.295l.646-1.121-.646-1.119Z"/><path class="d" d="M346.024,82.834l-.647,1.121.647,1.12h1.295l.646-1.121-.646-1.119Z"/><path class="d" d="M356.329,82.834l-.647,1.121.647,1.12h1.295l.647-1.121-.647-1.119Z"/><path class="d" d="M382.189,82.834l-.647,1.121.647,1.12h1.295l.647-1.121-.647-1.119Z"/><path class="d" d="M361.507,82.834l-.647,1.121.647,1.12H362.8l.647-1.121-.647-1.119Z"/><path class="d" d="M366.683,82.834l-.646,1.121.646,1.12h1.295l.646-1.121-.646-1.119Z"/><path class="d" d="M371.86,82.834l-.646,1.121.646,1.12h1.3l.646-1.121-.646-1.119Z"/><path class="d" d="M377.038,82.834l-.646,1.121.646,1.12h1.295l.646-1.121-.646-1.119Z"/><path class="d" d="M387.411,82.834l-.647,1.121.647,1.12h1.295l.647-1.121-.647-1.119Z"/><path class="d" d="M413.271,82.834l-.647,1.121.647,1.12h1.295l.647-1.121-.647-1.119Z"/><path class="d" d="M392.589,82.834l-.646,1.121.646,1.12h1.295l.647-1.121-.647-1.119Z"/><path class="d" d="M397.765,82.834l-.646,1.121.646,1.12h1.295l.646-1.121-.646-1.119Z"/><path class="d" d="M402.942,82.834l-.647,1.121.647,1.12h1.295l.646-1.121-.646-1.119Z"/><path class="d" d="M408.12,82.834l-.646,1.121.646,1.12h1.295l.646-1.121-.646-1.119Z"/><path class="d" d="M418.744,82.834l-.647,1.121.647,1.12h1.295l.646-1.121-.646-1.119Z"/><path class="d" d="M418.744,82.834l-.647,1.121.647,1.12h1.295l.646-1.121-.646-1.119Z"/><path class="d" d="M444.6,82.834l-.647,1.121.647,1.12H445.9l.647-1.121-.647-1.119Z"/><path class="d" d="M423.922,82.834l-.647,1.121.647,1.12h1.295l.647-1.121-.647-1.119Z"/><path class="d" d="M429.1,82.834l-.647,1.121.647,1.12h1.295l.646-1.121-.646-1.119Z"/><path class="d" d="M434.275,82.834l-.646,1.121.646,1.12h1.295l.646-1.121-.646-1.119Z"/><path class="d" d="M439.453,82.834l-.646,1.121.646,1.12h1.295l.647-1.121-.647-1.119Z"/><path class="d" d="M449.8,82.834l-.647,1.121.647,1.12H451.1l.646-1.121-.646-1.119Z"/><path class="d" d="M454.978,82.834l-.646,1.121.646,1.12h1.295l.646-1.121-.646-1.119Z"/></g></g><rect class="a" width="632" height="88" transform="translate(23 7)"/></g></svg>