<svg xmlns="http://www.w3.org/2000/svg" width="168.662" height="24.576" viewBox="0 0 168.662 24.576"><g transform="translate(-315.669 -288.712)"><path d="M325.222,299.767l-.028.142-.028.17-.028.2-.057.17-.028.17-.028.17-.028.17-.057.2-.057.17-.028.2-.057.2-.057.17-.028.2-.057.2-.057.2-.057.227-.057.2-.057.2-.057.228-.057.2-.057.2-.085.227-.057.228-.085.226-.057.227-.057.227-.085.227-.085.228-.085.227-.057.227-.085.255-.085.227-1.616,4.791h-6.151l6.094-17.915h7.767l.482,4.592v.113l.028.113v.227l.028.113v.255l.028.114v.283l.028.113v.737l.028.17v.822l.028.17v1.672h.227l.028-.17.028-.17.028-.142.057-.171.028-.17.028-.17.028-.17.057-.17.028-.2.057-.17.057-.17.028-.2.057-.17.057-.2.057-.2.057-.2.057-.17.057-.2.057-.2.057-.227.057-.2.057-.2.057-.227.085-.2.057-.227.085-.2.057-.227.085-.227.057-.227.086-.2.057-.227.085-.255,1.134-3.26h6.066l-6.066,17.915h-6.888l-.737-6.378v-.17l-.028-.142-.029-.17v-.143l-.028-.17v-.17l-.028-.142v-.17l-.028-.142v-.171l-.028-.142v-.311l-.028-.17v-.454l-.028-.142v-1.956l.028-.142Z" fill="#313130" fill-rule="evenodd"/><path d="M336.5,311.049l6.095-17.915h14.683l-1.786,5.244h-8.05l-.709,2.069h8.051l-1.333,3.884h-8.022l-.765,2.183h8.05l-1.531,4.535Z" fill="#313130" fill-rule="evenodd"/><path d="M353.228,310.567l1.587-4.621.113.028.113.028.113.028h.114l.113.028.113.028.113.028h.085l.114.028.113.028h.085l.113.028.085.028h.2l.085.028h.113l.085.028h.17l.086.028h.17l.085.029h.907l.113-.029h.113l.114-.028.085-.028.113-.028.113-.028.085-.028.113-.057.085-.028.085-.057.085-.057.085-.028.085-.057.085-.085.057-.057.085-.057.085-.085.057-.085.057-.057.085-.085.057-.085.057-.114.057-.085.057-.085.057-.113.028-.113.057-.113.057-.113.028-.113,3.855-11.31h6.86l-4.422,12.982-.057.17-.057.143-.057.17-.057.142-.057.142-.057.142-.057.17-.057.142-.057.114-.085.142-.057.142-.057.113-.057.142-.086.113-.057.113-.057.113-.085.114-.057.113-.085.113-.057.085-.086.113-.057.113-.085.085-.057.085-.085.085-.057.085-.085.085-.085.086-.057.085-.085.057-.085.085-.085.057-.113.113-.142.085-.142.113-.142.085-.142.113-.142.085-.142.085-.142.086-.17.057-.142.085-.17.057-.17.085-.142.057-.17.057-.17.057-.17.057-.2.057-.17.057-.2.028-.17.057-.2.028-.17.028-.2.057-.2.028h-.2l-.2.028-.227.028h-.2l-.227.028h-1.616l-.17-.028h-.2l-.2-.028h-.17l-.2-.028h-.17l-.2-.028-.17-.028-.17-.028-.17-.028-.2-.028-.17-.028-.17-.028-.17-.028-.17-.028-.17-.057-.17-.028-.171-.028-.17-.057-.17-.028-.17-.057-.142-.057-.17-.028-.17-.057-.142-.057-.17-.057Z" fill="#313130" fill-rule="evenodd"/><path d="M382.907,310.425l-.284.056-.254.058-.256.085-.255.057-.255.056-.255.057-.255.057-.255.056-.227.057-.255.028-.255.057-.227.057-.255.028-.227.056-.227.029-.227.056-.254.029-.228.028-.2.028-.227.029H377.8l-.227.056h-.227l-.227.029h-.2l-.227.028h-.2l-.227.028h-1.559l-.255-.028-.255-.028-.227-.029-.227-.028-.2-.028-.227-.029-.227-.056-.2-.057-.2-.057-.2-.056-.17-.057-.17-.056-.17-.085-.17-.057-.171-.085-.17-.085-.141-.113-.142-.086-.142-.113-.142-.114-.113-.085-.113-.141-.114-.114-.113-.113-.113-.141-.085-.114-.085-.142-.085-.142-.086-.17-.085-.141-.056-.17-.057-.142-.057-.17-.056-.171-.057-.2-.028-.17-.029-.2-.028-.2-.029-.2-.028-.2v-.879l.028-.2v-.255l.029-.227.028-.254.029-.256.056-.255.029-.255.056-.255.057-.256.085-.283.057-.283.085-.283.057-.285.113-.311.085-.283.085-.313.113-.311.085-.312.114-.284.113-.283.113-.283.114-.284.114-.255.113-.283.113-.256.113-.254.142-.256.114-.255.141-.227.114-.226.141-.227.142-.227.142-.227.113-.227.142-.2.142-.2.17-.2.141-.2.142-.2.142-.17.17-.2.142-.17.17-.142.17-.17.142-.17.17-.142.17-.141.17-.142.17-.142.17-.142.17-.141.2-.114.2-.113.17-.114.2-.113.2-.113.2-.086.2-.113.2-.085.227-.085.2-.085.227-.085.227-.085.227-.085.227-.057.226-.056.227-.085.227-.057.255-.028.227-.057.255-.057.255-.028.255-.029.255-.056h.283l.256-.029.255-.028h.283l.284-.028h1.389l.2.028h.2l.2.028h.2l.226.029h.2l.2.028.2.028.2.029.2.028.2.029.227.028.2.028.2.029.2.028.2.057.2.028.171.057.226.028.171.056.2.029.2.056.2.057.2.057.2.057.17.056.2.057.2.057-2.068,6.123-.171-.029-.17-.028-.17-.029-.17-.028h-.17l-.17-.028-.17-.029-.142-.028h-.17l-.141-.028-.143-.029h-.169l-.142-.028h-.284l-.141-.028h-.142l-.142-.029h-.113l-.142-.028h-.4l-.113-.028h-.341l-.113-.028h-.793l-.114.028h-.227l-.113.028h-.2l-.113.028h-.113l-.085.029h-.114l-.085.028h-.113l-.085.028-.085.029-.085.028H380.1l-.085.028-.085.029-.085.028-.085.028-.085.029-.086.028-.056.029-.085.056-.085.029-.057.028-.057.028-.085.057-.056.028-.086.057-.056.028-.057.057-.057.057-.056.028-.057.057-.056.057-.085.056-.057.057-.029.057-.085.056-.056.085-.029.057-.056.057-.057.085-.057.057-.056.085-.029.056-.057.086-.056.084-.029.086-.056.085-.029.085-.056.084-.029.085-.056.085-.029.085-.056.114-.029.085-.028.114-.057.085-.028.113-.029.113-.028.085-.028.114-.029.085-.028.113-.028.085-.029.085v.113l-.028.086v.085l-.028.085v.085l-.029.085v.453l.029.085v.057l.028.086v.056l.028.057v.056l.029.057.028.057.028.056.029.057.028.057.028.056.029.057.057.028.028.057.028.057.057.028.057.028.056.057.057.028.028.057.085.028.057.028.057.029.057.028.056.029.085.028.085.029.057.028.085.029.057.028h.085l.085.028.113.029h.085l.085.028h.085l.114.028h.311l.085.029h.738l.113-.029h.538l.142-.028.142-.028h.283l.171-.029.141-.028H382l.142-.028.17-.029.142-.028h.141l.17-.029.17-.028.142-.029.17-.028.17-.029.17-.028.142-.028.17-.029.17-.056.2-.029.17-.028.17-.056.17-.029Zm1.5-21.713h3.344l-2.777,2.693h-4.99l-.964-2.693h3.346l.453,1.616Z" fill="#313130" fill-rule="evenodd"/><path d="M385.288,311.049l6.095-17.915H398.3l-6.066,17.915Z" fill="#313130" fill-rule="evenodd"/><path d="M395.379,311.077l3.4-10.091H403l-.4,1.02v.057l-.028.058-.028.057-.028.057v.057l-.028.057-.028.057-.028.057v.057l-.028.057-.028.057-.028.057v.057l-.028.057-.028.057v.057l-.028.028V303l-.028.028-.028.057v.058l-.028.028v.057l-.028.057v.028l-.028.057-.028.028v.028l-.028.057v.085l-.028.028.057-.085.057-.113.057-.085.057-.085.057-.085.057-.086.057-.085.057-.085.057-.085.057-.085.058-.085.085-.057.057-.085.057-.085.057-.057.057-.085.057-.057.057-.085.057-.058.085-.057.057-.057.057-.057.057-.057.057-.057.057-.057.085-.057.057-.057.057-.057.058-.028.085-.057.057-.057.057-.028.085-.057.057-.028.057-.058.085-.027.057-.029.085-.027.057-.029.085-.057.057-.027.085-.029.085-.028.058-.028.085-.028.085-.028h.057l.085-.028.085-.028.085-.028h.085l.085-.028h.085l.085-.029h.085l.085-.028h.171l.085-.028h.907l.085.028h.113l.085.028h.113l.085.029.085.028h.085l.085.057h.085l.085.028.086.057.057.028.085.028.057.029.057.057.085.027.057.057.057.057.057.058.057.057.057.028.028.085.057.057.057.057.028.057.028.057.028.085.057.057v.057l.028.028v.057l.028.028v.086l.028.028v.255l.029.028v.085l-.029.057v.311l-.028.057v.113l-.028.028v.057l-.028.029v.057l-.028.057v.085l-.028.028v.085l-.028.057v.028l-.028.057-.028.057v.057l-.028.057v.028l-.028.057v.057l-.028.057-.028.057v.085l-.028.057-.028.058-.028.057v.057l-.028.085-.028.057-.028.057-2.211,6.548h-4.28l1.729-5.1.027-.028v-.057l.029-.057v-.057l.028-.057v-.057l.028-.028v-.057l.028-.057v-.028l.028-.057v-.142l.028-.029v-.113l.028-.028v-.34l-.028-.028V304.7l-.028-.028h0v-.057l-.028-.028h0l-.028-.028v-.028h-.028l-.028-.028h0l-.029-.028h-.027l-.029-.028h-.028v-.028h-.085l-.028-.028h-.028l-.057-.028h-.566l-.057.028-.085.028-.057.028-.086.028-.057.028-.085.028-.057.028-.057.028-.057.057-.057.057-.057.057-.057.057-.057.057-.057.057-.057.057-.057.057-.057.085-.057.085-.028.057-.057.086-.057.085-.028.085-.058.113-.028.085-.057.113-.028.113-.057.085-.057.113-1.672,4.933Z" fill="#313130" fill-rule="evenodd"/><path d="M413.663,306.23l-.057.085-.028.114-.028.113-.029.085v.113l-.028.085v.085l-.028.085v.283l.028.085v.058l.028.057v.085l.029.028.028.057.028.056.057.028.028.057.029.028.056.029.057.028.057.028.028.029H414l.057.028.084.028h.37l.085-.028h.056l.085-.028h.057l.085-.029.085-.028.056-.028.057-.029.057-.056.085-.029.056-.056.058-.057.085-.056.056-.057.057-.057.057-.056.056-.058.057-.085.057-.085.056-.057.029-.085.056-.113.057-.085.028-.085.057-.085.057-.113.028-.113.056-.085.029-.114.056-.142L416.3,306l.028-.085.028-.113.029-.085v-.085l.028-.085v-.17l.029-.057v-.142l-.029-.057v-.057l-.028-.056v-.057l-.029-.056-.028-.057-.028-.028v-.057l-.057-.028-.028-.057-.057-.028-.028-.029-.057-.028-.056-.028-.029-.029h-.141l-.057-.028h-.453l-.086.028h-.085l-.057.029-.085.028h-.056l-.085.028-.057.057-.085.028-.056.029-.085.056-.057.029-.057.056-.056.057-.057.056-.057.057-.057.057-.057.085-.057.057-.056.057-.057.085-.028.085-.057.085-.056.085-.029.085-.056.085-.029.113-.056.085-.029.113Zm1.077,4.28v-.057l.029-.028v-.057l.028-.056.028-.057v-.028l.028-.057v-.057l.029-.056.028-.057v-.028l.028-.057.029-.057V309.8l.028-.057.028-.056.029-.057v-.057l.028-.056v-.058l.028-.057.029-.056.028-.057v-.057l.028-.056.029-.057.028-.056.028-.057v-.057l.029-.056.029-.057.028-.057-.057.085-.057.085-.085.085-.028.085-.057.085-.085.085-.028.057-.057.085-.085.086-.056.056-.057.085-.057.057-.056.085-.057.056-.057.057-.056.085-.057.057-.057.056-.057.057-.057.057-.057.056-.056.057-.057.057-.056.056-.057.057-.057.029-.085.057-.028.056-.085.029-.057.056-.056.029-.057.028-.057.057-.056.028-.057.057-.085.028-.057.028-.057.029-.085.028-.057.028-.085.029-.056.028-.085.028-.057.028-.085.029-.056.028-.085.028h-.057l-.085.029-.057.028h-.085l-.086.028h-.084l-.057.029h-.085l-.085.028h-.142l-.113.028H410.8l-.114-.028H410.6l-.114-.028H410.4l-.113-.029-.085-.028-.085-.028-.086-.029-.113-.028-.057-.028-.085-.029-.085-.056-.085-.028-.056-.057-.057-.028-.057-.057-.085-.028-.056-.085-.057-.057-.028-.057-.057-.056-.056-.057-.029-.085-.056-.058-.029-.084-.029-.085-.057-.057-.028-.085-.028-.085V310l-.029-.085-.028-.085v-.113l-.028-.085v-.879l.028-.113v-.114l.028-.142v-.113l.029-.142.028-.142.028-.141.029-.142.028-.141.029-.142.057-.171.028-.142.057-.169.057-.142.028-.17.056-.17.057-.171.057-.17.056-.17.057-.17.057-.17.056-.169.057-.171.085-.17.057-.142.056-.17.057-.141.085-.142.056-.17.058-.141.085-.115.057-.141.056-.142.085-.142.057-.113.085-.141.057-.114.084-.113.057-.114.085-.114.057-.113.085-.113.085-.085.056-.113.086-.085.085-.114.085-.085.057-.085.085-.085.085-.057.085-.085.085-.085.056-.057.085-.085.085-.056.085-.085.114-.057.085-.056.085-.057.085-.057.114-.056.113-.057.085-.029.113-.057.085-.027.113-.057.114-.057.114-.028.085-.029.141-.028.085-.028.142-.029.113-.028.114-.028h.113l.141-.029.115-.028h.141l.114-.029h.963l.085.029h.114l.056.028h.085l.057.029h.057l.056.028h.057l.056.028h.057l.057.029.028.028h.057l.057.028.029.029.056.028.057.028.028.029.057.027.028.03.029.027.056.029.029.028.028.056.028.03.028.028.029.028.028.029.028.056.029.029.028.056.028.028v.057l.029.028.028.057.028.028v.057l.029.057v.056l.028.029v.056l.028.057v.114l.029.057v.141l.028.057v.566l.028-.028v-.085l.029-.028.028-.028v-.085l.028-.057V302.6l.029-.057v-.028l.028-.057v-.028l.029-.057.029-.057v-.028l.028-.057v-.056l.028-.057.028-.028v-.058l.029-.056.028-.085v-.029l.028-.056.029-.085v-.029l.028-.085.028-.056.029-.057.17-.51h4.2l-3.43,10.091h-4.2Zm.964-10.6,1.445-1.786h3.828l-1.872,1.786Z" fill="#313130" fill-rule="evenodd"/><path d="M426.419,306.2l-.028.114-.029.114-.028.085-.028.113-.029.113-.028.085v.085l-.028.085v.4l.028.056v.057l.028.057.029.056.028.057.028.056.029.029.028.056.057.029.028.028.056.028.057.029.057.028.056.028h.057l.057.029h.454l.085-.029h.056l.085-.028.057-.028.085-.029.057-.028.085-.028.056-.057.057-.028.085-.057.056-.056.058-.057.085-.057.028-.056.085-.057.057-.086.028-.057.057-.085.057-.085.056-.085.057-.084.056-.114.057-.085.028-.113.057-.085.057-.113.028-.114.057-.114.028-.113.028-.113.029-.085.028-.085.028-.085.03-.114v-.141l.028-.085v-.256l-.028-.085v-.028l-.03-.085V304.9l-.028-.057-.028-.057-.029-.028L429,304.7l-.028-.028-.057-.028-.028-.029-.057-.028-.057-.028-.056-.029h-.057l-.056-.028h-.6l-.085.028-.057.029-.085.028h-.056l-.085.028-.057.057-.057.028-.085.029-.056.056-.057.029-.085.056-.056.057-.057.056-.057.057-.056.057-.058.056-.057.086-.028.057-.057.085-.056.057-.029.085-.056.084-.029.114-.056.085-.057.085L426.5,306l-.028.085Zm-5.9,4.876,4.252-12.5h4.252l-1.19,3.458v.058l-.028.028v.057l-.029.056-.028.029v.056l-.028.057v.028l-.029.057-.028.028v.085l-.028.057-.029.028v.029l-.028.056v.029l-.028.028v.056l-.029.029v.028l-.028.028v.029l-.028.056v.029l-.029.028v.028l-.028.03v.028l-.028.028v.029l-.029.028.057-.085.057-.086.085-.085.056-.057.057-.085.057-.084.056-.085.057-.057.057-.085.056-.085.057-.057.056-.085.086-.056.057-.057.057-.085.056-.057.057-.057.057-.057.056-.056.057-.057.057-.057.084-.056.057-.029.057-.056.056-.057.057-.057.057-.028.085-.056.056-.029.058-.056.057-.029.056-.056.057-.03.056-.027.085-.029.057-.057.057-.027h.085l.056-.057.085-.029.057-.028.057-.028h.085l.084-.029.057-.028.058-.028h.085l.085-.029.056-.028h.085l.085-.028h.057l.085-.029h.085l.085-.028h.141l.114-.029h.935l.085.029h.228l.085.028.085.029.085.028h.085l.084.028.085.029.085.028.085.057.057.028.085.028.057.029.057.057.085.027.057.057.056.056.057.03.057.056.028.057.057.057.028.056.057.057.028.085.028.056.029.085.028.057.028.057.029.085.028.085.028.085v.085l.029.085v.17l.028.085v.4l-.028.113v.228l-.029.113v.113l-.028.113-.028.114-.029.141v.114l-.056.141-.029.114-.028.142-.028.142-.057.141-.028.142-.057.141-.028.142-.029.142-.056.171-.085.169-.057.2-.085.2-.057.17-.085.171-.057.17-.057.17-.085.2-.085.141-.056.17-.085.17-.057.143-.085.17-.056.141-.085.142-.085.142-.085.141-.057.142-.086.142-.085.142-.085.113-.085.114-.085.141-.085.113-.056.114-.085.113-.085.114-.085.085-.085.114-.085.113-.086.085-.113.085-.085.085-.085.085-.085.085-.114.085-.084.085-.085.084-.114.086-.085.057-.085.057-.114.056-.113.085-.085.057-.113.057-.085.056-.114.029-.113.056-.113.057-.114.028-.113.028-.086.057-.141.028-.085.029-.142.028-.113.028h-.113l-.114.029-.141.028h-.114l-.114.028H427.3l-.085-.028h-.057l-.085-.028h-.114l-.057-.029h-.141l-.029-.028-.085-.028h-.056l-.029-.029-.056-.028-.057-.028h-.056l-.029-.029-.056-.028-.057-.028-.028-.028-.057-.029-.028-.028-.029-.028-.056-.057-.029-.028-.028-.029-.028-.028-.029-.057-.029-.028-.028-.028-.028-.057-.057-.028v-.057l-.028-.057-.029-.028-.028-.058-.028-.056v-.057l-.029-.056v-.029l-.028-.085-.028-.056v-.057l-.029-.057v-.056l-.028-.085v-.057l-.028-.057v-.226l-.029-.057v-.652h0l-.028.057v.056l-.028.029v.085l-.029.056v.057l-.028.028v.085l-.028.028v.057l-.029.028v.086l-.028.029v.056l-.028.029v.028l-.029.057v.084l-.028.029-.028.056v.085l-.028.029v.056l-.37,1.049Z" fill="#313130" fill-rule="evenodd"/><path d="M432.91,313.288l.766-2.692h3.09l-.028-.028h-.085l-.057-.028h-.086l-.057-.029H436.4l-.028-.028-.028-.028h-.057l-.028-.028h-.028l-.057-.028-.028-.028h-.028l-.028-.028-.057-.028v-.028H436l-.057-.028v-.028l-.028-.028-.028-.028-.028-.028-.028-.028v-.028l-.028-.028-.028-.028-.028-.028v-.028l-.028-.057v-.028h-.028v-.057l-.028-.028v-.057l-.028-.028v-.028l-.028-.057v-.113l-.028-.028v-.2l-.028-.028v-.255l-.028-.057v-.482l.085-7.484h4.365l-.426,3.685v.142l-.028.057v.085l-.028.057v.17l-.028.058v.085l-.028.057v.113l-.028.057v.085l-.028.085v.085l-.028.085-.028.113v.085l-.028.085-.028.085v.114l-.028.085-.028.113v.085l-.028.113-.028.085-.028.113-.028.113-.028.085-.028.113v.114l-.057.113.085-.113.057-.143.028-.113.057-.113.057-.142.057-.085.057-.142.028-.085.057-.113.057-.113.057-.086.028-.113.057-.113.029-.085.057-.085.028-.085.057-.085.057-.085.028-.085.028-.085.057-.085.028-.086.028-.057.057-.085.028-.057.028-.057.028-.085.028-.057.028-.057.028-.057.028-.057.028-.028,1.984-3.685h4.337l-5.925,8.986-.057.057-.057.085-.057.085-.057.057-.028.085-.057.057-.057.085-.028.058-.057.085-.057.057-.028.057-.057.057-.028.085-.057.057-.028.028-.057.085-.028.028-.028.057-.028.057-.057.057-.028.057-.057.028-.029.057-.027.028-.029.057-.028.028-.028.057-.028.029-.028.027-.057.029v.057l-.028.028-.057.028-.028.057-.057.057-.057.028-.028.057-.028.057-.057.028-.028.057-.057.028-.057.028-.028.057-.057.028-.028.028-.057.057-.057.028-.028.028-.057.057-.057.028-.029.028-.057.028-.057.028-.028.028-.057.028-.057.057H438.3l-.057.029-.028.028-.057.057-.057.028h-.028l-.057.028-.057.028-.057.028-.057.028-.085.028-.057.028h-.085l-.058.028-.085.028-.085.028-.057.028h-.085l-.085.028h-.085l-.085.028h-.113l-.085.028-.113.028h-.2l-.085.028h-.113l-.113.028h-.227l-.113.028h-2.92Z" fill="#313130" fill-rule="evenodd"/><path d="M451.931,310.992l-.142.057h-.113l-.142.028-.142.028-.114.028-.142.028-.113.028h-.142l-.113.028h-.142l-.113.028-.142.028h-.114l-.113.028H450l-.113.028-.113.028h-.255l-.113.028h-.369l-.113.028h-.255l-.113.028h-.992l-.113-.028h-.2l-.085-.028H447l-.085-.028h-.085l-.085-.028-.085-.028H446.6l-.085-.028-.057-.028-.085-.028h-.057l-.057-.028-.057-.028-.057-.028-.057-.028-.058-.028-.057-.028-.057-.028-.028-.028-.057-.057-.028-.028-.028-.028-.057-.057-.028-.028-.028-.057-.028-.028-.028-.057-.028-.028-.028-.057v-.058l-.028-.057-.028-.028v-.113l-.028-.085v-.17l-.028-.085v-.113l.028-.085v-.227l.028-.057V309.4l.028-.085v-.085l.028-.085.028-.085.028-.085v-.085l.057-.113.028-.085.028-.113,1.389-4.139h-1.36l.709-2.126.142-.113.142-.085.142-.086.142-.085.142-.113.142-.113.142-.085.142-.085.142-.113.113-.085.142-.114.17-.113.143-.084.113-.114.142-.113.142-.085.142-.113.142-.113.142-.113.171-.085.113-.114.142-.113.17-.113.142-.113.142-.113.142-.114.113-.113.171-.113.142-.113.142-.113.142-.114.142-.113h2.353l-.708,2.041h2.948l-1.163,3.458h-2.947l-1.077,3.232-.028.057-.028.057v.028l-.028.057v.227l.028.028v.057l.028.028v.028l.028.028.028.028.028.028.028.028.028.028.028.028.028.029.057.028h.028l.057.028h.057l.028.028h.057l.057.028h.879l.057-.028h.142l.057-.028h.227l.085-.028h.171l.085-.028h.113l.085-.029h.142Z" fill="#313130" fill-rule="evenodd"/><path d="M463.524,310.624l-.17.057-.169.028-.17.057-.171.056-.17.029-.17.056-.17.029-.17.028-.17.057-.171.028-.17.028-.17.029-.17.028-.141.056-.17.029h-.143l-.17.028-.17.028-.141.029h-.17l-.142.028-.17.028h-.142l-.142.029h-.141l-.17.028h-.283l-.142.028h-.794l-.17-.028h-.17l-.142-.028h-.17l-.142-.029h-.142l-.141-.028-.17-.028-.113-.029-.143-.028-.142-.028-.113-.029-.113-.056-.113-.028-.114-.057-.113-.057-.113-.028-.114-.057-.085-.056-.114-.057-.085-.057-.085-.056-.085-.057-.085-.085-.056-.058-.085-.084-.057-.085-.056-.057-.057-.085-.085-.085-.028-.085-.057-.085-.028-.113-.057-.085-.029-.085-.057-.113-.028-.115v-.113l-.029-.085-.028-.113-.028-.113v-.255l-.029-.114v-.284l.029-.113v-.283l.028-.142.028-.141.029-.142v-.171l.028-.142.057-.17.029-.169.057-.142.028-.17.057-.17.028-.171.057-.17.085-.2.056-.17.057-.17.056-.17.057-.142.085-.17.057-.17.085-.142.056-.17.085-.113.057-.17.086-.142.056-.114.085-.141.085-.142.085-.113.085-.142.085-.113.085-.142.085-.086.085-.141.085-.085.113-.113.085-.114.086-.085.085-.113.114-.085.113-.085.085-.085.113-.085.113-.086.085-.085.114-.085.113-.056.114-.085.113-.057.114-.057.113-.085.142-.056.113-.057.113-.056.142-.057.141-.058.115-.056.141-.028.142-.056.141-.03.142-.056.142-.028.17-.028.142-.057.142-.028.17-.029.17-.028.141-.028h.2l.17-.029.143-.028h.2l.17-.029h1.758l.17.029h.141l.17.028.114.029h.17l.141.028.114.028.142.029.113.028.142.028.113.029.113.028.114.057.113.027.085.057.114.057.085.029.113.057.085.056.085.029.057.085.085.056.085.057.057.056.085.057.028.057.085.085.056.056.029.085.057.085.057.086.028.085.029.085.028.085.028.085.029.085.028.113.028.114v.084l.029.114v.567l-.029.142v.255l-.028.141-.028.115-.029.141-.028.142-.028.141-.029.17-.056.142-.029.141-.057.171-.057.142-.056.17v.056l-.029.057-.028.028v.057l-.028.057v.028l-.029.057-.028.056V306l-.028.028-.029.057-.028.057v.056l-.028.057v.028l-.029.058-.028.056-.028.057v.057l-.029.056-.028.057-.028.057v.056l-.029.057-.028.028-.028.057-.029.057-.028.056v.057l-.028.056-.029.057-.028.057-6.889.028v.085l-.028.086v.311l.028.085v.057l.029.085.028.057.028.056.057.057.028.085.057.028.057.057.057.057.057.056.057.029.085.029.084.056.057.029.113.028.085.028.085.029h.114l.113.028.113.028h.114l.114.029h.849L461,308.7h.226l.142-.028h.113l.142-.028h.255l.114-.029.142-.028.141-.028h.142l.141-.029.142-.028.142-.028.142-.029.142-.029.141-.028.142-.028.142-.029.17-.056.141-.029.17-.028.171-.057.142-.028.17-.057.141-.028.17-.057Zm-4.337-5.585h3.6l.028-.113.029-.085v-.113l.028-.085.028-.085v-.312l-.028-.086v-.085l-.028-.056v-.057l-.057-.057-.028-.056-.029-.057-.028-.057-.057-.056-.056-.029-.057-.056-.056-.029-.057-.028-.057-.028-.085-.028-.056-.029-.085-.028-.085-.028h-.085l-.114-.029h-.624l-.084.029h-.114l-.085.028-.114.028-.085.029-.085.028-.085.028-.085.028-.085.029-.085.056-.085.029-.085.056-.085.057-.056.057-.085.056-.057.057-.058.057-.084.056-.057.085-.057.086-.056.057-.057.085-.057.085-.056.085-.029.085-.056.085-.057.113-.028.085Z" fill="#313130" fill-rule="evenodd"/><path d="M465.537,311.049l4.252-12.473,4.224-.028-1.871,5.556-.028.057-.028.086-.028.057v.057l-.028.085L472,304.5l-.028.057v.057l-.028.057-.028.085-.028.057-.028.057-.028.057v.057l-.028.057-.028.057-.028.057-.028.057v.057l-.028.058-.028.057-.028.057-.028.057-.028.028v.057l-.028.057-.028.057-.028.028v.057l-.029.057-.028.057-.028.028.057-.057.029-.057.057-.057.028-.085.057-.057.028-.057.028-.057.057-.057.028-.057.057-.057.028-.058.028-.057.057-.057.028-.028.028-.057.057-.057.028-.057.028-.057.028-.028.028-.057.057-.057.028-.028.028-.057.028-.057.057-.028.028-.057.028-.028.028-.028.028-.057.028-.057.029-.028.028-.028,2.607-3.317h4.791l-4.508,5.045.681,5.018H471.66l-.284-3.033-.028-.028v-.311l-.028-.028v-1.39l-.028.028v.086l-.028.028v.113l-.028.057v.113l-.028.057v.057l-.028.057v.028l-.028.057v.085l-.028.028v.057l-.028.028v.057l-.028.057v.028l-.028.057v.028l-.028.058v.028l-.028.057v.057l-1.219,3.486Z" fill="#313130" fill-rule="evenodd"/><path d="M482.148,295.147h.227c.255,0,.4.084.425.311a1.683,1.683,0,0,0,.17.51h.369a1.388,1.388,0,0,1-.142-.481.69.69,0,0,0-.312-.482v-.028a.455.455,0,0,0,.369-.426.511.511,0,0,0-.2-.425.954.954,0,0,0-.6-.142,2.431,2.431,0,0,0-.681.057v1.927h.369Zm0-.879a2.177,2.177,0,0,1,.255-.029c.34,0,.482.142.482.341,0,.226-.255.283-.51.283h-.227Zm.34-1.162a1.852,1.852,0,0,0-1.9,1.842,1.871,1.871,0,1,0,1.9-1.842Zm-.028.312a1.532,1.532,0,0,1,.028,3.061,1.531,1.531,0,0,1-.028-3.061Z" fill="#313130" fill-rule="evenodd"/></g></svg>