<svg xmlns="http://www.w3.org/2000/svg" width="163.134" height="21.912" viewBox="0 0 163.134 21.912"><g transform="translate(-318.44 -289.544)"><path d="M332.358,301.96a.8.8,0,0,1-.907.907,2.918,2.918,0,0,1-1.53-.567l-9.043-6.123v6.577H318.44v-8.646a.815.815,0,0,1,.255-.6,1.122,1.122,0,0,1,.766-.227,2.437,2.437,0,0,1,1.417.482l9.043,6.094v-6.576h2.437Z" fill="#313130" fill-rule="evenodd"/><path d="M347.864,294.93v-1.644H335.7v9.468h12.161v-1.645h-9.724v-2.324h9.071v-1.644h-9.071V294.93Z" fill="#313130" fill-rule="evenodd"/><path d="M360.223,298.5a3.494,3.494,0,0,1-2.013,3.345,11.944,11.944,0,0,1-5.329.907h-2.324v-1.645h2.324a9.659,9.659,0,0,0,3.515-.482,2.122,2.122,0,0,0,1.389-2.125v-5.216h2.438Z" fill="#313130" fill-rule="evenodd"/><path d="M376.947,302.754h-7.966a8.939,8.939,0,0,1-5.1-1.361,4.081,4.081,0,0,1-2.013-3.458,3.905,3.905,0,0,1,2.013-3.373,9.255,9.255,0,0,1,5.1-1.276h7.966v1.644h-7.966a5.809,5.809,0,0,0-3.344.879,2.575,2.575,0,0,0-1.3,2.239,2.532,2.532,0,0,0,1.3,2.211,6.037,6.037,0,0,0,3.344.85h7.966Z" fill="#313130" fill-rule="evenodd"/><rect width="2.466" height="9.468" transform="translate(379.669 293.286)" fill="#313130"/><rect width="9.1" height="1.758" transform="translate(367.763 289.544)" fill="#e21939"/><path d="M409.574,297.935a4.081,4.081,0,0,1-2.013,3.458,8.878,8.878,0,0,1-5.1,1.361h-7.937v-9.468h7.937a9.187,9.187,0,0,1,5.1,1.276,3.848,3.848,0,0,1,2.013,3.373Zm-2.466.113a2.575,2.575,0,0,0-1.3-2.239,5.808,5.808,0,0,0-3.345-.879h-5.527v6.179h5.527a6.036,6.036,0,0,0,3.345-.85,2.532,2.532,0,0,0,1.3-2.211Z" fill="#313130" fill-rule="evenodd"/><path d="M423.747,294.93v-1.644h-12.16v9.468h12.16v-1.645h-9.723v-2.324h9.1v-1.644h-9.1V294.93Z" fill="#313130" fill-rule="evenodd"/><path d="M441.549,299.834a2.45,2.45,0,0,1-1.417,2.183,6.881,6.881,0,0,1-3.4.737H425.987v-1.645H436.73a4.643,4.643,0,0,0,1.757-.311c.568-.228.851-.567.851-.992s-.283-.766-.879-.992a4.5,4.5,0,0,0-1.729-.284H430.1a6.142,6.142,0,0,1-3.089-.709,2.076,2.076,0,0,1,0-3.855,6.386,6.386,0,0,1,3.089-.68h10.63v1.644H430.1a2.674,2.674,0,0,0-1.219.255.851.851,0,0,0-.482.709.788.788,0,0,0,.482.709,2.674,2.674,0,0,0,1.219.254h6.633a6.575,6.575,0,0,1,3.4.794,2.449,2.449,0,0,1,1.417,2.183Z" fill="#313130" fill-rule="evenodd"/><rect width="2.438" height="9.468" transform="translate(444.101 293.286)" fill="#313130"/><path d="M465.247,302.754h-8.93a8.942,8.942,0,0,1-5.1-1.361,4.083,4.083,0,0,1-2.013-3.458,3.88,3.88,0,0,1,1.984-3.373,9.327,9.327,0,0,1,5.1-1.276h7.966v1.644h-7.966a5.776,5.776,0,0,0-3.316.879,2.575,2.575,0,0,0-1.3,2.239,2.532,2.532,0,0,0,1.3,2.211,6,6,0,0,0,3.316.85h6.52V299.04h-6.69v-1.5h9.128Z" fill="#313130" fill-rule="evenodd"/><path d="M481.574,301.96a.818.818,0,0,1-.935.907,2.921,2.921,0,0,1-1.531-.567l-9.043-6.123v6.577h-2.409v-8.646a.815.815,0,0,1,.255-.6,1.036,1.036,0,0,1,.766-.227,2.354,2.354,0,0,1,1.388.482l9.072,6.094v-6.576h2.437Z" fill="#313130" fill-rule="evenodd"/><path d="M395.089,307.742h1.02l.709,2.693h0l.708-2.693h.964V311.4H397.9v-3.033h-.028l-.794,3.033h-.538l-.822-3.033h0V311.4h-.624Z" fill="#313130" fill-rule="evenodd"/><path d="M400.759,309.585c0-1.3.4-1.9,1.3-1.9.936,0,1.332.6,1.332,1.9,0,1.275-.4,1.871-1.332,1.871-.907,0-1.3-.6-1.3-1.871Zm2.012-.028c0-1.219-.312-1.417-.709-1.417-.368,0-.68.2-.68,1.417,0,1.247.312,1.473.68,1.473.4,0,.709-.226.709-1.473Z" fill="#313130" fill-rule="evenodd"/><path d="M405.662,307.742H406.8c1.248,0,1.418.766,1.418,1.843s-.17,1.814-1.418,1.814h-1.134Zm.624,3.2h.538c.539,0,.737-.311.737-1.36s-.169-1.389-.737-1.389h-.538Z" fill="#313130" fill-rule="evenodd"/><path d="M410.453,307.742h2.183v.511H411.1v.992h1.446v.51H411.1v1.162h1.56v.482h-2.211Z" fill="#313130" fill-rule="evenodd"/><path d="M414.847,307.742h1.417a.9.9,0,0,1,1.02.964.8.8,0,0,1-.68.879h0c.4.057.623.255.652.766v.737a.428.428,0,0,0,.2.311h-.708a.411.411,0,0,1-.113-.34,4.712,4.712,0,0,1-.029-.68c-.028-.4-.141-.567-.6-.567h-.51V311.4h-.652Zm1.162,1.645a.56.56,0,0,0,.624-.6c0-.4-.17-.595-.6-.595H415.5v1.191Z" fill="#313130" fill-rule="evenodd"/><path d="M419.552,307.742h.766l1.19,2.722h0v-2.722h.6V311.4h-.766l-1.162-2.778h-.028V311.4h-.6Z" fill="#313130" fill-rule="evenodd"/><path d="M427.489,307.742h2.154v.511h-1.5v.992h1.417v.51h-1.417V311.4h-.652Z" fill="#313130" fill-rule="evenodd"/><path d="M432.365,307.742v2.637c0,.453.2.651.6.651s.6-.2.6-.651v-2.637h.623v2.58c0,.851-.453,1.134-1.219,1.134s-1.219-.283-1.219-1.134v-2.58Z" fill="#313130" fill-rule="evenodd"/><path d="M436.475,307.742h1.418a.9.9,0,0,1,1.02.964.8.8,0,0,1-.652.879h0c.4.057.6.255.624.766a6.507,6.507,0,0,0,.028.737.344.344,0,0,0,.17.311h-.709a.771.771,0,0,1-.113-.34,4.712,4.712,0,0,1-.029-.68c0-.4-.141-.567-.566-.567h-.539V311.4h-.652Zm1.163,1.645a.569.569,0,0,0,.651-.6c0-.4-.2-.595-.623-.595h-.539v1.191Z" fill="#313130" fill-rule="evenodd"/><path d="M441.181,307.742h.794l1.162,2.722h0v-2.722h.623V311.4h-.793l-1.163-2.778h0V311.4h-.623Z" fill="#313130" fill-rule="evenodd"/><rect width="0.623" height="3.657" transform="translate(446.085 307.742)" fill="#313130"/><path d="M449.685,308.253h-.936v-.511h2.522v.511h-.935V311.4h-.652Z" fill="#313130" fill-rule="evenodd"/><path d="M453.908,307.742v2.637c0,.453.2.651.6.651.369,0,.567-.2.567-.651v-2.637h.653v2.58c0,.851-.454,1.134-1.22,1.134s-1.219-.283-1.219-1.134v-2.58Z" fill="#313130" fill-rule="evenodd"/><path d="M458.019,307.742h1.416a.9.9,0,0,1,1.021.964.8.8,0,0,1-.681.879h0c.4.057.624.255.653.766v.737a.428.428,0,0,0,.2.311h-.708a.411.411,0,0,1-.114-.34,4.712,4.712,0,0,1-.029-.68c-.028-.4-.141-.567-.594-.567h-.511V311.4h-.651Zm1.162,1.645a.56.56,0,0,0,.623-.6c0-.4-.17-.595-.595-.595h-.539v1.191Z" fill="#313130" fill-rule="evenodd"/><path d="M462.724,307.742h2.183v.511h-1.53v.992h1.417v.51h-1.417v1.162h1.559v.482h-2.211Z" fill="#313130" fill-rule="evenodd"/></g></svg>