<svg xmlns="http://www.w3.org/2000/svg" width="123.042" height="96.034" viewBox="0 0 123.042 96.034"><defs><style>.a{fill:#9a57c1;}.b{fill:#59595c;}</style></defs><g transform="translate(-9.345 -22.849)"><path class="a" d="M90.244,96.571H51.778a2.107,2.107,0,0,1,0-4.214H90.244a3.792,3.792,0,0,0,3.789-3.789V47.7a3.793,3.793,0,0,0-3.789-3.79h-72.9a3.794,3.794,0,0,0-3.79,3.79V88.568a3.793,3.793,0,0,0,3.79,3.789h1.243a2.107,2.107,0,1,1,0,4.214H17.3a8.012,8.012,0,0,1-7.95-8V47.7a8.012,8.012,0,0,1,8-8h72.9a8.013,8.013,0,0,1,8,8V88.568A8.013,8.013,0,0,1,90.244,96.571Z"/><path class="a" d="M50.857,96.553a2.1,2.1,0,0,1-1.352-.49,22.57,22.57,0,0,0-14.467-5.252,22.148,22.148,0,0,0-14.68,5.106,2.106,2.106,0,1,1-2.743-3.2A26.294,26.294,0,0,1,35.038,86.6a26.8,26.8,0,0,1,17.171,6.232,2.106,2.106,0,0,1-1.352,3.722Z"/><rect class="a" width="18.298" height="4.213" transform="translate(99.676 50.242)"/><rect class="a" width="18" height="4.213" transform="translate(99.974 66.026)"/><path class="a" d="M132.387,76.637h-9.954L114.8,69V51.337l9.093-7.284h8.493Zm-8.209-4.213h4V48.266h-2.8l-6.359,5.094v13.9Z"/><rect class="a" width="4.213" height="30.216" transform="translate(122.527 44.944)"/><rect class="a" width="12.285" height="4.213" transform="translate(100.537 55.642)"/><rect class="a" width="12.285" height="4.213" transform="translate(100.537 60.911)"/><path class="a" d="M128.6,40.312H99.722a3.8,3.8,0,0,1-3.791-3.792V30.756a3.8,3.8,0,0,1,3.791-3.791H128.6a3.8,3.8,0,0,1,3.791,3.791V36.52A3.8,3.8,0,0,1,128.6,40.312ZM100.144,36.1h28.029v-4.92H100.144Z"/><path class="a" d="M76.68,43.424l-3.691-2.03,5.973-10.862H99.352v4.213h-17.9Z"/><rect class="a" width="4.214" height="9.364" transform="translate(83.251 33.305)"/><path class="a" d="M21.615,43.137l-4.037-1.2.6-2.019c.292-.98.552-2.048.827-3.179,1.359-5.581,3.22-13.224,11.474-13.788,2.014-.138,9-.1,15.754-.065,5.034.027,9.789.052,11.5,0,5.052-.175,9.3,2.23,10.149,5.728.116.42,1.281,4.637,2.96,10.327l.6,2.02L67.4,42.145l-.6-2.019c-1.774-6.01-2.979-10.394-2.991-10.437l-.02-.08c-.3-1.279-2.8-2.632-5.913-2.521-1.795.06-6.589.034-11.664.007-6.368-.034-13.585-.072-15.445.055-4.829.33-6.118,4.218-7.667,10.582-.276,1.132-.56,2.3-.884,3.387Z"/><path class="a" d="M60.066,39.041H29.82A3.909,3.909,0,0,1,26.1,34.977V31.962A3.909,3.909,0,0,1,29.82,27.9H60.066a3.91,3.91,0,0,1,3.725,4.064v3.015A3.91,3.91,0,0,1,60.066,39.041ZM30.31,34.828H59.578V32.111H30.31Z"/><rect class="a" width="44.98" height="4.213" transform="translate(40.165 114.67)"/><path class="a" d="M78.334,112.057H70.877v-4.213h7.457Zm-11.031,0H59.845v-4.213H67.3Zm-11.034,0H48.8v-4.213h7.465Z"/><path class="b" d="M15.947,85.768a2.107,2.107,0,0,1,2.106-2.108h0a2.107,2.107,0,0,1,2.107,2.108h0a2.106,2.106,0,0,1-2.107,2.105h0A2.105,2.105,0,0,1,15.947,85.768Zm0-5.834a2.106,2.106,0,0,1,2.106-2.107h0a2.107,2.107,0,0,1,2.107,2.107h0a2.106,2.106,0,0,1-2.107,2.106h0A2.106,2.106,0,0,1,15.947,79.934Z"/></g></svg>