<svg xmlns="http://www.w3.org/2000/svg" width="32.409" height="31.049" viewBox="0 0 32.409 31.049"><g transform="translate(-284.832 -1601.581)"><path d="M301.824,1614.679l1.642-3.564h0l1.642,3.564Z" fill="#59595c"/><path d="M299.428,1615.868q-.348-.055-.708-.094v4.071a2.474,2.474,0,0,0-1.029-.383v-3.756c-.119,0-.235-.012-.355-.012s-.235.01-.354.012v3.756a2.474,2.474,0,0,0-1.029.383v-4.071c-.239.026-.476.057-.709.094v4.7a2.473,2.473,0,0,0,0,2.709v4.7c.233.037.47.068.709.093V1624a2.505,2.505,0,0,0,1.029.385v3.754c.119,0,.235.011.354.011s.236-.009.355-.011v-3.754a2.479,2.479,0,0,0,1.029-.387v4.072q.36-.038.708-.093v-4.7a2.478,2.478,0,0,0,0-2.715Zm-5.921,11.69c.23.074.468.14.709.2v-11.678c-.241.061-.479.131-.709.2Zm-1.737-.735c.227.123.463.239.707.346v-10.494c-.244.107-.48.224-.707.345Zm8.688.938c.24-.063.476-.129.708-.2v-11.272c-.232-.072-.468-.142-.708-.2ZM289,1624.341V1619.5a4.481,4.481,0,0,0,0,4.838Zm1.029,1.242a8.008,8.008,0,0,0,.709.59v-8.5a7.547,7.547,0,0,0-.709.592Zm21.231-9.066a2.391,2.391,0,1,0,2.39,2.392A2.392,2.392,0,0,0,311.262,1616.517Zm-.863,1.494a.5.5,0,1,1,.5-.5A.5.5,0,0,1,310.4,1618.011Zm.863,4.533a2.391,2.391,0,1,0,2.39,2.391A2.391,2.391,0,0,0,311.262,1622.544Zm1.892,1.529a.5.5,0,1,1-.5-.5A.5.5,0,0,1,313.154,1624.073Zm.6-15.029H295.821l6.911-1.838a.917.917,0,0,0,.649-.65l12.5-3.326.074.263a.461.461,0,0,0,.444.334.487.487,0,0,0,.125-.015.464.464,0,0,0,.319-.571l-.374-1.324a.461.461,0,0,0-.889.248l.05.178-12.489,3.322a.918.918,0,0,0-.887-.242l-13.614,3.621h-.327a3.487,3.487,0,0,0-3.485,3.486v14.832a3.484,3.484,0,0,0,3.485,3.485h1.652v1.783H293.7v-1.783h14.664v1.783h3.736v-1.783h1.652a3.484,3.484,0,0,0,3.484-3.485V1612.53A3.487,3.487,0,0,0,313.757,1609.044Zm-25.246,1.846h24.822v3.277H288.511Zm26.886,16.472a1.642,1.642,0,0,1-1.64,1.641h-25.44a1.642,1.642,0,0,1-1.641-1.641V1612.53a1.637,1.637,0,0,1,.913-1.463v3.561a.464.464,0,0,0,.135.326.456.456,0,0,0,.326.135h25.744a.466.466,0,0,0,.462-.461v-3.652a1.639,1.639,0,0,1,1.141,1.554Zm-11.464-1.189a8.31,8.31,0,0,0,.709-.59v-7.32a7.814,7.814,0,0,0-.709-.592Zm-1.738,1c.245-.107.482-.223.708-.346v-9.8c-.226-.121-.463-.238-.708-.345Zm3.476-2.828a4.492,4.492,0,0,0,0-4.838Z" fill="#59595c"/></g></svg>