<svg xmlns="http://www.w3.org/2000/svg" width="89.281" height="85.535" viewBox="0 0 89.281 85.535"><defs><style>.a{fill:#9a57c1;}</style></defs><g transform="translate(-35.679 -47.505)"><path class="a" d="M82.489,83.588l4.522-9.819h0l4.522,9.819Z"/><path class="a" d="M75.888,86.865q-.957-.153-1.95-.259V97.819a6.81,6.81,0,0,0-2.833-1.054V86.418c-.329,0-.649-.032-.98-.032s-.645.027-.974.032V96.765a6.807,6.807,0,0,0-2.836,1.054V86.606q-.989.106-1.953.259V99.81a6.807,6.807,0,0,0,0,7.463v12.946q.964.151,1.953.258V109.264a6.884,6.884,0,0,0,2.836,1.06v10.341c.329,0,.646.032.974.032s.651-.027.98-.032V110.324a6.825,6.825,0,0,0,2.833-1.065v11.218q.991-.106,1.95-.258V107.284a6.823,6.823,0,0,0,0-7.479Zm-16.312,32.2c.635.205,1.289.387,1.953.56V87.457c-.664.167-1.318.36-1.953.56Zm-4.786-2.023q.939.509,1.951.952V89.087c-.676.3-1.325.619-1.951.952Zm23.936,2.583c.662-.173,1.31-.355,1.95-.56V88.017c-.64-.2-1.288-.393-1.95-.56Zm-31.56-9.422V96.878a12.344,12.344,0,0,0,0,13.327ZM50,113.627a22.144,22.144,0,0,0,1.95,1.625V91.831A21.345,21.345,0,0,0,50,93.461Zm58.485-24.976a6.585,6.585,0,1,0,6.586,6.591A6.592,6.592,0,0,0,108.487,88.651Zm-2.375,4.117a1.37,1.37,0,1,1,1.369-1.372A1.37,1.37,0,0,1,106.112,92.768Zm2.375,12.487a6.586,6.586,0,1,0,6.586,6.586A6.589,6.589,0,0,0,108.487,105.255Zm5.214,4.214a1.37,1.37,0,1,1-1.372-1.372A1.37,1.37,0,0,1,113.7,109.469Zm1.66-41.4H65.952L84.991,63a2.52,2.52,0,0,0,1.786-1.792l34.447-9.163.2.727a1.271,1.271,0,1,0,2.445-.694l-1.03-3.648a1.271,1.271,0,0,0-2.449.683l.138.49-34.4,9.152a2.532,2.532,0,0,0-2.443-.667l-37.5,9.975h-.9a9.6,9.6,0,0,0-9.6,9.6v40.859a9.6,9.6,0,0,0,9.6,9.6H49.83v4.912H60.122v-4.912h40.4v4.912h10.293v-4.912h4.549a9.6,9.6,0,0,0,9.6-9.6V77.67A9.608,9.608,0,0,0,115.361,68.065ZM45.813,73.15h68.38v9.029H45.813Zm74.068,45.379a4.529,4.529,0,0,1-4.52,4.52H45.278a4.525,4.525,0,0,1-4.52-4.52V77.67a4.507,4.507,0,0,1,2.515-4.03v9.808a1.284,1.284,0,0,0,.372.9,1.258,1.258,0,0,0,.9.371h70.92a1.28,1.28,0,0,0,1.272-1.27V73.387a4.522,4.522,0,0,1,3.145,4.283ZM88.3,115.252a22.19,22.19,0,0,0,1.953-1.625V93.461a21.388,21.388,0,0,0-1.953-1.63ZM83.512,118c.674-.3,1.326-.613,1.95-.952v-27c-.624-.333-1.276-.656-1.95-.952Zm9.574-7.791a12.371,12.371,0,0,0,0-13.327Z"/></g></svg>