<svg xmlns="http://www.w3.org/2000/svg" width="121.484" height="85.04" viewBox="0 0 121.484 85.04">
  <g id="youtube_logo" transform="translate(-84.55 -85.035)">
    <path id="Path_741" data-name="Path 741" d="M203.5,98.314a15.216,15.216,0,0,0-10.741-10.74c-9.474-2.539-47.463-2.539-47.463-2.539s-37.989,0-47.463,2.539a15.216,15.216,0,0,0-10.741,10.74c-2.538,9.474-2.538,29.241-2.538,29.241s0,19.767,2.538,29.241a15.214,15.214,0,0,0,10.741,10.74c9.474,2.539,47.463,2.539,47.463,2.539s37.989,0,47.463-2.539A15.214,15.214,0,0,0,203.5,156.8c2.538-9.474,2.538-29.241,2.538-29.241S206.034,107.788,203.5,98.314Zm-70.352,47.464V109.332l31.561,18.224Z" fill="#221f1c"/>
    <path id="Path_749" data-name="Path 749" d="M133.144,145.782,164.7,127.56l-31.561-18.223Z" fill="#fff"/>
  </g>
</svg>
